<?xml version="1.0" encoding="UTF-8" standalone="no"?>
<svg
   xmlns:osb="http://www.openswatchbook.org/uri/2009/osb"
   xmlns:dc="http://purl.org/dc/elements/1.1/"
   xmlns:cc="http://creativecommons.org/ns#"
   xmlns:rdf="http://www.w3.org/1999/02/22-rdf-syntax-ns#"
   xmlns:svg="http://www.w3.org/2000/svg"
   xmlns="http://www.w3.org/2000/svg"
   xmlns:xlink="http://www.w3.org/1999/xlink"
   xmlns:sodipodi="http://sodipodi.sourceforge.net/DTD/sodipodi-0.dtd"
   xmlns:inkscape="http://www.inkscape.org/namespaces/inkscape"
   version="1.1"
   width="500"
   height="300"
   id="svg3825"
   inkscape:version="0.48.2 r9819"
   sodipodi:docname="map.svg">
  <metadata
     id="metadata3953">
    <rdf:RDF>
      <cc:Work
         rdf:about="">
        <dc:format>image/svg+xml</dc:format>
        <dc:type
           rdf:resource="http://purl.org/dc/dcmitype/StillImage" />
        <dc:title></dc:title>
      </cc:Work>
    </rdf:RDF>
  </metadata>
  <sodipodi:namedview
     pagecolor="#ffffff"
     bordercolor="#666666"
     borderopacity="1"
     objecttolerance="10"
     gridtolerance="10"
     guidetolerance="10"
     inkscape:pageopacity="0"
     inkscape:pageshadow="2"
     inkscape:window-width="1043"
     inkscape:window-height="698"
     id="namedview3951"
     showgrid="false"
     inkscape:zoom="1.3379312"
     inkscape:cx="443.95315"
     inkscape:cy="182.58222"
     inkscape:window-x="17"
     inkscape:window-y="0"
     inkscape:window-maximized="0"
     inkscape:current-layer="svg3825" />
  <desc
     id="desc3827">Created with Raphaël</desc>
  <defs
     id="defs3829">
    <linearGradient
       id="linearGradient5306"
       osb:paint="solid">
      <stop
         style="stop-color:#000000;stop-opacity:0;"
         offset="0"
         id="stop5308" />
    </linearGradient>
    <linearGradient
       id="linearGradient3860">
      <stop
         style="stop-color:#0dff00;stop-opacity:1;"
         offset="0"
         id="stop3863" />
      <stop
         id="stop3870"
         offset="0.5"
         style="stop-color:#867f00;stop-opacity:0.49803922;" />
      <stop
         style="stop-color:#ff0000;stop-opacity:0;"
         offset="1"
         id="stop3865" />
    </linearGradient>
    <style
       type="text/css"
       id="style5">
        .hidden {
          visibility: hidden;
        }
        .chanel {
          stroke-width:3;
        }
        .selected {
          stroke-width:5;
        }
     </style>
    <linearGradient
       id="linearGradient7975">
      <stop
         style="stop-color:#f01600;stop-opacity:0.9285714;"
         offset="0"
         id="stop7977" />
      <stop
         style="stop-color:#000000;stop-opacity:0;"
         offset="1"
         id="stop7979" />
    </linearGradient>
    <marker
       inkscape:stockid="Arrow1Send"
       orient="auto"
       refY="0.0"
       refX="0.0"
       id="Arrow1Send"
       style="overflow:visible;">
      <path
         id="path5645"
         d="M 0.0,0.0 L 5.0,-5.0 L -12.5,0.0 L 5.0,5.0 L 0.0,0.0 z "
         style="fill-rule:evenodd;stroke:#000000;stroke-width:1.0pt;marker-start:none;"
         transform="scale(0.2) rotate(180) translate(6,0)" />
    </marker>
    <marker
       inkscape:stockid="Arrow1Mend"
       orient="auto"
       refY="0.0"
       refX="0.0"
       id="Arrow1Mend"
       style="overflow:visible;">
      <path
         id="path5639"
         d="M 0.0,0.0 L 5.0,-5.0 L -12.5,0.0 L 5.0,5.0 L 0.0,0.0 z "
         style="fill-rule:evenodd;stroke:#000000;stroke-width:1.0pt;marker-start:none;"
         transform="scale(0.4) rotate(180) translate(10,0)" />
    </marker>
    <linearGradient
       id="linearGradient5437"
       osb:paint="gradient">
      <stop
         style="stop-color:#006b00;stop-opacity:1;"
         offset="0"
         id="stop5439" />
      <stop
         id="stop6259"
         offset="0.25"
         style="stop-color:#0a6d00;stop-opacity:0.74901961;" />
      <stop
         id="stop6257"
         offset="0.5"
         style="stop-color:#146f00;stop-opacity:0.49803922;" />
      <stop
         style="stop-color:#145500;stop-opacity:0;"
         offset="1"
         id="stop5441" />
    </linearGradient>
    <lineargradient
       id="r10o"
       x1="0"
       y1="1"
       x2="6.123031769111886e-17"
       y2="0">
      <stop
         offset="0%"
         stop-color="#a5a0a7"
         id="stop3832" />
      <stop
         offset="100%"
         stop-color="#98999b"
         id="stop3834" />
    </lineargradient>
    <lineargradient
       id="r10p"
       x1="0"
       y1="1"
       x2="6.123031769111886e-17"
       y2="0">
      <stop
         offset="0%"
         stop-color="#a5a0a7"
         id="stop3837" />
      <stop
         offset="100%"
         stop-color="#98999b"
         id="stop3839" />
    </lineargradient>
    <lineargradient
       id="r10q"
       x1="0"
       y1="1"
       x2="6.123031769111886e-17"
       y2="0">
      <stop
         offset="0%"
         stop-color="#a5a0a7"
         id="stop3842" />
      <stop
         offset="100%"
         stop-color="#98999b"
         id="stop3844" />
    </lineargradient>
    <lineargradient
       id="r10r"
       x1="0"
       y1="1"
       x2="6.123031769111886e-17"
       y2="0">
      <stop
         offset="0%"
         stop-color="#a5a0a7"
         id="stop3847" />
      <stop
         offset="100%"
         stop-color="#98999b"
         id="stop3849" />
    </lineargradient>
    <lineargradient
       id="r10s"
       x1="0"
       y1="1"
       x2="6.123031769111886e-17"
       y2="0">
      <stop
         offset="0%"
         stop-color="#a5a0a7"
         id="stop3852" />
      <stop
         offset="100%"
         stop-color="#98999b"
         id="stop3854" />
    </lineargradient>
    <lineargradient
       id="r10t"
       x1="0"
       y1="1"
       x2="6.123031769111886e-17"
       y2="0">
      <stop
         offset="0%"
         stop-color="#a5a0a7"
         id="stop3857" />
      <stop
         offset="100%"
         stop-color="#98999b"
         id="stop3859" />
    </lineargradient>
    <lineargradient
       id="r10u"
       x1="0"
       y1="1"
       x2="6.123031769111886e-17"
       y2="0">
      <stop
         offset="0%"
         stop-color="#a5a0a7"
         id="stop3862" />
      <stop
         offset="100%"
         stop-color="#98999b"
         id="stop3864" />
    </lineargradient>
    <lineargradient
       id="r10v"
       x1="0"
       y1="1"
       x2="6.123031769111886e-17"
       y2="0">
      <stop
         offset="0%"
         stop-color="#a5a0a7"
         id="stop3867" />
      <stop
         offset="100%"
         stop-color="#98999b"
         id="stop3869" />
    </lineargradient>
    <linearGradient
       inkscape:collect="always"
       xlink:href="#linearGradient7975"
       id="linearGradient7981"
       x1="134"
       y1="195.12193"
       x2="539.83436"
       y2="195.12193"
       gradientUnits="userSpaceOnUse"
       gradientTransform="translate(1,82)" />
    <linearGradient
       inkscape:collect="always"
       xlink:href="#linearGradient7975"
       id="linearGradient3079"
       gradientUnits="userSpaceOnUse"
       x1="134"
       y1="195.12193"
       x2="539.83436"
       y2="195.12193"
       gradientTransform="translate(146,110)" />
    <linearGradient
       inkscape:collect="always"
       xlink:href="#linearGradient7975"
       id="linearGradient3083"
       gradientUnits="userSpaceOnUse"
       gradientTransform="translate(-50,-15)"
       x1="134"
       y1="195.12193"
       x2="539.83436"
       y2="195.12193" />
    <linearGradient
       inkscape:collect="always"
       xlink:href="#linearGradient5306"
       id="linearGradient5314"
       x1="29.5"
       y1="347"
       x2="46.5"
       y2="347"
       gradientUnits="userSpaceOnUse" />
    <linearGradient
       inkscape:collect="always"
       xlink:href="#linearGradient5306"
       id="linearGradient3110"
       gradientUnits="userSpaceOnUse"
       x1="29.5"
       y1="347"
       x2="46.5"
       y2="347" />
    <linearGradient
       inkscape:collect="always"
       xlink:href="#linearGradient5306"
       id="linearGradient3112"
       gradientUnits="userSpaceOnUse"
       x1="29.5"
       y1="347"
       x2="46.5"
       y2="347" />
    <linearGradient
       inkscape:collect="always"
       xlink:href="#linearGradient5306"
       id="linearGradient3114"
       gradientUnits="userSpaceOnUse"
       x1="29.5"
       y1="347"
       x2="46.5"
       y2="347" />
    <linearGradient
       inkscape:collect="always"
       xlink:href="#linearGradient5306"
       id="linearGradient3115"
       gradientUnits="userSpaceOnUse"
       x1="29.5"
       y1="347"
       x2="46.5"
       y2="347" />
    <linearGradient
       inkscape:collect="always"
       xlink:href="#linearGradient5306"
       id="linearGradient3117"
       gradientUnits="userSpaceOnUse"
       x1="29.5"
       y1="347"
       x2="46.5"
       y2="347" />
    <linearGradient
       inkscape:collect="always"
       xlink:href="#linearGradient5306"
       id="linearGradient3103"
       gradientUnits="userSpaceOnUse"
       x1="29.5"
       y1="347"
       x2="46.5"
       y2="347" />
    <linearGradient
       inkscape:collect="always"
       xlink:href="#linearGradient5306"
       id="linearGradient3105"
       gradientUnits="userSpaceOnUse"
       x1="29.5"
       y1="347"
       x2="46.5"
       y2="347" />
    <linearGradient
       inkscape:collect="always"
       xlink:href="#linearGradient5306"
       id="linearGradient3107"
       gradientUnits="userSpaceOnUse"
       x1="29.5"
       y1="347"
       x2="46.5"
       y2="347" />
    <linearGradient
       inkscape:collect="always"
       xlink:href="#linearGradient5306"
       id="linearGradient3109"
       gradientUnits="userSpaceOnUse"
       x1="29.5"
       y1="347"
       x2="46.5"
       y2="347" />
  </defs>
  <path
     d="m 463.54007,-25.017818 c -0.0457,-0.0057 -0.13284,0.02311 -0.21622,0.100892 -0.66681,0.622461 -2.54035,1.160448 -2.54035,1.160448 l -1.99983,2.573185 -0.75671,0 -2.70249,0.958635 -1.56746,1.463168 -1.08099,1.412737 -0.21621,1.866809 -1.24314,-0.100892 0,0.958635 1.78366,0.403641 -2.10796,1.362261 -0.6486,1.866825 1.99984,0.504533 3.08086,0.201827 2.70249,-0.504547 0,1.2613538 -2.70249,1.311815 -1.51341,1.412738 -2.27008,-1.614551 -2.54035,0.756822 -1.78365,-1.664995 -1.56745,0.807267 -2.43224,1.059541 -1.99983,1.967732 -3.78351,1.00908 -1.99985,2.724537 -2.75655,1.00909602 -2.27008,2.11908298 -2.2701,2.119097 -2.37821,1.261356 -3.29703,1.362275 -1.72959,1.614536 -3.78352,3.5318192 -3.40514,3.027259 -0.86478,3.027271 -1.89175,2.623631 -0.70266,1.866824 0.70266,1.715443 -1.56746,0 -1.78365,0.958633 -0.21618,2.169545 -1.99986,0.958635 -0.5405,1.96773 0,1.109987 2.21605,0 0.6486,1.463183 2.75655,-0.403626 3.78349,1.564089 1.24315,0.201814 0.6486,1.664996 -0.5405,1.664994 -2.21605,0.50455 -2.43224,1.059542 -1.78366,0.605454 -2.59439,0 -1.62151,-1.56409 1.56745,-1.513629 -2.10794,-1.967731 -1.13504,1.110003 -1.24315,2.068637 1.56745,2.068622 -0.43239,1.26137 1.08098,1.00908 -0.64859,2.522725 -2.75656,1.866824 0,2.068637 -1.45934,1.311801 -1.67555,0 -1.02696,1.765917 0,3.430898 -2.10792,1.967716 0,1.463183 1.08099,1.009096 -2.162,0 -1.99986,1.463168 -2.81058,1.160463 -3.08084,-2.926352 -1.5134,-1.362276 -3.0268,0.151354 -3.67539,0.504547 -2.10794,2.371371 -2.37819,2.21999 -2.75657,3.83454 0,2.976811 -2.21603,2.623646 -2.10795,1.967716 -2.32415,0.10089 -2.10795,-1.059542 -3.02679,1.564089 c 0,0 0.65771,2.682585 0.3243,2.371355 -0.33341,-0.31123 -2.10795,-2.06862 -2.10795,-2.06862 l -1.56744,1.66498 -2.43225,0 c 0,0 -1.47889,-0.43585 -0.75669,-1.10999 0.72215,-0.67412 1.67554,-1.86682 1.67554,-1.86682 l -1.99983,-1.362262 -3.35112,1.362262 -2.32414,1.009095 -1.02694,2.573175 -0.4324,1.46319 0.64859,3.32999 0,1.967739 -1.89174,1.66498 0.59454,-4.036359 -2.10795,-0.60545 -1.67555,1.51363 -1.89175,0.85773 0.75672,-2.82545 c 0,0 2.10794,-0.68934 2.10794,-1.31181 0,-0.62248 -0.4324,-1.05955 -0.4324,-1.05955 l -3.24299,1.36228 -4.10779,1.46317 -0.8648,2.37136 -3.1349,1.463179 -2.10794,0 -1.45936,1.31181 2.3782,1.36228 0.3243,1.46318 -2.43224,2.06862 0,2.16955 1.29718,0.85773 1.13506,-2.72454 0.75671,0.60546 0,2.32089 1.89173,0.90819 1.67557,1.56407 0.75668,0.40365 -1.6215,1.56409 -2.16199,-0.10092 -1.1891,1.26135 -0.97291,0.857717 2.64847,1.11 0,1.56409 -2.48631,-0.65591 -2.10793,0.10092 -2.86467,0.6559 -1.56744,2.67409 0.54051,2.72455 -2.75655,0 -2.43224,0.60545 -1.56746,-1.46317 -2.75654,-0.30274 0,1.86681 1.40529,1.36228 0,1.46319 0.70265,1.51363 1.081,3.43089 -0.2162,1.96774 -2.54034,-1.21091 -1.02694,0.90816 -2.32416,-0.40362 -1.67553,-1.05955 -2.16201,-2.01816 -2.2701,0.0505 0,-1.66502 c 0,0 -0.97288,-1.4267 -0.97288,-0.90818 0,0.51854 -1.24318,1.00908 -1.24318,1.00908 l -1.56743,-1.41271 0.91885,-0.85771 1.40529,-0.40365 0,-2.27045 -1.081,-1.05954 -2.10792,1.26135 0,-1.96771 -1.29722,-1.21092 -1.2972,0 0.91884,-2.52272 -2.70248,-0.85773 -0.75671,0.75682 -2.43223,-1.76592 c 0,0 -0.24748,0.95865 -1.08101,0.95865 -0.83351,0 -0.70265,1.91728 -0.70265,1.91728 l -0.8648,0.6559 -0.91884,-0.95864 -0.8648,0.20182 -0.48645,1.26137 -1.78364,-1.16045 -1.13506,-1.05955 -1.40528,0.95863 -1.2972,-1.21091 -0.37836,1.21091 -0.4324,2.42181 1.67555,2.37136 0.3243,2.06864 c 0,0 0.55547,1.8668 0,1.8668 -0.55547,0 -2.97274,0.40364 -2.97274,0.40364 l -2.37821,1.86682 -2.32414,0.85774 -1.2972,-1.96773 -0.37836,1.10999 -0.10805,0.85774 -3.40516,0 -1.8377,-1.71546 0.75672,-0.75682 -0.81074,-1.16046 -3.35112,0.90818 -4.21588,0.75683 -2.81058,1.31182 -2.05391,1.91726 -1.02695,1.00909 1.56744,1.36226 -1.56744,0 -1.35124,-1.76589 0,-2.06865 -1.13505,-1.10999 -1.40531,1.81637 -0.43239,1.26136 -2.21605,-0.85773 -1.89175,-0.40363 0.27025,1.81635 0.86481,0.65592 -0.21622,1.00908 -0.75668,0.75682 0.48643,1.2109 1.02697,1.36229 0.91886,0.90818 -0.37837,2.06861 0.81074,1.56411 2.21606,0.75682 0,1.10998 3.02678,2.01818 1.40531,1.31181 0,2.57319 1.56746,2.77499 1.78364,0 0.16204,2.1191 -0.91882,0 -0.48647,1.46316 -2.10795,1.96773 -1.83768,1.16045 0.10805,3.73363 -1.67556,0.555 -0.59455,2.0182 1.24316,1.16043 0,1.71547 -0.64861,1.41271 -2.27008,-0.65591 -1.67556,0.50456 -2.37821,3.17864 -2.37818,0.85771 0,0.85774 0.64859,1.36225 0.81076,1.81637 1.9458,1.26137 0.2162,3.43089 1.9458,3.27955 0,1.36226 0.48643,2.62364 0.59456,3.9859 -1.67554,0.45409 -1.081,1.71544 -1.02695,0.95864 0.59455,1.76592 0.64858,-0.60546 2.05393,0.80727 0,1.66499 0.75667,0.70636 -0.75667,0.65592 0,1.81635 1.94577,0.95863 0.6486,2.87589 2.2701,2.11912 -0.75668,2.01817 -1.29721,1.91728 0.54049,1.56407 0,1.36228 -0.70264,0.65591 0,2.06863 1.1891,0.50454 1.78363,0 0.91886,-0.80726 1.02694,0 0.97292,1.10999 2.05388,-0.7568 1.5134,0.65589 1.1891,-1.11 1.6215,0.10092 0.10805,1.2109 1.56745,1.46318 0,1.31182 -1.51343,0.40364 0,2.01818 1.78368,-0.15129 1.89171,-0.50453 1.67558,1.10999 1.40529,2.32092 0.59454,2.27045 0.7567,0.70635 -0.70266,0.6559 0,1.51365 1.78368,0.75681 1.56745,0 1.24312,1.16043 -0.27025,1.86683 -0.86478,0.80728 0,1.41272 1.24314,1.2109 0.6486,1.36227 0.21619,1.26137 1.40529,0.4541 1.9458,0.75681 0,2.52274 -0.4324,2.62362 0,2.92635 -0.32428,3.07772 0.27024,5.19681 2.64844,2.47228 2.43225,-0.1513 1.08099,-1.56409 0.70265,-1.91725 1.72959,0 3.6754,-1.3118 0.37836,-1.66502 1.35124,-0.60545 1.45935,1.36227 0,1.81635 1.24315,1.61455 0,-2.11907 2.91871,-1.86682 0,-3.63272 2.10792,-1.96774 0.81076,-2.3209 -0.59456,-2.01818 1.56744,-1.46317 0.64861,-2.01819 1.29723,-1.51363 2.37818,0.35318 2.37819,-0.30273 2.4863,1.10999 2.16198,0.25229 0,1.91727 1.02696,0.80727 0,1.51363 2.43224,0.30272 1.56745,-1.46319 0,-1.56408 1.78364,0 1.18911,1.11002 1.51339,1.56407 0,1.46318 1.35125,0.15128 0.91884,2.32091 1.45936,1.36226 1.67555,1.56411 -0.37835,1.16045 1.1891,1.05954 0.48644,2.37136 2.43226,0.85773 1.72959,2.11908 1.67554,0.50455 0,1.81635 1.78366,0.4541 0.054,1.26137 1.35125,1.26136 1.94578,0.45408 1.45935,-0.45408 0.81076,1.21089 -1.35126,1.5641 0.70266,1.26136 2.32415,0.60545 0.64859,-1.56409 1.35125,-1.31182 1.29719,0.35319 0.91885,0.85772 0.10805,1.7659 1.2972,0.45409 1.29722,-1.66498 1.78363,0.80727 0.75669,2.01817 0.75672,1.21092 -0.27025,2.67408 1.18909,0.15129 1.51338,1.46318 0.86481,0 0,0.75681 -1.62148,0.90817 0.91882,1.36228 0.54051,2.21999 1.89176,0 0.7567,1.36227 1.62149,2.57317 1.7296,-1.61454 3.7835,-2.62363 2.81059,0 2.54033,-0.80726 3.3511,0.50455 2.64845,-1.36228 2.32415,0 4.43208,0.40364 1.35127,1.26135 2.21603,0.95864 0.91886,2.16955 2.43223,0.60545 1.78366,1.665 2.54034,1.86682 1.13504,2.47227 2.64844,0.45407 c 0,0 2.10797,1.55192 2.10797,1.96774 0,0.4158 1.89173,1.41273 1.89173,1.41273 l 1.62151,1.51361 1.40529,2.57319 3.29705,0.60546 3.35109,-1.16046 1.24316,-1.10999 2.97273,0 3.243,-0.40364 2.10795,0.50455 2.54033,0.60543 1.29722,-1.16043 2.37818,0.555 1.45936,1.36227 1.78364,1.41272 0,2.42181 1.51339,0.50454 2.10797,1.16046 2.16197,0 0.54051,-1.86682 1.99985,-0.65591 2.32415,-1.26135 2.32414,-1.71545 -0.8648,-2.62365 1.99985,-2.37136 1.78364,-2.72452 0.6486,-2.06865 2.64845,-1.31182 1.89176,0 0.48644,1.31182 1.56744,1.51364 1.40529,1.31182 0,2.27044 -1.67553,1.56409 2.21604,2.16955 0.59454,2.27045 1.18912,1.96772 -0.43241,1.66499 1.56744,1.96773 0.21621,2.42181 1.08098,2.27045 -0.86479,2.16955 1.78364,2.57318 -1.02694,1.86681 -1.56745,1.51363 -1.83769,-0.55499 -1.78365,0.80726 -1.56745,1.46319 0,2.06863 -1.24314,1.16045 -1.35127,1.31182 0.054,2.01817 1.99985,0.60546 2.10797,1.96772 0.97289,2.37137 1.24314,1.16045 2.37819,2.22 1.1891,2.47227 0,2.06862 -1.35124,2.47227 -0.7567,2.37138 0.86481,0.85771 2.10795,0.10093 0,-1.66501 0,-1.05953 0.97289,-0.85773 0.59456,-2.01817 -0.43241,-1.76593 0.43241,-2.62363 0,-1.00908 1.45933,1.36226 0.91885,0.85774 0,-1.91728 0.8648,-1.76591 0.81074,0.80729 0,1.36226 1.62151,0.6559 2.32413,-1.26135 2.75655,-1.05954 1.45936,0 1.67554,-2.87591 1.45935,-2.92637 2.21605,-3.4309 0,-2.37137 0.21618,-4.99497 -0.64858,-3.83454 0.64858,-3.73363 0,-4.94454 0,-4.08682 0.6486,-2.06862 0,-3.93547 -0.6486,-4.03634 -0.64858,-3.02727 -0.91884,-3.27954 -1.18912,-3.02728 0.10805,-3.83453 -1.24316,-3.73363 0.6486,-3.73364 0,-4.38953 -1.72959,-1.5641 -2.0539,-2.9768 -0.54049,-1.46317 -1.56743,-2.47227 -2.21606,-2.06865 -0.54051,-1.7659 -1.13504,-1.05954 -2.8106,-2.62363 -2.27008,-3.07773 -1.45937,-4.13725 -0.32431,-3.93548 -1.13504,-1.96771 -1.02693,-1.00908 -2.05391,0.25227 -1.67554,-1.56409 -0.4324,-1.3118 -1.99985,0 -1.89175,0 0.64861,-1.16048 0.75668,-0.70635 1.08102,-1.0091 -1.40531,-1.3118 c 0,0 -1.55247,0.6559 -2.10794,0.6559 -0.55546,0 -3.08086,0.40363 -3.08086,0.40363 l -1.08098,-1.00908 -2.3782,-0.25227 -2.9187,0 -2.43226,0.55501 -1.18908,1.10997 -1.99985,1.05955 1.18908,2.06863 1.02696,1.76591 1.02695,0.95864 -0.27024,1.71545 -1.24315,-0.80726 -0.75669,0.60543 -1.24317,1.56412 0,1.05954 -2.21603,0.80726 0,-1.36228 0,-1.86681 -0.6486,-0.60545 -0.64861,0.20183 -1.35125,-0.90819 0,-1.05954 -1.24313,1.26135 0,1.5641 1.56744,0.60544 0,1.665 -1.13504,1.05956 -1.35127,-1.21091 -1.08098,-1.81639 0,-1.36225 -1.2972,-0.60546 -1.13505,-1.05954 -1.62151,1.51365 -1.40529,1.36225 -1.83769,0 -1.35125,1.21091 -1.67554,0 -0.97291,-2.11908 0.8648,-2.27047 0,-2.62361 1.67555,-2.57318 0,-2.92636 0.97291,-3.48136 0,-2.82545 0,-2.47228 -1.08101,-1.16043 0,-3.53184 0.64861,-2.57316 0,-3.73364 0,-2.82545 1.35125,-2.06862 -1.56746,-1.46318 -0.9729,-2.37136 0.5405,-3.33 1.67555,-1.56409 -1.78365,-3.27955 0.3243,-3.4309 1.89175,-3.5318 1.89175,-1.76592 1.78364,-2.82545 1.6215,-1.46318 2.4863,-2.37136 2.54034,0 1.89174,-1.11 -0.6486,-0.6559 -0.91885,-1.31181 1.35126,-1.16046 1.35124,0 1.51339,-1.36227 1.7296,-1.61454 -0.70264,-2.22 2.32413,0.85773 1.45937,-1.46319 -1.24318,-1.16044 -0.54047,-1.96772 0.54047,-1.56409 1.45936,-1.31182 1.78367,-0.45409 1.56744,-1.7659 3.08085,-1.31182 0,-0.95863 2.10794,-0.30273 1.99985,-0.70636 0.86479,0.75681 -1.83769,0.555 -0.43241,1.36228 0,1.36225 c 0,0 1.47305,0.44133 0.97291,0.9082 -0.50011,0.46682 2.10794,-0.10093 2.10794,-0.10093 l 0.81075,-1.96772 0,-2.16954 2.10796,-0.80728 0.32428,-1.56407 -0.81075,-3.63274 3.3511,-0.55499 0,-2.77501 1.78367,-0.50454 0.10804,-1.96772 -1.67553,0 -0.91884,0.85772 -1.29719,1.11 -1.45937,0.20181 -1.51339,-1.46318 0,-1.86679 -1.83771,-1.71548 -0.64858,-4.0868 0,-3.12816 -1.99959,-2.87592 0.32429,-2.92635 -1.99985,-1.26138 -0.10804,-4.54091 1.24315,-1.36225 0.97289,-3.43089 0,-1.66502 3.02681,0 0.86477,-2.472257 -0.86477,-2.27046 3.13488,2.674087 0.8648,1.76592 1.13505,1.05953 1.62149,1.5641 0,-2.62363 1.99985,0.95862 0.91886,2.06864 0.75668,-2.42181 -0.21619,-3.935457 -1.08098,-2.47226 0,-3.33 -1.40532,-1.26136 1.02695,-1.41273 1.02694,0.10093 0.2162,-1.36228 -2.21603,0 -1.8377,-1.71545 -1.9458,-1.81636 -1.35125,-1.10999 0.70264,-1.665009 0,-2.16954 2.43226,-1.26136 1.7296,-1.61455 0.70265,0.65592 -2.10794,1.86682 0,2.4218 2.32414,1.311819 1.56743,1.86681 1.2972,1.21091 1.35126,0.4541 1.45933,0 1.45935,2.62363 1.35127,1.21091 0,1.7659 0,1.46319 -0.81076,2.47226 0.10805,2.11908 1.35124,1.009097 1.35123,3.83454 1.08101,2.62363 1.02696,3.17862 0.8648,3.4309 2.10794,2.62365 1.35123,3.83454 0.54051,3.32999 1.13504,3.07772 -0.86479,0.80726 -0.9729,0.9082 1.02696,1.71545 -0.7567,1.5641 -0.97291,0.85771 0,0.90819 2.05391,0.40361 1.89172,2.47229 0.37836,2.42179 1.5134,1.46319 0,2.16955 2.21605,2.16955 3.24299,2.9768 c 0,0 0.95923,2.05587 1.45937,2.52273 l 2.97273,1.86682 3.13488,1.56409 4.7564,1.3118 2.21605,0.4541 1.99984,1.21091 1.24315,1.56408 4.21589,2.06864 3.67539,1.46318 3.89162,1.66499 1.99984,1.86683 2.21604,0 1.62151,1.51362 2.05388,0.95864 3.243,0 1.1891,1.56409 0,-2.06864 -0.5405,-2.82545 -1.13505,-4.33908 -0.4324,-3.33 -2.10794,-1.86682 -2.86466,-2.67408 -1.89173,-0.75681 -1.13506,-3.73364 0.91885,-1.86682 0,-1.86682 2.43224,-0.3027 0,-1.21091 -3.243,-0.75682 -0.91884,-0.85772 -1.9458,-0.70639 -2.21604,-3.17862 -0.81075,-4.18772 1.13505,-2.27045 1.89174,-1.16044 1.29719,-0.80728 -0.75667,-1.86682 -2.21606,-1.66499 -3.7835,0.40365 -1.62149,-1.46318 -2.0539,-0.50457 -2.32415,-3.63271 -0.64859,-2.47228 2.21605,-0.60545 0.86479,-1.96772 -2.162,-2.06863 -1.8377,0 -1.13504,1.10999 -2.86464,-0.60544 -2.86466,-1.86682 -0.59453,-2.42182 -2.86465,-2.6741 -0.75672,1.5641 -1.08098,0.95864 0,0.90818 0.81074,1.76591 -3.08083,0 -1.8377,-1.71546 -3.08086,-1.51363 -0.3243,-2.27046 -0.43238,-2.92636 -2.10794,-1.96772 -1.56747,-1.463167 -1.2972,-1.21092 -1.67553,-2.62362 1.1891,-1.11001 0,-2.72453 1.35124,0 2.0539,-1.91728 -2.0539,-0.85771 0,-1.96773 -1.24315,-3.027269 1.35125,-0.10089 1.56745,1.463159 2.10794,0.90819 0,-1.66499 -1.89175,-2.674089 0,-1.56409 0.8648,-2.92637 -1.18909,-1.10999 2.32413,-3.128189 1.45936,-3.128165 2.75656,-0.807281 1.99982,0.908188 1.89176,-1.513627 -1.24315,-1.160449 -1.89175,-1.967732 -1.08098,-4.137273 0,-3.027257 -2.10795,-1.765903 -1.13507,-3.2291 -0.54049,-3.279531 -1.13505,-2.522725 -0.64859,-2.875904 0,-3.733634 -0.75671,-3.329991 -1.89174,-2.724538 0.81075,-0.756822 -2.59441,-1.614549 0.64861,-0.908174 2.32414,0 1.45936,-2.926366 2.21602,-0.807268 0,-2.21999 -1.62148,-1.463183 -0.81073,-1.816363 -1.78367,1.210909 -1.24313,-0.908173 -1.40531,0.201812 -1.1891,1.059542 -1.94578,0 -0.54049,1.009094 -1.99986,0 0,-1.463182 -2.43225,0.100889 -1.35125,0.201815 -1.67557,-0.10089 -0.64857,1.059542 -1.40529,1.311815 -2.37822,0.05052 -1.35123,0.908174 0,1.967731 -1.45936,0.504548 -1.081,-1.009096 1.78365,-1.967716 -1.24315,0 -1.89175,0.706361 0.81077,-1.664996 2.32413,-0.908189 1.67554,0 1.78366,-2.724537 -0.48647,-2.371357 -0.86479,-3.027272 -1.83769,-1.715456 -1.7296,-1.564089 -0.97289,0.908188 -0.16207,-1.96773 -1.62151,0 -2.48629,0.605454 -1.45934,-1.362262 0,-1.4127372 -1.94579,-0.302719 0.64858,-0.655915 0.97292,-0.403627 -0.81076,-0.756822 0.16206,-1.009095 1.13505,0.605455 1.1891,0.958634 2.10794,0 1.45936,-1.059542 1.45934,1.059542 1.8377,-1.715443 0,-2.623631 -0.86479,-1.564089 1.89176,-2.62363098 2.10794,0 1.67554,0.655901 2.32415,-0.756821 1.24315,-2.47226402 2.32413,-2.371357 2.54036,-0.252274 1.02693,-2.674091 -1.89174,-0.504534 0,-0.857729 2.32415,0 -0.75668,-1.6649958 0,-1.311814 -1.24318,1.412721 -1.18909,0.353181 -1.45934,-2.068636 -2.0539,-1.967716 0,1.109987 -2.64845,-0.908174 -1.1891,1.110002 -1.99984,-0.302734 2.54036,-1.56409 0,-2.169543 c 0,0 0.66681,-1.883831 0,-1.261355 -0.66685,0.622461 -2.32416,0.6559 -2.32416,0.6559 l 1.24314,-2.421803 -1.13504,-1.009095 -1.45933,-1.160449 c 0,0 0.53527,-1.827141 0.21619,-1.866823 z m -57.83342,16.5995128 -0.7567,0.756822 -1.72959,0.857729 -1.35125,1.261354 0.10805,2.21999 -0.59455,0.555008 0.3243,1.765902 1.081,1.51363002 1.13503,2.47227698 1.78366,0.353181 1.1891,-1.110002 0.91886,-1.51362898 -1.02696,-1.009095 1.51338,-2.01817702 -0.27024,-2.169543 0,-2.57317 -1.45935,-1.059556 -0.86479,-0.302721 z M 312.957,43.751608 l -0.59454,1.059557 0.64859,0.605439 0.7567,-0.605439 -0.81075,-1.059557 z m 16.05283,7.921353 -2.21606,0.908175 -1.18908,1.31183 -1.24315,1.160448 -0.5405,0 -0.91884,-1.059542 -1.56745,1.412722 -1.08101,1.009081 -0.75669,0.706375 -1.51342,-0.655914 0.21621,0.756821 0.48645,0.655901 1.13505,1.513643 2.16199,0.706361 1.35126,-1.261355 1.8377,0 1.78363,-0.655915 1.67555,-0.706361 1.08101,-1.009095 0,-1.311816 0.91883,-2.371357 -1.62148,-1.110002 z m -13.24222,7.164546 -1.2972,0.35318 -3.243,0 -1.02695,1.009082 -1.67554,1.059542 -1.24314,-1.109989 -2.91872,0.857714 0.2162,1.664997 0.75671,0.706374 1.13504,1.059529 0.75671,0.706375 -1.13505,0.807268 -1.51341,-1.210909 -0.81075,0.756821 -1.08098,-1.009095 -2.54036,0.454087 -1.13504,-0.554993 -0.48646,1.210909 0.81077,0.756821 -1.51341,0.756807 0,1.765902 1.1891,1.160463 -0.27025,1.311816 1.081,0 1.40529,1.311815 -0.37834,1.513629 1.8377,0.857732 2.37819,0.0505 1.02695,0.95864 1.8377,0 2.10794,-0.55501 0,-1.513627 -1.2972,-1.110002 0.70265,-0.655901 1.02695,0.958621 1.89175,-3.128165 1.72959,-1.665009 0.7567,0.70636 1.6215,-1.513628 0.5405,-1.412722 -1.8377,-0.554995 -1.1891,1.109988 -1.51338,-1.009081 -1.8377,-1.059556 -1.8377,-1.210895 0.64859,-1.210908 0.91886,-0.908188 0.75669,2.421831 1.1891,1.059527 1.94578,0.353181 1.24317,-0.504548 0.97289,0 1.02695,-0.90816 -0.48645,-2.018191 -1.62149,0 0.37835,-1.664996 0,-1.210909 z m -20.64708,13.622688 1.02695,1.009097 0.64859,2.220002 1.35127,0 0,-1.261368 -0.54051,-1.009096 -0.8648,-0.857729 -1.6215,-0.100889 z m 27.61951,2.825459 -1.24314,1.10999 -1.18911,1.05955 -1.13504,1.11001 0.64859,1.46318 1.08101,1.00908 -0.70266,1.51363 0.59457,0.55501 0.91882,-1.76592 2.32416,-0.50455 2.05389,-0.75681 2.70249,-1.46318 -1.40529,-2.47226 -1.9458,0 -2.70249,-0.85773 z m -5.35094,0.40364 -1.18909,0.10089 -0.91887,0.70635 0.70266,1.91727 1.13504,1.05955 0.97289,-1.71545 0,-1.41272 -0.70263,-0.65592 z m -11.99908,8.829529 -0.59455,0.45409 1.081,0.50454 1.40531,1.0091 0.64859,-0.75682 -0.64859,-0.80729 -1.89176,-0.40362 z m 184.03994,9.98998 -1.18909,0.60546 0,1.96771 -0.16208,1.81637 1.13505,0.70636 0.7567,0.908187 0.10805,1.61454 1.56745,0.555 -0.37836,-1.61455 -0.70274,-1.261367 0.70266,-2.06863 0,-2.52271 -1.8377,-0.70637 z m 45.67218,5.0959 -1.24317,0.25227 -1.24314,0.807277 0.64861,0.6559 0.91884,-0.85771 0.91886,-0.857737 z m -5.89146,4.843637 -1.78363,0.70635 -1.7296,-0.60544 -1.35125,0.45408 0.64859,1.31182 2.32414,0 2.2701,0 1.45935,-1.31182 -1.8377,-0.55499 z m -280.89736,5.3986 -1.13506,0.20184 -1.8377,1.71546 0,1.21089 1.56745,0 0.48646,1.11001 1.29718,-0.55501 1.5134,-1.41271 0,-2.27048 -1.89173,0 z m 283.97821,60.84811 -0.54049,1.61454 -0.91885,0.85773 1.02695,1.00908 0.6486,1.2109 -0.21621,1.61456 -0.054,2.06862 0.97291,0.9082 1.13504,-0.55502 0,-2.16953 0.97291,-0.95864 -0.81077,-1.81635 -1.35124,-1.26135 0.10805,-1.61455 -0.97289,-0.90819 z m 4.16185,14.02634 0,1.31181 0.97291,0.45408 0.64858,-0.80725 -1.62149,-0.95864 z m -82.80445,20.28269 0,1.31182 0.59454,1.56409 0.7567,-0.20183 1.8377,0.60546 1.2972,1.21092 0,0.6559 1.29719,1.21091 -0.37834,1.81636 -2.21605,-0.65591 0,1.36226 -0.70265,1.76592 2.7025,0.85772 1.35123,2.3209 2.4863,2.32092 0,1.36226 2.32414,2.92636 1.72961,0.20183 2.86465,1.16044 3.67537,1.51363 1.35126,2.06863 2.10796,2.72455 2.37818,2.21999 2.91869,2.67409 3.56731,4.59136 1.6215,3.22909 1.9458,0.55499 1.99983,1.05955 1.89177,1.71545 1.56744,2.775 1.24314,1.51365 1.8377,1.71544 1.89174,1.81636 0,1.71544 2.9187,2.47227 1.6215,1.5641 1.24313,1.41272 1.56748,-1.16046 -1.18912,-2.32091 -1.5134,-1.46318 -0.48645,-1.7659 0.7567,-1.86681 2.48631,0 1.08099,-1.0091 c 0,0 2.59872,1.16046 3.08085,1.16046 0.48144,0 0,-1.05955 0,-1.05955 l -1.35125,-1.61453 -2.27011,-1.2109 -1.29718,1.2109 -2.10795,-0.10093 -0.8648,-1.71545 -1.62149,0 -1.45937,-1.36225 -2.48628,0 -1.6215,-0.95864 -1.9458,-1.81636 -1.24314,-1.16047 c 0,0 -0.39819,-2.50482 -0.10804,-2.77498 0.2894,-0.26891 -1.24314,-1.91726 -1.24314,-1.91726 l -1.6215,-2.32092 0,-1.05955 0.37833,-1.36225 -0.37833,-1.86682 1.40528,0 1.8377,-0.55501 0.9729,-0.90817 0.37835,-1.16046 -2.70248,-0.95863 -1.51342,-1.16047 -2.43223,-1.36225 -2.75655,-1.36228 -2.10795,-1.71544 -3.29705,-1.66501 -2.37819,-2.01817 -2.54036,-0.85773 -1.78364,-0.45408 -2.86463,-2.77502 -1.45937,-1.36225 -0.97288,-2.42183 -1.18909,-1.51362 -1.4053,0 -2.7025,-1.61454 -0.59455,-1.46318 -2.37819,-0.45408 -1.35126,-1.26137 -0.70264,-1.41275 -1.24314,-0.555 -2.48631,-0.60542 z m 91.56053,5.90316 -0.97289,0.10092 0,1.96775 0,1.61453 1.35125,0 -0.37836,-1.51363 0,-1.0091 0,-1.16045 z m -115.1263,5.65091 -1.83769,0.35319 -0.91886,1.00908 0,1.26136 0,1.31183 1.62149,-0.60545 0.86481,0.80726 0.97289,-0.90819 0.37835,-1.76589 -1.08099,-1.46319 z m 114.36962,7.97182 -1.29721,1.21089 -0.37834,1.51364 0.70264,1.41272 -0.48646,2.37135 1.24316,0.25229 0.6486,-1.46318 -0.37837,-1.96772 0.32431,-1.665 -0.37833,-1.66499 z m -2.64845,11.9577 -0.4324,0.45409 0.37834,1.51362 0.7567,-1.05951 -0.70264,-0.9082 z m -2.64845,4.49046 -0.48644,2.32089 0.59452,0.60545 -0.54049,1.7659 0.21622,2.6741 1.13504,0.45409 0.43241,-1.46317 -0.59457,-2.87593 1.02696,-0.95864 -0.16207,-2.06861 -1.62148,-0.45408 z m -0.97291,13.2695 -1.94578,0.30273 0.37834,1.86683 0.21619,1.81634 0.75672,0.25227 0,-1.41271 0.59453,-1.21091 0,-1.61455 z m 4.70235,1.36227 0,0.80729 1.24315,0.6559 0,-1.36227 -1.24315,-0.10093 z"
     style="fill:#cccccc;fill-opacity:1;stroke:#ffffff;stroke-width:1.33688176px;stroke-linejoin:round"
     id="path3883"
     inkscape:connector-curvature="0" />
  <path
     fill="#f1f1f3"
     stroke="#000000"
     d="M35.46875,150.5C29.955750000000002,150.5,25.49975,154.921,25.49975,160.406L25.49975,199.875C25.49975,205.36,29.95575,209.781,35.46875,209.781L46.90675,209.781L41.93775,234.06300000000002L64.21875,209.781L161.28175,209.781C166.79375,209.781,171.21875,205.36,171.21875,199.875L171.21875,160.406C171.21875,154.921,166.79375,150.5,161.28075,150.5L35.468750000000014,150.5Z"
     stroke-width="0"
     stroke-linejoin="round"
     style="stroke-width: 0px; stroke-linejoin: round; cursor: pointer; display: none;"
     id="path3887" />
  <text
     x="100.5"
     y="176.9601593017578"
     text-anchor="middle"
     font="10px &quot;Arial&quot;"
     stroke="none"
     fill="#000000"
     font-family="Arial"
     font-size="12px"
     style="text-anchor: middle; font-style: normal; font-variant: normal; font-weight: normal; font-size: 12px; line-height: normal; font-family: Arial; cursor: pointer; display: none;"
     id="text3889">
    <tspan
       id="tspan3891">Южный</tspan>
    <tspan
       dy="14.399999999999999"
       x="100"
       id="tspan3893">федеральный округ</tspan>
  </text>
  <path
     fill="#f1f1f3"
     stroke="#000000"
     d="M20.46875,180.5C14.95575,180.5,10.49975,184.921,10.49975,190.406L10.49975,229.875C10.49975,235.36,14.955750000000002,239.781,20.46875,239.781L31.906750000000002,239.781L26.93775,264.063L49.21875,239.78099999999998L146.28175,239.78099999999998C151.79375,239.78099999999998,156.21875,235.35999999999999,156.21875,229.87499999999997L156.21875,190.40599999999998C156.21875,184.92099999999996,151.79375,180.49999999999997,146.28075,180.49999999999997L20.468750000000014,180.49999999999997Z"
     stroke-width="0"
     stroke-linejoin="round"
     style="stroke-width: 0px; stroke-linejoin: round; cursor: pointer; display: none;"
     id="path3895" />
  <text
     x="85.5"
     y="206.9601593017578"
     text-anchor="middle"
     font="10px &quot;Arial&quot;"
     stroke="none"
     fill="#000000"
     font-family="Arial"
     font-size="12px"
     style="text-anchor: middle; font-style: normal; font-variant: normal; font-weight: normal; font-size: 12px; line-height: normal; font-family: Arial; cursor: pointer; display: none;"
     id="text3897">
    <tspan
       id="tspan3899">Республика</tspan>
    <tspan
       dy="14.399999999999999"
       x="85"
       id="tspan3901">Северная Осетия</tspan>
  </text>
  <path
     fill="#f1f1f3"
     stroke="#000000"
     d="M310.46875,100.5C304.95575,100.5,300.49975,104.921,300.49975,110.406L300.49975,149.875C300.49975,155.36,304.95575,159.781,310.46875,159.781L321.90675,159.781L316.93775,184.06300000000002L339.21875,159.781L436.28175,159.781C441.79375,159.781,446.21875,155.36,446.21875,149.875L446.21875,110.406C446.21875,104.921,441.79375,100.5,436.28075,100.5L310.46875,100.5Z"
     stroke-width="0"
     stroke-linejoin="round"
     style="stroke-width: 0px; stroke-linejoin: round; cursor: pointer; display: none;"
     id="path3903" />
  <text
     x="375.5"
     y="126.96015930175781"
     text-anchor="middle"
     font="10px &quot;Arial&quot;"
     stroke="none"
     fill="#000000"
     font-family="Arial"
     font-size="12px"
     style="text-anchor: middle; font-style: normal; font-variant: normal; font-weight: normal; font-size: 12px; line-height: normal; font-family: Arial; cursor: pointer; display: none;"
     id="text3905">
    <tspan
       id="tspan3907">Дальневосточный</tspan>
    <tspan
       dy="14.399999999999999"
       x="375"
       id="tspan3909">федеральный округ</tspan>
  </text>
  <path
     fill="#f1f1f3"
     stroke="#000000"
     d="M260.46875,130.5C254.95575,130.5,250.49975,134.921,250.49975,140.406L250.49975,179.875C250.49975,185.36,254.95575,189.781,260.46875,189.781L271.90675,189.781L266.93775,214.06300000000002L289.21875,189.781L386.28175,189.781C391.79375,189.781,396.21875,185.36,396.21875,179.875L396.21875,140.406C396.21875,134.921,391.79375,130.5,386.28075,130.5L260.46875,130.5Z"
     stroke-width="0"
     stroke-linejoin="round"
     style="stroke-width: 0px; stroke-linejoin: round; cursor: pointer; display: none;"
     id="path3911" />
  <text
     x="325.5"
     y="156.9601593017578"
     text-anchor="middle"
     font="10px &quot;Arial&quot;"
     stroke="none"
     fill="#000000"
     font-family="Arial"
     font-size="12px"
     style="text-anchor: middle; font-style: normal; font-variant: normal; font-weight: normal; font-size: 12px; line-height: normal; font-family: Arial; cursor: pointer; display: none;"
     id="text3913">
    <tspan
       id="tspan3915">Сибирский</tspan>
    <tspan
       dy="14.399999999999999"
       x="325"
       id="tspan3917">федеральный округ</tspan>
  </text>
  <path
     fill="#f1f1f3"
     stroke="#000000"
     d="M160.46875,120.5C154.95575,120.5,150.49975,124.921,150.49975,130.406L150.49975,169.875C150.49975,175.36,154.95575,179.781,160.46875,179.781L171.90675,179.781L166.93775,204.06300000000002L189.21875,179.781L286.28175,179.781C291.79375,179.781,296.21875,175.36,296.21875,169.875L296.21875,130.406C296.21875,124.921,291.79375,120.5,286.28075,120.5L160.46875,120.5Z"
     stroke-width="0"
     stroke-linejoin="round"
     style="stroke-width: 0px; stroke-linejoin: round; cursor: pointer; display: none;"
     id="path3919" />
  <text
     x="225.5"
     y="146.9601593017578"
     text-anchor="middle"
     font="10px &quot;Arial&quot;"
     stroke="none"
     fill="#000000"
     font-family="Arial"
     font-size="12px"
     style="text-anchor: middle; font-style: normal; font-variant: normal; font-weight: normal; font-size: 12px; line-height: normal; font-family: Arial; cursor: pointer; display: none;"
     id="text3921">
    <tspan
       id="tspan3923">Уральский</tspan>
    <tspan
       dy="14.399999999999999"
       x="225"
       id="tspan3925">федеральный округ </tspan>
  </text>
  <path
     fill="#f1f1f3"
     stroke="#000000"
     d="M60.46875,50.5C54.95575,50.5,50.49975,54.921,50.49975,60.406L50.49975,99.875C50.49975,105.36,54.95575,109.781,60.46875,109.781L71.90675,109.781L66.93775000000001,134.06300000000002L89.21875,109.78100000000002L186.28175,109.78100000000002C191.79375,109.78100000000002,196.21875,105.36000000000001,196.21875,99.87500000000001L196.21875,60.40600000000001C196.21875,54.921000000000014,191.79375,50.500000000000014,186.28075,50.500000000000014L60.468750000000014,50.500000000000014Z"
     stroke-width="0"
     stroke-linejoin="round"
     style="stroke-width: 0px; stroke-linejoin: round; cursor: pointer; display: none;"
     id="path3927" />
  <text
     x="125.5"
     y="76.96015548706055"
     text-anchor="middle"
     font="10px &quot;Arial&quot;"
     stroke="none"
     fill="#000000"
     font-family="Arial"
     font-size="12px"
     style="text-anchor: middle; font-style: normal; font-variant: normal; font-weight: normal; font-size: 12px; line-height: normal; font-family: Arial; cursor: pointer; display: none;"
     id="text3929">
    <tspan
       id="tspan3931">Северо-западный</tspan>
    <tspan
       dy="14.399999999999999"
       x="125"
       id="tspan3933">федеральный округ</tspan>
  </text>
  <path
     fill="#f1f1f3"
     stroke="#000000"
     d="M40.46875,100.5C34.95575,100.5,30.49975,104.921,30.49975,110.406L30.49975,149.875C30.49975,155.36,34.95575,159.781,40.46875,159.781L51.90675,159.781L46.93775,184.06300000000002L69.21875,159.781L166.28175,159.781C171.79375,159.781,176.21875,155.36,176.21875,149.875L176.21875,110.406C176.21875,104.921,171.79375,100.5,166.28075,100.5L40.468750000000014,100.5Z"
     stroke-width="0"
     stroke-linejoin="round"
     style="stroke-width: 0px; stroke-linejoin: round; cursor: pointer; display: none;"
     id="path3935" />
  <text
     x="105.5"
     y="126.96015930175781"
     text-anchor="middle"
     font="10px &quot;Arial&quot;"
     stroke="none"
     fill="#000000"
     font-family="Arial"
     font-size="12px"
     style="text-anchor: middle; font-style: normal; font-variant: normal; font-weight: normal; font-size: 12px; line-height: normal; font-family: Arial; cursor: pointer; display: none;"
     id="text3937">
    <tspan
       id="tspan3939">Центральный</tspan>
    <tspan
       dy="14.399999999999999"
       x="105"
       id="tspan3941">федеральный округ</tspan>
  </text>
  <path
     fill="#f1f1f3"
     stroke="#000000"
     d="M70.46875,120.5C64.95575,120.5,60.49975,124.921,60.49975,130.406L60.49975,169.875C60.49975,175.36,64.95575,179.781,70.46875,179.781L81.90675,179.781L76.93775000000001,204.06300000000002L99.21875,179.781L196.28175,179.781C201.79375,179.781,206.21875,175.36,206.21875,169.875L206.21875,130.406C206.21875,124.921,201.79375,120.5,196.28075,120.5L70.46875000000001,120.5Z"
     stroke-width="0"
     stroke-linejoin="round"
     style="stroke-width: 0px; stroke-linejoin: round; cursor: pointer; display: none;"
     id="path3943" />
  <text
     x="135.5"
     y="146.9601593017578"
     text-anchor="middle"
     font="10px &quot;Arial&quot;"
     stroke="none"
     fill="#000000"
     font-family="Arial"
     font-size="12px"
     style="text-anchor: middle; font-style: normal; font-variant: normal; font-weight: normal; font-size: 12px; line-height: normal; font-family: Arial; cursor: pointer; display: none;"
     id="text3945">
    <tspan
       id="tspan3947">Приволжский</tspan>
    <tspan
       dy="14.399999999999999"
       x="135"
       id="tspan3949">федеральный округ</tspan>
  </text>
</svg>
