<?xml version="1.0" encoding="UTF-8" standalone="no"?>
<svg
   xmlns:osb="http://www.openswatchbook.org/uri/2009/osb"
   xmlns:dc="http://purl.org/dc/elements/1.1/"
   xmlns:cc="http://creativecommons.org/ns#"
   xmlns:rdf="http://www.w3.org/1999/02/22-rdf-syntax-ns#"
   xmlns:svg="http://www.w3.org/2000/svg"
   xmlns="http://www.w3.org/2000/svg"
   xmlns:xlink="http://www.w3.org/1999/xlink"
   xmlns:sodipodi="http://sodipodi.sourceforge.net/DTD/sodipodi-0.dtd"
   xmlns:inkscape="http://www.inkscape.org/namespaces/inkscape"
   version="1.1"
   width="500"
   height="300"
   id="svg3825"
   inkscape:version="0.48.2 r9819"
   sodipodi:docname="map.svg">
  <metadata
     id="metadata3953">
    <rdf:RDF>
      <cc:Work
         rdf:about="">
        <dc:format>image/svg+xml</dc:format>
        <dc:type
           rdf:resource="http://purl.org/dc/dcmitype/StillImage" />
        <dc:title></dc:title>
      </cc:Work>
    </rdf:RDF>
  </metadata>
  <sodipodi:namedview
     pagecolor="#ffffff"
     bordercolor="#666666"
     borderopacity="1"
     objecttolerance="10"
     gridtolerance="10"
     guidetolerance="10"
     inkscape:pageopacity="0"
     inkscape:pageshadow="2"
     inkscape:window-width="1043"
     inkscape:window-height="698"
     id="namedview3951"
     showgrid="false"
     inkscape:zoom="1.3755437"
     inkscape:cx="255.42459"
     inkscape:cy="162.01997"
     inkscape:window-x="17"
     inkscape:window-y="0"
     inkscape:window-maximized="0"
     inkscape:current-layer="svg3825" />
  <desc
     id="desc3827">Created with Raphaël</desc>
  <defs
     id="defs3829">
    <linearGradient
       id="linearGradient5306"
       osb:paint="solid">
      <stop
         style="stop-color:#000000;stop-opacity:0;"
         offset="0"
         id="stop5308" />
    </linearGradient>
    <linearGradient
       id="linearGradient3860">
      <stop
         style="stop-color:#0dff00;stop-opacity:1;"
         offset="0"
         id="stop3863" />
      <stop
         id="stop3870"
         offset="0.5"
         style="stop-color:#867f00;stop-opacity:0.49803922;" />
      <stop
         style="stop-color:#ff0000;stop-opacity:0;"
         offset="1"
         id="stop3865" />
    </linearGradient>
    <style
       type="text/css"
       id="style5">
        .hidden {
          visibility: hidden;
        }
        .chanel {
          stroke-width:3;
        }
        .selected {
          stroke-width:5;
        }
     </style>
    <linearGradient
       id="linearGradient7975">
      <stop
         style="stop-color:#f01600;stop-opacity:0.9285714;"
         offset="0"
         id="stop7977" />
      <stop
         style="stop-color:#000000;stop-opacity:0;"
         offset="1"
         id="stop7979" />
    </linearGradient>
    <marker
       inkscape:stockid="Arrow1Send"
       orient="auto"
       refY="0.0"
       refX="0.0"
       id="Arrow1Send"
       style="overflow:visible;">
      <path
         id="path5645"
         d="M 0.0,0.0 L 5.0,-5.0 L -12.5,0.0 L 5.0,5.0 L 0.0,0.0 z "
         style="fill-rule:evenodd;stroke:#000000;stroke-width:1.0pt;marker-start:none;"
         transform="scale(0.2) rotate(180) translate(6,0)" />
    </marker>
    <marker
       inkscape:stockid="Arrow1Mend"
       orient="auto"
       refY="0.0"
       refX="0.0"
       id="Arrow1Mend"
       style="overflow:visible;">
      <path
         id="path5639"
         d="M 0.0,0.0 L 5.0,-5.0 L -12.5,0.0 L 5.0,5.0 L 0.0,0.0 z "
         style="fill-rule:evenodd;stroke:#000000;stroke-width:1.0pt;marker-start:none;"
         transform="scale(0.4) rotate(180) translate(10,0)" />
    </marker>
    <linearGradient
       id="linearGradient5437"
       osb:paint="gradient">
      <stop
         style="stop-color:#006b00;stop-opacity:1;"
         offset="0"
         id="stop5439" />
      <stop
         id="stop6259"
         offset="0.25"
         style="stop-color:#0a6d00;stop-opacity:0.74901961;" />
      <stop
         id="stop6257"
         offset="0.5"
         style="stop-color:#146f00;stop-opacity:0.49803922;" />
      <stop
         style="stop-color:#145500;stop-opacity:0;"
         offset="1"
         id="stop5441" />
    </linearGradient>
    <lineargradient
       id="r10o"
       x1="0"
       y1="1"
       x2="6.123031769111886e-17"
       y2="0">
      <stop
         offset="0%"
         stop-color="#a5a0a7"
         id="stop3832" />
      <stop
         offset="100%"
         stop-color="#98999b"
         id="stop3834" />
    </lineargradient>
    <lineargradient
       id="r10p"
       x1="0"
       y1="1"
       x2="6.123031769111886e-17"
       y2="0">
      <stop
         offset="0%"
         stop-color="#a5a0a7"
         id="stop3837" />
      <stop
         offset="100%"
         stop-color="#98999b"
         id="stop3839" />
    </lineargradient>
    <lineargradient
       id="r10q"
       x1="0"
       y1="1"
       x2="6.123031769111886e-17"
       y2="0">
      <stop
         offset="0%"
         stop-color="#a5a0a7"
         id="stop3842" />
      <stop
         offset="100%"
         stop-color="#98999b"
         id="stop3844" />
    </lineargradient>
    <lineargradient
       id="r10r"
       x1="0"
       y1="1"
       x2="6.123031769111886e-17"
       y2="0">
      <stop
         offset="0%"
         stop-color="#a5a0a7"
         id="stop3847" />
      <stop
         offset="100%"
         stop-color="#98999b"
         id="stop3849" />
    </lineargradient>
    <lineargradient
       id="r10s"
       x1="0"
       y1="1"
       x2="6.123031769111886e-17"
       y2="0">
      <stop
         offset="0%"
         stop-color="#a5a0a7"
         id="stop3852" />
      <stop
         offset="100%"
         stop-color="#98999b"
         id="stop3854" />
    </lineargradient>
    <lineargradient
       id="r10t"
       x1="0"
       y1="1"
       x2="6.123031769111886e-17"
       y2="0">
      <stop
         offset="0%"
         stop-color="#a5a0a7"
         id="stop3857" />
      <stop
         offset="100%"
         stop-color="#98999b"
         id="stop3859" />
    </lineargradient>
    <lineargradient
       id="r10u"
       x1="0"
       y1="1"
       x2="6.123031769111886e-17"
       y2="0">
      <stop
         offset="0%"
         stop-color="#a5a0a7"
         id="stop3862" />
      <stop
         offset="100%"
         stop-color="#98999b"
         id="stop3864" />
    </lineargradient>
    <lineargradient
       id="r10v"
       x1="0"
       y1="1"
       x2="6.123031769111886e-17"
       y2="0">
      <stop
         offset="0%"
         stop-color="#a5a0a7"
         id="stop3867" />
      <stop
         offset="100%"
         stop-color="#98999b"
         id="stop3869" />
    </lineargradient>
    <linearGradient
       inkscape:collect="always"
       xlink:href="#linearGradient7975"
       id="linearGradient7981"
       x1="134"
       y1="195.12193"
       x2="539.83436"
       y2="195.12193"
       gradientUnits="userSpaceOnUse"
       gradientTransform="translate(1,82)" />
    <linearGradient
       inkscape:collect="always"
       xlink:href="#linearGradient7975"
       id="linearGradient3079"
       gradientUnits="userSpaceOnUse"
       x1="134"
       y1="195.12193"
       x2="539.83436"
       y2="195.12193"
       gradientTransform="translate(146,110)" />
    <linearGradient
       inkscape:collect="always"
       xlink:href="#linearGradient7975"
       id="linearGradient3083"
       gradientUnits="userSpaceOnUse"
       gradientTransform="translate(-50,-15)"
       x1="134"
       y1="195.12193"
       x2="539.83436"
       y2="195.12193" />
    <linearGradient
       inkscape:collect="always"
       xlink:href="#linearGradient5306"
       id="linearGradient5314"
       x1="29.5"
       y1="347"
       x2="46.5"
       y2="347"
       gradientUnits="userSpaceOnUse" />
    <linearGradient
       inkscape:collect="always"
       xlink:href="#linearGradient5306"
       id="linearGradient3110"
       gradientUnits="userSpaceOnUse"
       x1="29.5"
       y1="347"
       x2="46.5"
       y2="347" />
    <linearGradient
       inkscape:collect="always"
       xlink:href="#linearGradient5306"
       id="linearGradient3112"
       gradientUnits="userSpaceOnUse"
       x1="29.5"
       y1="347"
       x2="46.5"
       y2="347" />
    <linearGradient
       inkscape:collect="always"
       xlink:href="#linearGradient5306"
       id="linearGradient3114"
       gradientUnits="userSpaceOnUse"
       x1="29.5"
       y1="347"
       x2="46.5"
       y2="347" />
    <linearGradient
       inkscape:collect="always"
       xlink:href="#linearGradient5306"
       id="linearGradient3115"
       gradientUnits="userSpaceOnUse"
       x1="29.5"
       y1="347"
       x2="46.5"
       y2="347" />
    <linearGradient
       inkscape:collect="always"
       xlink:href="#linearGradient5306"
       id="linearGradient3117"
       gradientUnits="userSpaceOnUse"
       x1="29.5"
       y1="347"
       x2="46.5"
       y2="347" />
    <linearGradient
       inkscape:collect="always"
       xlink:href="#linearGradient5306"
       id="linearGradient3103"
       gradientUnits="userSpaceOnUse"
       x1="29.5"
       y1="347"
       x2="46.5"
       y2="347" />
    <linearGradient
       inkscape:collect="always"
       xlink:href="#linearGradient5306"
       id="linearGradient3105"
       gradientUnits="userSpaceOnUse"
       x1="29.5"
       y1="347"
       x2="46.5"
       y2="347" />
    <linearGradient
       inkscape:collect="always"
       xlink:href="#linearGradient5306"
       id="linearGradient3107"
       gradientUnits="userSpaceOnUse"
       x1="29.5"
       y1="347"
       x2="46.5"
       y2="347" />
    <linearGradient
       inkscape:collect="always"
       xlink:href="#linearGradient5306"
       id="linearGradient3109"
       gradientUnits="userSpaceOnUse"
       x1="29.5"
       y1="347"
       x2="46.5"
       y2="347" />
  </defs>
  <path
     d="m 266.54212,119.52682 0.47599,-3.28515 5.80214,-5.4162 9.70268,0 3.04322,-4.97292 0,-9.589993 6.08866,-2.84184 7.99041,-3.729439 5.51682,1.954244 3.23494,0 2.66313,2.485946 3.26693,-2.125791 -0.7945,3.724139 3.23382,-0.355904 4.56598,0.178158 0,2.84184 0.95198,3.19669 -2.09343,-1.24352 -2.18716,-2.042641 -1.99758,1.864711 0.95087,3.37458 0,3.3746 3.23495,1.59836 2.47248,2.30798 0,3.72943 2.75896,1.24349 0,4.1738 3.1391,2.93024 1.52156,4.97188 0,5.1509 -0.95085,4.4391 1.14151,2.487 0.0949,5.41621 3.32972,3.1082 -0.1909,3.90634 -0.76138,6.39335 -3.32858,5.41724 -5.04193,4.70552 -5.32732,0 -5.8969,1.06554 -5.13671,-1.77525 -5.61272,-2.93023 -3.51917,-3.28618 0,-4.79498 -3.61511,-3.37357 -1.71221,-3.72939 -1.33214,-3.55261 -2.47246,-3.90629 -1.33214,-6.57129 -2.66303,-1.06556 0.85608,-3.99584 2.1871,-2.04158 -2.66308,-2.487 -1.23622,3.10817 -1.80816,1.6868 0.76143,3.90741 0.0946,4.52861 -2.09236,1.95314 2.75897,2.57549 -0.76134,3.90731 -2.6631,5.50468 -4.66072,1.33196 -3.70982,3.46304 -1.42797,6.30488 -3.51919,3.28514 2.8537,8.34754 -2.75784,4.52862 3.89932,3.64097 4.18578,3.90633 4.75661,-3.19662 0.95086,-4.43914 -2.4736,-2.30904 0.38126,-3.9074 0,-3.01874 3.23384,-3.19664 3.23384,0 1.14146,7.99166 1.04673,5.2393 3.32975,3.10721 2.09235,4.08532 5.42209,1.50883 1.61745,-1.50883 -1.33213,-3.0198 3.23383,-2.48594 0.1909,-6.21537 5.89811,0.88761 5.5168,-1.95319 4.56593,2.30801 5.13669,-1.50882 3.51924,0 2.18821,2.04161 3.23382,4.61809 -2.66311,2.48594 0,3.90739 2.37774,-2.7534 3.32971,-3.10716 4.56592,-0.88758 3.80456,-5.15089 0,-4.4391 1.52167,-3.01979 4.94602,-2.30799 0,-2.8408 4.7566,-2.66384 0,-4.44017 -0.76138,-4.2622 3.23385,0 1.04671,2.21953 4.2806,3.99585 3.23382,4.6181 0,6.21427 -1.14148,3.19773 -1.71226,1.59731 -2.85371,-2.66392 -3.99519,-0.88652 -6.08756,1.95209 0,4.61809 1.52161,4.26225 0,3.55255 4.37533,1.06556 4.18581,1.77519 4.7566,-2.13111 0,-3.19667 4.94602,-1.06552 4.7566,2.13107 -0.76137,-2.84073 7.41965,1.24247 3.99522,-0.70969 7.229,0.88655 4.18588,0 2.09233,3.55252 1.90286,0 0,-3.19667 6.08755,-1.77518 3.2361,0 1.3321,4.61596 -3.61506,0 -1.14152,3.19669 -2.8537,0.88863 4.37534,3.72945 3.04433,0 5.70742,-2.30797 5.42205,0.97605 5.8981,5.50571 1.99758,-1.86474 3.99517,0 5.04198,-1.50986 1.99762,1.86472 -0.57071,2.48699 -3.04439,1.95315 0,3.01874 3.6151,2.84183 0.28541,-3.28514 1.6175,-1.50987 3.80458,0.88762 0,-2.84078 3.61508,-0.53279 0.76135,-4.26219 -0.57074,-5.15092 3.42447,-1.59832 2.94848,-0.79913 3.5192,3.28615 1.52158,-1.42143 3.90049,4.52858 4.47118,4.1738 3.61506,3.37459 0.88468,1.6857 -1.55126,2.13113 -1.85494,1.73151 -1.14149,1.06556 1.85492,1.64309 0.38011,1.33191 1.42685,0.44437 0,2.75232 0,3.28508 -1.80809,0 -0.85613,1.95318 -1.52159,0.71074 -0.57072,3.28508 3.80456,1.77521 0,2.30906 -3.5192,1.33193 2.94848,2.75233 -4.56596,2.13116 -3.42451,3.1966 -3.61394,0 -1.33212,3.9074 -6.46878,0 -6.08756,1.24351 -6.08753,3.19665 0,3.90738 -4.94719,-0.17818 -3.66188,0.53281 -1.99765,2.13108 -3.56717,1.73153 -3.56709,3.32984 -3.2818,0.39963 0,-2.79708 -2.42561,-0.79919 -2.92452,2.731 -3.92443,3.66341 -1.71224,3.06347 0.71344,3.86262 -4.56593,2.66391 -0.42808,3.19662 -3.8525,2.26428 -2.56836,4.52864 0.71344,3.06346 -1.56954,2.79706 0,2.39751 -4.70864,4.39543 -0.64152,3.13061 -1.78414,1.66545 -0.99882,2.53067 -6.56353,-0.93233 -4.8513,-1.73155 -4.28058,-2.13113 -4.42326,-2.79705 -1.99761,0 -1.14147,2.26429 -1.92569,0.59992 -1.35609,-1.26591 -1.92568,-0.5999 -1.92685,1.79865 -3.42445,-1.19875 -2.99644,1.46516 -2.711,-2.53069 -4.1379,-1.73154 -2.42564,0.79916 -1.99762,-2.26429 0.42808,-2.26428 -0.99881,-1.46516 -2.42567,-0.79916 -1.85487,1.73155 -1.35498,-1.2659 -1.35609,1.2659 -3.85251,-1.99792 -1.78301,3.26376 1.92572,1.79866 0,2.13113 -2.90626,1.07087 -3.08656,0 -1.75218,1.63669 -2.8366,0.31115 -0.91778,-1.94784 -1.58548,-1.47898 -3.00327,2.64683 -2.16878,-2.02457 -3.50441,-1.55678 -3.3377,0.77788 -1.33441,3.58239 -2.16993,2.49233 -1.33442,-1.24565 1.16774,-2.49232 -0.83445,-2.80561 0,-2.64681 -2.00102,-1.86899 0,-2.64686 2.50215,-2.33673 0,-2.33678 3.67101,-0.77786 0,-3.58129 2.33663,-2.18122 -0.35273,-2.699 -1.71223,-0.79918 0.66665,-1.95321 -1.85496,-1.73149 -0.71336,-0.66598 -1.04677,-1.59832 -1.42687,-0.44437 -2.04557,1.64205 -4.18121,3.90417 -2.58662,2.4135 -3.60369,-1.495 -2.00215,1.71342 4.17095,4.05125 -2.6688,1.24454 0,3.27128 -1.2522,1.16787 -4.42212,-3.66023 -2.3355,3.42685 -4.17209,-0.93449 -1.75105,1.63562 -2.58662,-3.50462 -3.83768,-2.02453 -3.17101,-1.40121 -1.33443,-3.42681 -3.75547,-3.50461 -4.92212,-0.85779 -2.50211,-4.98465 -3.8377,1.71232 -4.17212,-1.71232 -4.6721,1.08578 -4.171,1.71234 -4.50658,-4.20572 0,-3.73795 0,-3.27124 -3.58656,-3.34801 -1.83549,1.71341 -4.75546,-3.03893 -2.00216,-1.86902 -3.50435,0.31222 -2.34462,0.39747 0,-3.56107 0.98398,-2.98569 -2.70649,-0.8045 -3.07631,0.57434 -3.93696,-1.72194 -3.19959,-1.14867 -2.58318,-1.14973 -1.59924,-1.49177 -0.49199,1.49284 -2.46104,0 -1.84576,-2.06719 -2.70647,0 -0.67692,-2.58397 -1.53756,-1.43531 -2.09236,-0.97607 -2.52152,0 -2.0307,1.89563 -3.19847,0 -1.60036,1.49393 -2.64599,-0.28877 -2.1528,-2.00962 -4.05916,0 -2.21561,-1.26374 -2.8914,0.17275 -1.66085,-1.55039 -3.32172,0 -1.72366,-1.60791 -1.14264,-2.30798 -2.94843,2.30906 -0.28541,2.21957 -1.71223,1.59829 -0.38014,3.72948 -1.04673,2.1311 -1.14147,1.86472 -2.66312,0 -1.14147,3.0187 -2.56834,-2.93028 -3.23498,0.26757 0,-6.0395 -3.23383,-2.84075 -3.61509,-0.88871 1.14149,-2.6639 0.952,-2.84075 -2.66422,-2.48703 -1.71223,-3.55038 0.57074,-2.48702 3.61509,-3.37356 2.09234,-3.55257 -0.95085,-3.1966 3.04437,-0.70968 4.5659,-2.66389 0,-3.72944 1.90173,-2.13109 4.75659,-0.17817 2.09231,-2.30909 0.19081,-2.66385 3.9952,-1.42042 3.23386,-4.08423 4.37643,0.17682 3.80459,-2.13111 5.13666,1.06557 0.76142,-2.66389 1.71222,-1.59835 3.23381,1.42041 2.66312,2.66387 4.1858,1.2435 1.5216,3.19666 1.52275,3.55258 2.28296,-2.13113 -0.38126,-5.1509 -3.42445,-2.84182 0,-6.03743 3.04433,-0.71071 0.95088,-0.88765 -4.18467,-1.59831 -2.47362,-2.66391 17.41677,0 25.19833,-0.17817 7.99039,-2.66388 0,-4.61704 1.33213,-11.72107 5.32728,0 4.56593,-3.37462 0,-4.61702 3.42449,-1.24353 0,-6.03853 3.04317,-0.17681 6.65945,-4.97292 3.23383,1.4204 7.03957,-12.2528 z m 11.57923,43.92533 -0.69058,0.96644 1.2088,1.45129 1.55358,-1.45129 z m 160.90961,2.25577 -1.89942,0 -2.07181,-2.90041 -1.20769,0.64464 -3.62536,-3.22331 -2.76466,-2.73955 1.03649,-2.90148 2.76238,-0.80557 1.03535,-1.61113 -1.89946,-1.45021 0.17346,-3.86905 -1.20996,-0.32179 -1.20884,-2.90151 -2.58888,-0.1609 -2.07184,-2.73948 0.6895,-3.54621 2.76242,-3.54505 3.28175,0.32175 1.03419,1.12846 1.20884,0.48377 0.51823,-2.09595 3.97125,-1.12736 3.10823,-3.06241 -2.07066,-2.09488 2.76241,-1.61219 3.10714,1.12844 0.86409,-2.41777 0,-2.41775 3.97124,0 1.89944,1.77312 1.98508,-1.85304 0.43142,-1.69208 4.316,-0.80664 -1.46683,-1.36921 -3.71328,-1.20941 0,-1.28825 4.31715,-1.12952 4.48943,-1.12733 2.24418,-2.09488 2.93474,0 0,-1.93399 4.14476,-0.16193 -2.24534,-2.09489 3.62654,-0.16091 1.38118,1.28932 -0.17347,-3.22328 1.72709,-1.61222 -1.89943,-2.09485 1.20996,-1.773118 2.07068,1.933988 2.59115,0 0,-2.417695 3.79773,1.289345 1.89944,-1.933974 1.89946,-2.094924 2.41648,0 4.14361,-1.771991 2.93477,0.96643 4.31596,0 2.84913,-2.65961 3.36627,0.241732 1.55242,2.095939 3.62648,0 1.72708,1.611122 3.10829,-0.806639 4.31596,0 2.84917,-2.658553 3.36622,-1.69207 4.48834,-1.612215 4.14362,0 2.41766,3.546207 0,3.86792 -3.6254,3.062436 -3.28062,2.9004 -4.31593,0.32288 -5.18012,2.25578 -4.66181,-1.61113 -2.2442,2.0949 -5.35241,-0.16092 -6.90599,0 -2.59001,2.57862 -5.35133,0 -3.97119,2.0949 1.20879,2.57863 -2.76352,0.96647 -3.27951,-0.32182 -2.93477,0 -0.34581,1.77308 -3.10717,-0.8066 0,2.90151 -3.10938,2.09487 -2.59005,1.77305 0,-2.73953 -2.07181,1.77312 0.51825,3.22328 -2.07066,0 -1.46798,-1.3703 0,1.5312 0,2.41775 -1.51017,-1.41081 -1.94168,1.8125 -1.6414,1.53226 -2.24531,0 -1.72708,2.0949 -2.24416,3.54512 -3.62539,0 -2.93592,2.25685 0,3.06238 -2.93473,1.12844 -1.03532,3.22328 -2.41653,2.25578 0,4.02992 -1.20998,2.90046 1.55355,4.18977 -1.3812,4.19082 1.89945,2.74057 0.86294,2.90046 -1.03533,0.96753 -2.93362,1.28929 0,-2.09595 -2.76242,-1.45125 z M 549.01212,7.2888134 l -1.42687,0.3995892 1.14147,1.4651178 0,1.3319666 1.99765,0 0,-2.5307046 z m -0.42804,11.3214976 -0.99883,1.465144 -3.70983,0.665972 -2.42565,1.198735 1.85493,0.79915 -0.85616,1.864757 1.56957,0.399564 3.13909,0 2.49756,-2.331438 1.85494,-1.731501 -0.64269,-2.596743 -2.28293,0.266409 z m -11.843,-2.397498 -0.78415,0.732056 1.49759,1.399082 2.71109,-0.932377 0,-2.131116 -1.56956,0 z m -2.06832,4.195087 -2.06954,-2.197176 -1.56952,1.465144 -1.14151,2.131118 0,2.663878 2.42568,0.399591 0.57076,1.59832 2.99639,-0.665945 1.92684,-1.798694 1.42685,-1.331941 0.78417,-2.197151 -2.14024,0 -3.20988,-0.06704 z m -8.49038,9.257524 -0.92692,0.865236 0,1.665468 1.92571,0 0.71345,-2.131117 z m -3.99516,-6.792882 -0.99884,-0.93238 -3.13912,0 0,1.997936 -1.71223,1.598299 0.9988,0.932378 3.42449,-0.665945 1.28418,1.198714 2.99637,-0.665947 0.85615,-1.864733 2.14026,0.665972 -1.14145,-2.397524 -1.92571,-1.798618 z m 15.83807,-22.24343309 -0.85608,1.59832619 1.49875,1.3980018 1.42685,-1.3319665 z m -3.13909,3.72941609 -2.28298,0 0,2.3974972 2.42565,2.2643194 0,1.8647064 2.14034,-0.9323523 -1.28419,-2.5307014 z m -14.26856,6.92611 -1.99765,0 -0.42808,0.399591 1.6415,1.531181 z m 1.71222,3.063445 -1.35494,1.264824 1.35494,1.399082 1.56952,-0.133145 -1.56952,-2.530728 z m 1.2842,-5.8605032 0,1.7315022 1.99754,0 -0.42806,-1.9979115 -1.56948,0.2664315 z m 2.78296,4.3282642 0,1.532239 1.64026,0 -1.28418,-1.198735 z m 1.64026,3.530151 0.71343,0.665994 1.2842,-1.198759 z m 1.99763,-7.0592685 0,1.8647075 1.71222,0.133144 0,-1.9978335 -1.71222,0 z m -2.56836,-3.7294383 0.99879,1.7315282 0.92804,-0.8662912 -0.92804,-0.865237 z m -18.40651,11.1882918 -1.06955,0.998466 1.85488,1.731505 2.06839,0.06704 0,-3.1967 -1.42683,-1.731501 -1.42689,2.131115 z m 4.70865,-2.13109 0.71342,1.864735 1.42686,0 0,-1.598326 -2.14028,-0.266432 z m -7.99041,-10.6555501 -1.42686,1.33194 0,1.4651453 -1.64031,1.5312059 -2.92562,-1.930793 -2.42567,1.1987634 0,1.5983219 -2.99642,-1.9979111 -2.28297,0.7991731 0.71344,3.1966486 2.14029,-0.665944 0,2.13109 2.28301,0.532768 2.06944,-1.931851 2.92451,-1.131594 2.42568,0.665945 3.56712,0 2.56837,-2.3974967 -2.42565,-2.2642708 1.64145,-1.5322877 -2.78294,-1.5311816 z m -8.13307,-3.32982799 -3.1391,0 -1.8549,-1.73155041 -1.28421,2.3974982 1.64147,1.5312049 0.64148,1.7986707 3.70987,-1.1987602 1.28414,1.1987602 2.42566,-0.9323784 0.99882,0.9323784 0,-1.9979101 -1.64029,-1.5322877 -1.49881,0 z m 2.78294,14.05144109 -1.21341,0 0.42804,1.665442 2.56834,0.133144 -1.78297,-1.798668 z m 0.49883,3.530174 -1.2842,1.198759 0.99878,0.932379 2.42571,0.53277 -1.56958,-1.465149 z m 10.41604,-17.182028 0,1.7315039 1.42687,0 1.42685,-1.3319411 z M 58.647748,171.40222 l 2.961033,0.62019 2.537497,-0.67662 0.966857,-1.74863 2.295519,0.33778 2.145997,2.00328 0.09029,2.73634 1.752193,0.50722 0.362986,2.14388 2.719018,0.45073 0.603844,-2.03093 -1.47936,-1.38098 1.268171,-1.18491 0.816198,0.76188 2.598002,2.02884 0,3.0475 -0.362985,2.65106 1.510186,2.31226 1.511308,0.95793 0.543361,3.44174 -1.328697,2.59354 -6.344384,2.98998 -9.607886,-10.66089 -5.559047,-11.90119 z"
     style="fill:#cccccc;fill-opacity:1;stroke:#ffffff;stroke-width:2.2884829px;stroke-linejoin:round"
     id="path3885"
     inkscape:connector-curvature="0"
     sodipodi:nodetypes="ccccccccccccccccccccccccccccccccccccccccccccccccccccccccccccccccccccccccccccccccccccccccccccccccccccccccccccccccccccccccccccccccccccccccccccccccccccccccccccccccccccccccccccccccccccccccccccccccccccccccccccccccccccccccccccccccccccccccccccccccccccccccccccccccccccccccccccccccccccccccccccccccccccccccccccccccccccccccccccccccccccccccccccccccccccccccccccccccccccccccccccccccccccccccccccccccccccccccccccccccccccccccccccccccccccccccccccccccccccccccccccccccccccccccccccccccccccccccccccccccccccccccccccccccccccccccccccccccccccccccccccccccccccccccccccccccccccccccccccccccccccccccccccccccccccccccccccccccccccccccccccccccccccccccccccccccccccccccccccccccccccccccccccccccccccccccccccccccccccccccccccccccccccccccccccccccccccccccccccccccccc" />
  <path
     fill="#f1f1f3"
     stroke="#000000"
     d="M35.46875,150.5C29.955750000000002,150.5,25.49975,154.921,25.49975,160.406L25.49975,199.875C25.49975,205.36,29.95575,209.781,35.46875,209.781L46.90675,209.781L41.93775,234.06300000000002L64.21875,209.781L161.28175,209.781C166.79375,209.781,171.21875,205.36,171.21875,199.875L171.21875,160.406C171.21875,154.921,166.79375,150.5,161.28075,150.5L35.468750000000014,150.5Z"
     stroke-width="0"
     stroke-linejoin="round"
     style="stroke-width: 0px; stroke-linejoin: round; cursor: pointer; display: none;"
     id="path3887" />
  <text
     x="100.5"
     y="176.9601593017578"
     text-anchor="middle"
     font="10px &quot;Arial&quot;"
     stroke="none"
     fill="#000000"
     font-family="Arial"
     font-size="12px"
     style="text-anchor: middle; font-style: normal; font-variant: normal; font-weight: normal; font-size: 12px; line-height: normal; font-family: Arial; cursor: pointer; display: none;"
     id="text3889">
    <tspan
       id="tspan3891">Южный</tspan>
    <tspan
       dy="14.399999999999999"
       x="100"
       id="tspan3893">федеральный округ</tspan>
  </text>
  <path
     fill="#f1f1f3"
     stroke="#000000"
     d="M20.46875,180.5C14.95575,180.5,10.49975,184.921,10.49975,190.406L10.49975,229.875C10.49975,235.36,14.955750000000002,239.781,20.46875,239.781L31.906750000000002,239.781L26.93775,264.063L49.21875,239.78099999999998L146.28175,239.78099999999998C151.79375,239.78099999999998,156.21875,235.35999999999999,156.21875,229.87499999999997L156.21875,190.40599999999998C156.21875,184.92099999999996,151.79375,180.49999999999997,146.28075,180.49999999999997L20.468750000000014,180.49999999999997Z"
     stroke-width="0"
     stroke-linejoin="round"
     style="stroke-width: 0px; stroke-linejoin: round; cursor: pointer; display: none;"
     id="path3895" />
  <text
     x="85.5"
     y="206.9601593017578"
     text-anchor="middle"
     font="10px &quot;Arial&quot;"
     stroke="none"
     fill="#000000"
     font-family="Arial"
     font-size="12px"
     style="text-anchor: middle; font-style: normal; font-variant: normal; font-weight: normal; font-size: 12px; line-height: normal; font-family: Arial; cursor: pointer; display: none;"
     id="text3897">
    <tspan
       id="tspan3899">Республика</tspan>
    <tspan
       dy="14.399999999999999"
       x="85"
       id="tspan3901">Северная Осетия</tspan>
  </text>
  <path
     fill="#f1f1f3"
     stroke="#000000"
     d="M310.46875,100.5C304.95575,100.5,300.49975,104.921,300.49975,110.406L300.49975,149.875C300.49975,155.36,304.95575,159.781,310.46875,159.781L321.90675,159.781L316.93775,184.06300000000002L339.21875,159.781L436.28175,159.781C441.79375,159.781,446.21875,155.36,446.21875,149.875L446.21875,110.406C446.21875,104.921,441.79375,100.5,436.28075,100.5L310.46875,100.5Z"
     stroke-width="0"
     stroke-linejoin="round"
     style="stroke-width: 0px; stroke-linejoin: round; cursor: pointer; display: none;"
     id="path3903" />
  <text
     x="375.5"
     y="126.96015930175781"
     text-anchor="middle"
     font="10px &quot;Arial&quot;"
     stroke="none"
     fill="#000000"
     font-family="Arial"
     font-size="12px"
     style="text-anchor: middle; font-style: normal; font-variant: normal; font-weight: normal; font-size: 12px; line-height: normal; font-family: Arial; cursor: pointer; display: none;"
     id="text3905">
    <tspan
       id="tspan3907">Дальневосточный</tspan>
    <tspan
       dy="14.399999999999999"
       x="375"
       id="tspan3909">федеральный округ</tspan>
  </text>
  <path
     fill="#f1f1f3"
     stroke="#000000"
     d="M260.46875,130.5C254.95575,130.5,250.49975,134.921,250.49975,140.406L250.49975,179.875C250.49975,185.36,254.95575,189.781,260.46875,189.781L271.90675,189.781L266.93775,214.06300000000002L289.21875,189.781L386.28175,189.781C391.79375,189.781,396.21875,185.36,396.21875,179.875L396.21875,140.406C396.21875,134.921,391.79375,130.5,386.28075,130.5L260.46875,130.5Z"
     stroke-width="0"
     stroke-linejoin="round"
     style="stroke-width: 0px; stroke-linejoin: round; cursor: pointer; display: none;"
     id="path3911" />
  <text
     x="325.5"
     y="156.9601593017578"
     text-anchor="middle"
     font="10px &quot;Arial&quot;"
     stroke="none"
     fill="#000000"
     font-family="Arial"
     font-size="12px"
     style="text-anchor: middle; font-style: normal; font-variant: normal; font-weight: normal; font-size: 12px; line-height: normal; font-family: Arial; cursor: pointer; display: none;"
     id="text3913">
    <tspan
       id="tspan3915">Сибирский</tspan>
    <tspan
       dy="14.399999999999999"
       x="325"
       id="tspan3917">федеральный округ</tspan>
  </text>
  <path
     fill="#f1f1f3"
     stroke="#000000"
     d="M160.46875,120.5C154.95575,120.5,150.49975,124.921,150.49975,130.406L150.49975,169.875C150.49975,175.36,154.95575,179.781,160.46875,179.781L171.90675,179.781L166.93775,204.06300000000002L189.21875,179.781L286.28175,179.781C291.79375,179.781,296.21875,175.36,296.21875,169.875L296.21875,130.406C296.21875,124.921,291.79375,120.5,286.28075,120.5L160.46875,120.5Z"
     stroke-width="0"
     stroke-linejoin="round"
     style="stroke-width: 0px; stroke-linejoin: round; cursor: pointer; display: none;"
     id="path3919" />
  <text
     x="225.5"
     y="146.9601593017578"
     text-anchor="middle"
     font="10px &quot;Arial&quot;"
     stroke="none"
     fill="#000000"
     font-family="Arial"
     font-size="12px"
     style="text-anchor: middle; font-style: normal; font-variant: normal; font-weight: normal; font-size: 12px; line-height: normal; font-family: Arial; cursor: pointer; display: none;"
     id="text3921">
    <tspan
       id="tspan3923">Уральский</tspan>
    <tspan
       dy="14.399999999999999"
       x="225"
       id="tspan3925">федеральный округ </tspan>
  </text>
  <path
     fill="#f1f1f3"
     stroke="#000000"
     d="M60.46875,50.5C54.95575,50.5,50.49975,54.921,50.49975,60.406L50.49975,99.875C50.49975,105.36,54.95575,109.781,60.46875,109.781L71.90675,109.781L66.93775000000001,134.06300000000002L89.21875,109.78100000000002L186.28175,109.78100000000002C191.79375,109.78100000000002,196.21875,105.36000000000001,196.21875,99.87500000000001L196.21875,60.40600000000001C196.21875,54.921000000000014,191.79375,50.500000000000014,186.28075,50.500000000000014L60.468750000000014,50.500000000000014Z"
     stroke-width="0"
     stroke-linejoin="round"
     style="stroke-width: 0px; stroke-linejoin: round; cursor: pointer; display: none;"
     id="path3927" />
  <text
     x="125.5"
     y="76.96015548706055"
     text-anchor="middle"
     font="10px &quot;Arial&quot;"
     stroke="none"
     fill="#000000"
     font-family="Arial"
     font-size="12px"
     style="text-anchor: middle; font-style: normal; font-variant: normal; font-weight: normal; font-size: 12px; line-height: normal; font-family: Arial; cursor: pointer; display: none;"
     id="text3929">
    <tspan
       id="tspan3931">Северо-западный</tspan>
    <tspan
       dy="14.399999999999999"
       x="125"
       id="tspan3933">федеральный округ</tspan>
  </text>
  <path
     fill="#f1f1f3"
     stroke="#000000"
     d="M40.46875,100.5C34.95575,100.5,30.49975,104.921,30.49975,110.406L30.49975,149.875C30.49975,155.36,34.95575,159.781,40.46875,159.781L51.90675,159.781L46.93775,184.06300000000002L69.21875,159.781L166.28175,159.781C171.79375,159.781,176.21875,155.36,176.21875,149.875L176.21875,110.406C176.21875,104.921,171.79375,100.5,166.28075,100.5L40.468750000000014,100.5Z"
     stroke-width="0"
     stroke-linejoin="round"
     style="stroke-width: 0px; stroke-linejoin: round; cursor: pointer; display: none;"
     id="path3935" />
  <text
     x="105.5"
     y="126.96015930175781"
     text-anchor="middle"
     font="10px &quot;Arial&quot;"
     stroke="none"
     fill="#000000"
     font-family="Arial"
     font-size="12px"
     style="text-anchor: middle; font-style: normal; font-variant: normal; font-weight: normal; font-size: 12px; line-height: normal; font-family: Arial; cursor: pointer; display: none;"
     id="text3937">
    <tspan
       id="tspan3939">Центральный</tspan>
    <tspan
       dy="14.399999999999999"
       x="105"
       id="tspan3941">федеральный округ</tspan>
  </text>
  <path
     fill="#f1f1f3"
     stroke="#000000"
     d="M70.46875,120.5C64.95575,120.5,60.49975,124.921,60.49975,130.406L60.49975,169.875C60.49975,175.36,64.95575,179.781,70.46875,179.781L81.90675,179.781L76.93775000000001,204.06300000000002L99.21875,179.781L196.28175,179.781C201.79375,179.781,206.21875,175.36,206.21875,169.875L206.21875,130.406C206.21875,124.921,201.79375,120.5,196.28075,120.5L70.46875000000001,120.5Z"
     stroke-width="0"
     stroke-linejoin="round"
     style="stroke-width: 0px; stroke-linejoin: round; cursor: pointer; display: none;"
     id="path3943" />
  <text
     x="135.5"
     y="146.9601593017578"
     text-anchor="middle"
     font="10px &quot;Arial&quot;"
     stroke="none"
     fill="#000000"
     font-family="Arial"
     font-size="12px"
     style="text-anchor: middle; font-style: normal; font-variant: normal; font-weight: normal; font-size: 12px; line-height: normal; font-family: Arial; cursor: pointer; display: none;"
     id="text3945">
    <tspan
       id="tspan3947">Приволжский</tspan>
    <tspan
       dy="14.399999999999999"
       x="135"
       id="tspan3949">федеральный округ</tspan>
  </text>
</svg>
