<?xml version="1.0" encoding="UTF-8" standalone="no"?>
<svg
   xmlns:osb="http://www.openswatchbook.org/uri/2009/osb"
   xmlns:dc="http://purl.org/dc/elements/1.1/"
   xmlns:cc="http://creativecommons.org/ns#"
   xmlns:rdf="http://www.w3.org/1999/02/22-rdf-syntax-ns#"
   xmlns:svg="http://www.w3.org/2000/svg"
   xmlns="http://www.w3.org/2000/svg"
   xmlns:xlink="http://www.w3.org/1999/xlink"
   xmlns:sodipodi="http://sodipodi.sourceforge.net/DTD/sodipodi-0.dtd"
   xmlns:inkscape="http://www.inkscape.org/namespaces/inkscape"
   version="1.1"
   width="500"
   height="300"
   id="svg3825"
   inkscape:version="0.48.2 r9819"
   sodipodi:docname="SKFO.svg">
  <metadata
     id="metadata3953">
    <rdf:RDF>
      <cc:Work
         rdf:about="">
        <dc:format>image/svg+xml</dc:format>
        <dc:type
           rdf:resource="http://purl.org/dc/dcmitype/StillImage" />
        <dc:title></dc:title>
      </cc:Work>
    </rdf:RDF>
  </metadata>
  <sodipodi:namedview
     pagecolor="#ffffff"
     bordercolor="#666666"
     borderopacity="1"
     objecttolerance="10"
     gridtolerance="10"
     guidetolerance="10"
     inkscape:pageopacity="0"
     inkscape:pageshadow="2"
     inkscape:window-width="1043"
     inkscape:window-height="698"
     id="namedview3951"
     showgrid="false"
     inkscape:zoom="1.4142136"
     inkscape:cx="224.12507"
     inkscape:cy="146.51661"
     inkscape:window-x="17"
     inkscape:window-y="0"
     inkscape:window-maximized="0"
     inkscape:current-layer="svg3825" />
  <desc
     id="desc3827">Created with Raphaël</desc>
  <defs
     id="defs3829">
    <linearGradient
       id="linearGradient5306"
       osb:paint="solid">
      <stop
         style="stop-color:#000000;stop-opacity:0;"
         offset="0"
         id="stop5308" />
    </linearGradient>
    <linearGradient
       id="linearGradient3860">
      <stop
         style="stop-color:#0dff00;stop-opacity:1;"
         offset="0"
         id="stop3863" />
      <stop
         id="stop3870"
         offset="0.5"
         style="stop-color:#867f00;stop-opacity:0.49803922;" />
      <stop
         style="stop-color:#ff0000;stop-opacity:0;"
         offset="1"
         id="stop3865" />
    </linearGradient>
    <style
       type="text/css"
       id="style5">
        .hidden {
          visibility: hidden;
        }
        .chanel {
          stroke-width:3;
        }
        .selected {
          stroke-width:5;
        }
     </style>
    <linearGradient
       id="linearGradient7975">
      <stop
         style="stop-color:#f01600;stop-opacity:0.9285714;"
         offset="0"
         id="stop7977" />
      <stop
         style="stop-color:#000000;stop-opacity:0;"
         offset="1"
         id="stop7979" />
    </linearGradient>
    <marker
       inkscape:stockid="Arrow1Send"
       orient="auto"
       refY="0.0"
       refX="0.0"
       id="Arrow1Send"
       style="overflow:visible;">
      <path
         id="path5645"
         d="M 0.0,0.0 L 5.0,-5.0 L -12.5,0.0 L 5.0,5.0 L 0.0,0.0 z "
         style="fill-rule:evenodd;stroke:#000000;stroke-width:1.0pt;marker-start:none;"
         transform="scale(0.2) rotate(180) translate(6,0)" />
    </marker>
    <marker
       inkscape:stockid="Arrow1Mend"
       orient="auto"
       refY="0.0"
       refX="0.0"
       id="Arrow1Mend"
       style="overflow:visible;">
      <path
         id="path5639"
         d="M 0.0,0.0 L 5.0,-5.0 L -12.5,0.0 L 5.0,5.0 L 0.0,0.0 z "
         style="fill-rule:evenodd;stroke:#000000;stroke-width:1.0pt;marker-start:none;"
         transform="scale(0.4) rotate(180) translate(10,0)" />
    </marker>
    <linearGradient
       id="linearGradient5437"
       osb:paint="gradient">
      <stop
         style="stop-color:#006b00;stop-opacity:1;"
         offset="0"
         id="stop5439" />
      <stop
         id="stop6259"
         offset="0.25"
         style="stop-color:#0a6d00;stop-opacity:0.74901961;" />
      <stop
         id="stop6257"
         offset="0.5"
         style="stop-color:#146f00;stop-opacity:0.49803922;" />
      <stop
         style="stop-color:#145500;stop-opacity:0;"
         offset="1"
         id="stop5441" />
    </linearGradient>
    <lineargradient
       id="r10o"
       x1="0"
       y1="1"
       x2="6.123031769111886e-17"
       y2="0">
      <stop
         offset="0%"
         stop-color="#a5a0a7"
         id="stop3832" />
      <stop
         offset="100%"
         stop-color="#98999b"
         id="stop3834" />
    </lineargradient>
    <lineargradient
       id="r10p"
       x1="0"
       y1="1"
       x2="6.123031769111886e-17"
       y2="0">
      <stop
         offset="0%"
         stop-color="#a5a0a7"
         id="stop3837" />
      <stop
         offset="100%"
         stop-color="#98999b"
         id="stop3839" />
    </lineargradient>
    <lineargradient
       id="r10q"
       x1="0"
       y1="1"
       x2="6.123031769111886e-17"
       y2="0">
      <stop
         offset="0%"
         stop-color="#a5a0a7"
         id="stop3842" />
      <stop
         offset="100%"
         stop-color="#98999b"
         id="stop3844" />
    </lineargradient>
    <lineargradient
       id="r10r"
       x1="0"
       y1="1"
       x2="6.123031769111886e-17"
       y2="0">
      <stop
         offset="0%"
         stop-color="#a5a0a7"
         id="stop3847" />
      <stop
         offset="100%"
         stop-color="#98999b"
         id="stop3849" />
    </lineargradient>
    <lineargradient
       id="r10s"
       x1="0"
       y1="1"
       x2="6.123031769111886e-17"
       y2="0">
      <stop
         offset="0%"
         stop-color="#a5a0a7"
         id="stop3852" />
      <stop
         offset="100%"
         stop-color="#98999b"
         id="stop3854" />
    </lineargradient>
    <lineargradient
       id="r10t"
       x1="0"
       y1="1"
       x2="6.123031769111886e-17"
       y2="0">
      <stop
         offset="0%"
         stop-color="#a5a0a7"
         id="stop3857" />
      <stop
         offset="100%"
         stop-color="#98999b"
         id="stop3859" />
    </lineargradient>
    <lineargradient
       id="r10u"
       x1="0"
       y1="1"
       x2="6.123031769111886e-17"
       y2="0">
      <stop
         offset="0%"
         stop-color="#a5a0a7"
         id="stop3862" />
      <stop
         offset="100%"
         stop-color="#98999b"
         id="stop3864" />
    </lineargradient>
    <lineargradient
       id="r10v"
       x1="0"
       y1="1"
       x2="6.123031769111886e-17"
       y2="0">
      <stop
         offset="0%"
         stop-color="#a5a0a7"
         id="stop3867" />
      <stop
         offset="100%"
         stop-color="#98999b"
         id="stop3869" />
    </lineargradient>
    <linearGradient
       inkscape:collect="always"
       xlink:href="#linearGradient7975"
       id="linearGradient7981"
       x1="134"
       y1="195.12193"
       x2="539.83436"
       y2="195.12193"
       gradientUnits="userSpaceOnUse"
       gradientTransform="translate(1,82)" />
    <linearGradient
       inkscape:collect="always"
       xlink:href="#linearGradient7975"
       id="linearGradient3079"
       gradientUnits="userSpaceOnUse"
       x1="134"
       y1="195.12193"
       x2="539.83436"
       y2="195.12193"
       gradientTransform="translate(146,110)" />
    <linearGradient
       inkscape:collect="always"
       xlink:href="#linearGradient7975"
       id="linearGradient3083"
       gradientUnits="userSpaceOnUse"
       gradientTransform="translate(-50,-15)"
       x1="134"
       y1="195.12193"
       x2="539.83436"
       y2="195.12193" />
    <linearGradient
       inkscape:collect="always"
       xlink:href="#linearGradient5306"
       id="linearGradient5314"
       x1="29.5"
       y1="347"
       x2="46.5"
       y2="347"
       gradientUnits="userSpaceOnUse" />
    <linearGradient
       inkscape:collect="always"
       xlink:href="#linearGradient5306"
       id="linearGradient3110"
       gradientUnits="userSpaceOnUse"
       x1="29.5"
       y1="347"
       x2="46.5"
       y2="347" />
    <linearGradient
       inkscape:collect="always"
       xlink:href="#linearGradient5306"
       id="linearGradient3112"
       gradientUnits="userSpaceOnUse"
       x1="29.5"
       y1="347"
       x2="46.5"
       y2="347" />
    <linearGradient
       inkscape:collect="always"
       xlink:href="#linearGradient5306"
       id="linearGradient3114"
       gradientUnits="userSpaceOnUse"
       x1="29.5"
       y1="347"
       x2="46.5"
       y2="347" />
    <linearGradient
       inkscape:collect="always"
       xlink:href="#linearGradient5306"
       id="linearGradient3115"
       gradientUnits="userSpaceOnUse"
       x1="29.5"
       y1="347"
       x2="46.5"
       y2="347" />
    <linearGradient
       inkscape:collect="always"
       xlink:href="#linearGradient5306"
       id="linearGradient3117"
       gradientUnits="userSpaceOnUse"
       x1="29.5"
       y1="347"
       x2="46.5"
       y2="347" />
    <linearGradient
       inkscape:collect="always"
       xlink:href="#linearGradient5306"
       id="linearGradient3103"
       gradientUnits="userSpaceOnUse"
       x1="29.5"
       y1="347"
       x2="46.5"
       y2="347" />
    <linearGradient
       inkscape:collect="always"
       xlink:href="#linearGradient5306"
       id="linearGradient3105"
       gradientUnits="userSpaceOnUse"
       x1="29.5"
       y1="347"
       x2="46.5"
       y2="347" />
    <linearGradient
       inkscape:collect="always"
       xlink:href="#linearGradient5306"
       id="linearGradient3107"
       gradientUnits="userSpaceOnUse"
       x1="29.5"
       y1="347"
       x2="46.5"
       y2="347" />
  </defs>
  <path
     d="m 488.91249,168.18334 1.20918,-8.67211 -4.49493,-6.27365 -10.02726,-1.84506 -6.2239,-5.07415 -12.44776,-4.8897 0,-11.2555 -7.95262,-6.18125 -2.42042,-7.47285 -10.02733,-5.35104 0,-5.90436 -7.08833,-4.98194 -9.50867,-5.074162 -6.91537,-6.91932 6.56973,-6.64258 -6.05108,-8.85679 -8.81709,-4.61287 -2.76623,-6.1812 -8.64407,-5.44333 -1.9017,-7.10376 -10.37318,-2.30651 -16.42404,1.56844 -7.43402,-3.967 -4.14941,-6.45818 -7.60682,1.47618 -9.33584,0 -4.14932,-6.458034 -10.37303,-2.767786 -6.5696,-3.782454 -10.20022,0 -8.1255,4.336079 -12.79352,0.922562 -4.84072,-4.059384 -7.2612,-1.291551 -6.91551,4.243736 0,5.90456 -7.60684,5.904462 6.91543,3.13682 5.53233,5.90446 -7.60699,6.45804 8.99003,4.79741 -15.21383,6.2735 -9.68148,1.47619 3.45758,7.01152 -4.84077,5.35103 -13.83077,9.22578 -17.9799,0 -7.95266,-6.27359 -5.18665,-5.99677 -9.16288,0 -9.16304,4.88966 -13.13917,1.10711 -11.23749,5.9045 4.66786,9.871612 13.83087,11.34771 6.39673,11.80905 20.40032,7.38046 13.83084,3.41361 8.29844,11.34774 15.5596,6.82699 -3.63055,9.87163 12.96649,6.36576 3.63052,15.77607 12.96624,6.91932 20.22759,1.47614 11.58318,6.08899 3.11206,5.16651 15.7324,1.0148 4.66804,8.85675 13.83066,7.84185 -5.5322,8.39549 -8.29846,7.3807 12.79339,8.85665 7.43403,10.33294 0,6.36569 14.6953,5.44323 1.9017,11.80902 10.20022,16.23736 2.76613,9.31796 20.22763,2.49094 21.26465,-3.96703 14.69532,3.50576 22.12918,-5.44313 -1.90178,-15.7762 3.80348,-12.73137 -5.53233,-16.7909 0,-13.74646 20.22765,-17.71353 9.16287,-4.42833 0,-3.41356 10.71883,-5.71996 4.14916,-8.5799 4.49498,-9.31809 -5.53223,-9.41031 -9.68158,-5.16651 0,-8.11862 9.50862,-4.98199 z"
     style="fill:#cccccc;fill-opacity:1;stroke:#ffffff;stroke-width:8.38599014px;stroke-linejoin:round"
     id="path3871"
     inkscape:connector-curvature="0" />
  <path
     fill="#f1f1f3"
     stroke="#000000"
     d="M35.46875,150.5C29.955750000000002,150.5,25.49975,154.921,25.49975,160.406L25.49975,199.875C25.49975,205.36,29.95575,209.781,35.46875,209.781L46.90675,209.781L41.93775,234.06300000000002L64.21875,209.781L161.28175,209.781C166.79375,209.781,171.21875,205.36,171.21875,199.875L171.21875,160.406C171.21875,154.921,166.79375,150.5,161.28075,150.5L35.468750000000014,150.5Z"
     stroke-width="0"
     stroke-linejoin="round"
     style="stroke-width: 0px; stroke-linejoin: round; cursor: pointer; display: none;"
     id="path3887" />
  <text
     x="100.5"
     y="176.9601593017578"
     text-anchor="middle"
     font="10px &quot;Arial&quot;"
     stroke="none"
     fill="#000000"
     font-family="Arial"
     font-size="12px"
     style="text-anchor: middle; font-style: normal; font-variant: normal; font-weight: normal; font-size: 12px; line-height: normal; font-family: Arial; cursor: pointer; display: none;"
     id="text3889">
    <tspan
       id="tspan3891">Южный</tspan>
    <tspan
       dy="14.399999999999999"
       x="100"
       id="tspan3893">федеральный округ</tspan>
  </text>
  <path
     fill="#f1f1f3"
     stroke="#000000"
     d="M20.46875,180.5C14.95575,180.5,10.49975,184.921,10.49975,190.406L10.49975,229.875C10.49975,235.36,14.955750000000002,239.781,20.46875,239.781L31.906750000000002,239.781L26.93775,264.063L49.21875,239.78099999999998L146.28175,239.78099999999998C151.79375,239.78099999999998,156.21875,235.35999999999999,156.21875,229.87499999999997L156.21875,190.40599999999998C156.21875,184.92099999999996,151.79375,180.49999999999997,146.28075,180.49999999999997L20.468750000000014,180.49999999999997Z"
     stroke-width="0"
     stroke-linejoin="round"
     style="stroke-width: 0px; stroke-linejoin: round; cursor: pointer; display: none;"
     id="path3895" />
  <text
     x="85.5"
     y="206.9601593017578"
     text-anchor="middle"
     font="10px &quot;Arial&quot;"
     stroke="none"
     fill="#000000"
     font-family="Arial"
     font-size="12px"
     style="text-anchor: middle; font-style: normal; font-variant: normal; font-weight: normal; font-size: 12px; line-height: normal; font-family: Arial; cursor: pointer; display: none;"
     id="text3897">
    <tspan
       id="tspan3899">Республика</tspan>
    <tspan
       dy="14.399999999999999"
       x="85"
       id="tspan3901">Северная Осетия</tspan>
  </text>
  <path
     fill="#f1f1f3"
     stroke="#000000"
     d="M310.46875,100.5C304.95575,100.5,300.49975,104.921,300.49975,110.406L300.49975,149.875C300.49975,155.36,304.95575,159.781,310.46875,159.781L321.90675,159.781L316.93775,184.06300000000002L339.21875,159.781L436.28175,159.781C441.79375,159.781,446.21875,155.36,446.21875,149.875L446.21875,110.406C446.21875,104.921,441.79375,100.5,436.28075,100.5L310.46875,100.5Z"
     stroke-width="0"
     stroke-linejoin="round"
     style="stroke-width: 0px; stroke-linejoin: round; cursor: pointer; display: none;"
     id="path3903" />
  <text
     x="375.5"
     y="126.96015930175781"
     text-anchor="middle"
     font="10px &quot;Arial&quot;"
     stroke="none"
     fill="#000000"
     font-family="Arial"
     font-size="12px"
     style="text-anchor: middle; font-style: normal; font-variant: normal; font-weight: normal; font-size: 12px; line-height: normal; font-family: Arial; cursor: pointer; display: none;"
     id="text3905">
    <tspan
       id="tspan3907">Дальневосточный</tspan>
    <tspan
       dy="14.399999999999999"
       x="375"
       id="tspan3909">федеральный округ</tspan>
  </text>
  <path
     fill="#f1f1f3"
     stroke="#000000"
     d="M260.46875,130.5C254.95575,130.5,250.49975,134.921,250.49975,140.406L250.49975,179.875C250.49975,185.36,254.95575,189.781,260.46875,189.781L271.90675,189.781L266.93775,214.06300000000002L289.21875,189.781L386.28175,189.781C391.79375,189.781,396.21875,185.36,396.21875,179.875L396.21875,140.406C396.21875,134.921,391.79375,130.5,386.28075,130.5L260.46875,130.5Z"
     stroke-width="0"
     stroke-linejoin="round"
     style="stroke-width: 0px; stroke-linejoin: round; cursor: pointer; display: none;"
     id="path3911" />
  <text
     x="325.5"
     y="156.9601593017578"
     text-anchor="middle"
     font="10px &quot;Arial&quot;"
     stroke="none"
     fill="#000000"
     font-family="Arial"
     font-size="12px"
     style="text-anchor: middle; font-style: normal; font-variant: normal; font-weight: normal; font-size: 12px; line-height: normal; font-family: Arial; cursor: pointer; display: none;"
     id="text3913">
    <tspan
       id="tspan3915">Сибирский</tspan>
    <tspan
       dy="14.399999999999999"
       x="325"
       id="tspan3917">федеральный округ</tspan>
  </text>
  <path
     fill="#f1f1f3"
     stroke="#000000"
     d="M160.46875,120.5C154.95575,120.5,150.49975,124.921,150.49975,130.406L150.49975,169.875C150.49975,175.36,154.95575,179.781,160.46875,179.781L171.90675,179.781L166.93775,204.06300000000002L189.21875,179.781L286.28175,179.781C291.79375,179.781,296.21875,175.36,296.21875,169.875L296.21875,130.406C296.21875,124.921,291.79375,120.5,286.28075,120.5L160.46875,120.5Z"
     stroke-width="0"
     stroke-linejoin="round"
     style="stroke-width: 0px; stroke-linejoin: round; cursor: pointer; display: none;"
     id="path3919" />
  <text
     x="225.5"
     y="146.9601593017578"
     text-anchor="middle"
     font="10px &quot;Arial&quot;"
     stroke="none"
     fill="#000000"
     font-family="Arial"
     font-size="12px"
     style="text-anchor: middle; font-style: normal; font-variant: normal; font-weight: normal; font-size: 12px; line-height: normal; font-family: Arial; cursor: pointer; display: none;"
     id="text3921">
    <tspan
       id="tspan3923">Уральский</tspan>
    <tspan
       dy="14.399999999999999"
       x="225"
       id="tspan3925">федеральный округ </tspan>
  </text>
  <path
     fill="#f1f1f3"
     stroke="#000000"
     d="M60.46875,50.5C54.95575,50.5,50.49975,54.921,50.49975,60.406L50.49975,99.875C50.49975,105.36,54.95575,109.781,60.46875,109.781L71.90675,109.781L66.93775000000001,134.06300000000002L89.21875,109.78100000000002L186.28175,109.78100000000002C191.79375,109.78100000000002,196.21875,105.36000000000001,196.21875,99.87500000000001L196.21875,60.40600000000001C196.21875,54.921000000000014,191.79375,50.500000000000014,186.28075,50.500000000000014L60.468750000000014,50.500000000000014Z"
     stroke-width="0"
     stroke-linejoin="round"
     style="stroke-width: 0px; stroke-linejoin: round; cursor: pointer; display: none;"
     id="path3927" />
  <text
     x="125.5"
     y="76.96015548706055"
     text-anchor="middle"
     font="10px &quot;Arial&quot;"
     stroke="none"
     fill="#000000"
     font-family="Arial"
     font-size="12px"
     style="text-anchor: middle; font-style: normal; font-variant: normal; font-weight: normal; font-size: 12px; line-height: normal; font-family: Arial; cursor: pointer; display: none;"
     id="text3929">
    <tspan
       id="tspan3931">Северо-западный</tspan>
    <tspan
       dy="14.399999999999999"
       x="125"
       id="tspan3933">федеральный округ</tspan>
  </text>
  <path
     fill="#f1f1f3"
     stroke="#000000"
     d="M40.46875,100.5C34.95575,100.5,30.49975,104.921,30.49975,110.406L30.49975,149.875C30.49975,155.36,34.95575,159.781,40.46875,159.781L51.90675,159.781L46.93775,184.06300000000002L69.21875,159.781L166.28175,159.781C171.79375,159.781,176.21875,155.36,176.21875,149.875L176.21875,110.406C176.21875,104.921,171.79375,100.5,166.28075,100.5L40.468750000000014,100.5Z"
     stroke-width="0"
     stroke-linejoin="round"
     style="stroke-width: 0px; stroke-linejoin: round; cursor: pointer; display: none;"
     id="path3935" />
  <text
     x="105.5"
     y="126.96015930175781"
     text-anchor="middle"
     font="10px &quot;Arial&quot;"
     stroke="none"
     fill="#000000"
     font-family="Arial"
     font-size="12px"
     style="text-anchor: middle; font-style: normal; font-variant: normal; font-weight: normal; font-size: 12px; line-height: normal; font-family: Arial; cursor: pointer; display: none;"
     id="text3937">
    <tspan
       id="tspan3939">Центральный</tspan>
    <tspan
       dy="14.399999999999999"
       x="105"
       id="tspan3941">федеральный округ</tspan>
  </text>
  <path
     fill="#f1f1f3"
     stroke="#000000"
     d="M70.46875,120.5C64.95575,120.5,60.49975,124.921,60.49975,130.406L60.49975,169.875C60.49975,175.36,64.95575,179.781,70.46875,179.781L81.90675,179.781L76.93775000000001,204.06300000000002L99.21875,179.781L196.28175,179.781C201.79375,179.781,206.21875,175.36,206.21875,169.875L206.21875,130.406C206.21875,124.921,201.79375,120.5,196.28075,120.5L70.46875000000001,120.5Z"
     stroke-width="0"
     stroke-linejoin="round"
     style="stroke-width: 0px; stroke-linejoin: round; cursor: pointer; display: none;"
     id="path3943" />
  <text
     x="135.5"
     y="146.9601593017578"
     text-anchor="middle"
     font="10px &quot;Arial&quot;"
     stroke="none"
     fill="#000000"
     font-family="Arial"
     font-size="12px"
     style="text-anchor: middle; font-style: normal; font-variant: normal; font-weight: normal; font-size: 12px; line-height: normal; font-family: Arial; cursor: pointer; display: none;"
     id="text3945">
    <tspan
       id="tspan3947">Приволжский</tspan>
    <tspan
       dy="14.399999999999999"
       x="135"
       id="tspan3949">федеральный округ</tspan>
  </text>
</svg>
