<?xml version="1.0" encoding="UTF-8" standalone="no"?>
<svg
   xmlns:osb="http://www.openswatchbook.org/uri/2009/osb"
   xmlns:dc="http://purl.org/dc/elements/1.1/"
   xmlns:cc="http://creativecommons.org/ns#"
   xmlns:rdf="http://www.w3.org/1999/02/22-rdf-syntax-ns#"
   xmlns:svg="http://www.w3.org/2000/svg"
   xmlns="http://www.w3.org/2000/svg"
   xmlns:xlink="http://www.w3.org/1999/xlink"
   xmlns:sodipodi="http://sodipodi.sourceforge.net/DTD/sodipodi-0.dtd"
   xmlns:inkscape="http://www.inkscape.org/namespaces/inkscape"
   version="1.1"
   width="500"
   height="300"
   id="svg3825"
   inkscape:version="0.48.2 r9819"
   sodipodi:docname="map.svg">
  <metadata
     id="metadata3953">
    <rdf:RDF>
      <cc:Work
         rdf:about="">
        <dc:format>image/svg+xml</dc:format>
        <dc:type
           rdf:resource="http://purl.org/dc/dcmitype/StillImage" />
        <dc:title></dc:title>
      </cc:Work>
    </rdf:RDF>
  </metadata>
  <sodipodi:namedview
     pagecolor="#ffffff"
     bordercolor="#666666"
     borderopacity="1"
     objecttolerance="10"
     gridtolerance="10"
     guidetolerance="10"
     inkscape:pageopacity="0"
     inkscape:pageshadow="2"
     inkscape:window-width="1043"
     inkscape:window-height="698"
     id="namedview3951"
     showgrid="false"
     inkscape:zoom="1.3379312"
     inkscape:cx="380.53224"
     inkscape:cy="161.44192"
     inkscape:window-x="17"
     inkscape:window-y="0"
     inkscape:window-maximized="0"
     inkscape:current-layer="svg3825" />
  <desc
     id="desc3827">Created with Raphaël</desc>
  <defs
     id="defs3829">
    <linearGradient
       id="linearGradient5306"
       osb:paint="solid">
      <stop
         style="stop-color:#000000;stop-opacity:0;"
         offset="0"
         id="stop5308" />
    </linearGradient>
    <linearGradient
       id="linearGradient3860">
      <stop
         style="stop-color:#0dff00;stop-opacity:1;"
         offset="0"
         id="stop3863" />
      <stop
         id="stop3870"
         offset="0.5"
         style="stop-color:#867f00;stop-opacity:0.49803922;" />
      <stop
         style="stop-color:#ff0000;stop-opacity:0;"
         offset="1"
         id="stop3865" />
    </linearGradient>
    <style
       type="text/css"
       id="style5">
        .hidden {
          visibility: hidden;
        }
        .chanel {
          stroke-width:3;
        }
        .selected {
          stroke-width:5;
        }
     </style>
    <linearGradient
       id="linearGradient7975">
      <stop
         style="stop-color:#f01600;stop-opacity:0.9285714;"
         offset="0"
         id="stop7977" />
      <stop
         style="stop-color:#000000;stop-opacity:0;"
         offset="1"
         id="stop7979" />
    </linearGradient>
    <marker
       inkscape:stockid="Arrow1Send"
       orient="auto"
       refY="0.0"
       refX="0.0"
       id="Arrow1Send"
       style="overflow:visible;">
      <path
         id="path5645"
         d="M 0.0,0.0 L 5.0,-5.0 L -12.5,0.0 L 5.0,5.0 L 0.0,0.0 z "
         style="fill-rule:evenodd;stroke:#000000;stroke-width:1.0pt;marker-start:none;"
         transform="scale(0.2) rotate(180) translate(6,0)" />
    </marker>
    <marker
       inkscape:stockid="Arrow1Mend"
       orient="auto"
       refY="0.0"
       refX="0.0"
       id="Arrow1Mend"
       style="overflow:visible;">
      <path
         id="path5639"
         d="M 0.0,0.0 L 5.0,-5.0 L -12.5,0.0 L 5.0,5.0 L 0.0,0.0 z "
         style="fill-rule:evenodd;stroke:#000000;stroke-width:1.0pt;marker-start:none;"
         transform="scale(0.4) rotate(180) translate(10,0)" />
    </marker>
    <linearGradient
       id="linearGradient5437"
       osb:paint="gradient">
      <stop
         style="stop-color:#006b00;stop-opacity:1;"
         offset="0"
         id="stop5439" />
      <stop
         id="stop6259"
         offset="0.25"
         style="stop-color:#0a6d00;stop-opacity:0.74901961;" />
      <stop
         id="stop6257"
         offset="0.5"
         style="stop-color:#146f00;stop-opacity:0.49803922;" />
      <stop
         style="stop-color:#145500;stop-opacity:0;"
         offset="1"
         id="stop5441" />
    </linearGradient>
    <lineargradient
       id="r10o"
       x1="0"
       y1="1"
       x2="6.123031769111886e-17"
       y2="0">
      <stop
         offset="0%"
         stop-color="#a5a0a7"
         id="stop3832" />
      <stop
         offset="100%"
         stop-color="#98999b"
         id="stop3834" />
    </lineargradient>
    <lineargradient
       id="r10p"
       x1="0"
       y1="1"
       x2="6.123031769111886e-17"
       y2="0">
      <stop
         offset="0%"
         stop-color="#a5a0a7"
         id="stop3837" />
      <stop
         offset="100%"
         stop-color="#98999b"
         id="stop3839" />
    </lineargradient>
    <lineargradient
       id="r10q"
       x1="0"
       y1="1"
       x2="6.123031769111886e-17"
       y2="0">
      <stop
         offset="0%"
         stop-color="#a5a0a7"
         id="stop3842" />
      <stop
         offset="100%"
         stop-color="#98999b"
         id="stop3844" />
    </lineargradient>
    <lineargradient
       id="r10r"
       x1="0"
       y1="1"
       x2="6.123031769111886e-17"
       y2="0">
      <stop
         offset="0%"
         stop-color="#a5a0a7"
         id="stop3847" />
      <stop
         offset="100%"
         stop-color="#98999b"
         id="stop3849" />
    </lineargradient>
    <lineargradient
       id="r10s"
       x1="0"
       y1="1"
       x2="6.123031769111886e-17"
       y2="0">
      <stop
         offset="0%"
         stop-color="#a5a0a7"
         id="stop3852" />
      <stop
         offset="100%"
         stop-color="#98999b"
         id="stop3854" />
    </lineargradient>
    <lineargradient
       id="r10t"
       x1="0"
       y1="1"
       x2="6.123031769111886e-17"
       y2="0">
      <stop
         offset="0%"
         stop-color="#a5a0a7"
         id="stop3857" />
      <stop
         offset="100%"
         stop-color="#98999b"
         id="stop3859" />
    </lineargradient>
    <lineargradient
       id="r10u"
       x1="0"
       y1="1"
       x2="6.123031769111886e-17"
       y2="0">
      <stop
         offset="0%"
         stop-color="#a5a0a7"
         id="stop3862" />
      <stop
         offset="100%"
         stop-color="#98999b"
         id="stop3864" />
    </lineargradient>
    <lineargradient
       id="r10v"
       x1="0"
       y1="1"
       x2="6.123031769111886e-17"
       y2="0">
      <stop
         offset="0%"
         stop-color="#a5a0a7"
         id="stop3867" />
      <stop
         offset="100%"
         stop-color="#98999b"
         id="stop3869" />
    </lineargradient>
    <linearGradient
       inkscape:collect="always"
       xlink:href="#linearGradient7975"
       id="linearGradient7981"
       x1="134"
       y1="195.12193"
       x2="539.83436"
       y2="195.12193"
       gradientUnits="userSpaceOnUse"
       gradientTransform="translate(1,82)" />
    <linearGradient
       inkscape:collect="always"
       xlink:href="#linearGradient7975"
       id="linearGradient3079"
       gradientUnits="userSpaceOnUse"
       x1="134"
       y1="195.12193"
       x2="539.83436"
       y2="195.12193"
       gradientTransform="translate(146,110)" />
    <linearGradient
       inkscape:collect="always"
       xlink:href="#linearGradient7975"
       id="linearGradient3083"
       gradientUnits="userSpaceOnUse"
       gradientTransform="translate(-50,-15)"
       x1="134"
       y1="195.12193"
       x2="539.83436"
       y2="195.12193" />
    <linearGradient
       inkscape:collect="always"
       xlink:href="#linearGradient5306"
       id="linearGradient5314"
       x1="29.5"
       y1="347"
       x2="46.5"
       y2="347"
       gradientUnits="userSpaceOnUse" />
    <linearGradient
       inkscape:collect="always"
       xlink:href="#linearGradient5306"
       id="linearGradient3110"
       gradientUnits="userSpaceOnUse"
       x1="29.5"
       y1="347"
       x2="46.5"
       y2="347" />
    <linearGradient
       inkscape:collect="always"
       xlink:href="#linearGradient5306"
       id="linearGradient3112"
       gradientUnits="userSpaceOnUse"
       x1="29.5"
       y1="347"
       x2="46.5"
       y2="347" />
    <linearGradient
       inkscape:collect="always"
       xlink:href="#linearGradient5306"
       id="linearGradient3114"
       gradientUnits="userSpaceOnUse"
       x1="29.5"
       y1="347"
       x2="46.5"
       y2="347" />
    <linearGradient
       inkscape:collect="always"
       xlink:href="#linearGradient5306"
       id="linearGradient3115"
       gradientUnits="userSpaceOnUse"
       x1="29.5"
       y1="347"
       x2="46.5"
       y2="347" />
    <linearGradient
       inkscape:collect="always"
       xlink:href="#linearGradient5306"
       id="linearGradient3117"
       gradientUnits="userSpaceOnUse"
       x1="29.5"
       y1="347"
       x2="46.5"
       y2="347" />
    <linearGradient
       inkscape:collect="always"
       xlink:href="#linearGradient5306"
       id="linearGradient3103"
       gradientUnits="userSpaceOnUse"
       x1="29.5"
       y1="347"
       x2="46.5"
       y2="347" />
    <linearGradient
       inkscape:collect="always"
       xlink:href="#linearGradient5306"
       id="linearGradient3105"
       gradientUnits="userSpaceOnUse"
       x1="29.5"
       y1="347"
       x2="46.5"
       y2="347" />
    <linearGradient
       inkscape:collect="always"
       xlink:href="#linearGradient5306"
       id="linearGradient3107"
       gradientUnits="userSpaceOnUse"
       x1="29.5"
       y1="347"
       x2="46.5"
       y2="347" />
    <linearGradient
       inkscape:collect="always"
       xlink:href="#linearGradient5306"
       id="linearGradient3109"
       gradientUnits="userSpaceOnUse"
       x1="29.5"
       y1="347"
       x2="46.5"
       y2="347" />
  </defs>
  <path
     d="m 398.56421,154.11455 -0.0693,-1.23063 -1.63105,-0.097 -1.21431,1.13412 -1.52705,-0.648 -2.01316,0.71275 -0.97224,-1.10116 h -1.0416 l -0.90288,0.84222 h -1.80512 l -1.18096,-0.51791 v -2.07406 l 0.69418,-0.648 v -1.36073 l -0.55547,-1.55495 1.31966,-1.94398 0.76353,-2.00873 -2.29125,-2.13942 -0.62548,-2.85094 -1.94315,-0.97292 v -1.81389 l 0.76418,-0.648 -0.76418,-0.71335 v -1.68442 l -2.08186,-0.77809 -0.62547,0.58389 -0.62482,-1.74979 1.04159,-0.97292 1.11026,-1.6844 1.66641,-0.4538 -0.62548,-4.01681 -0.48614,-2.59197 v -1.36198 l -1.94379,-3.30473 -0.20805,-3.4348 -1.94316,-1.23125 -0.83352,-1.8145 -0.59947,-1.39622 v -0.8559 l 2.33389,-0.85591 2.41726,-3.19016 1.66709,-0.46685 2.25056,0.62247 0.66683,-1.40055 v -1.71181 l -1.25031,-1.167138 0.58348,-2.02305 1.66707,-0.54465 v -1.63401 l -0.0833,-2.10083 1.83379,-1.16713 2.12585,-1.98447 0.45878,-1.43976 h 0.91689 l -0.16672,-2.10086 h -1.75044 l -1.58373,-2.80112 v -2.56771 l -1.41701,-1.32277 -3.00075,-2.02303 v -1.08933 l -2.25054,-0.77808 -0.78886,-1.54749 0.38142,-2.08528 -0.94557,-0.88267 -0.98625,-1.38997 -0.50347,-1.20201 0.76419,-0.75132 0.2214,-0.99595 -0.88489,-0.65732 -0.28875,-1.822 h -1.33365 l -1.66708,0.10408 0.11153,1.66015 -0.11153,0.83038 1.33367,0.10409 0.83351,0.7781 -1.05557,1.91907 -1.77845,0.62246 -1.88912,1.45223 c 0,0 -0.33344,1.86743 -1.33366,1.86743 -1.00026,0 -2.77869,0.51853 -2.77869,0.51853 l -2.00051,1.14099 0.4448,2.07471 -2.00053,0.83036 0.55551,-1.8674 0.44477,-2.69719 1.8338,-1.7118 0.8335,-2.33427 2.66735,-0.62248 0.66682,-3.21633 1.66707,-1.55618 0.66686,-2.90507 v -1.03768 l 2.22254,-2.48989 1.27832,-1.19328 1.05559,-2.02303 1.1116,-1.45224 v -2.0747 l 1.27766,-1.19267 -1.38903,-2.2303 -2.22255,-1.141 -0.88954,-0.82978 2.22321,0.41521 0.22206,-2.17867 -1.50037,-1.40054 -1.16695,-1.08933 -0.7782,0.82972 -1.33365,-1.03763 -1.11096,-2.07471 -1.2783,-1.19328 -1.72244,0.77809 -1.27832,-1.19328 -2.27855,1.50452 h -2.22254 l -2.44527,1.24493 1.00024,0.93373 -0.55548,1.76347 c 0,0 -1.77845,-0.72643 -2.44529,-0.72643 -0.66681,0 -0.55543,-1.3489 -0.55543,-1.3489 l 1.44501,-1.34891 -1.61173,-1.5045 h -2.16721 l -0.69484,0.6486 -3.5282,-0.18176 1.44434,-1.76349 1.72311,-1.60782 -0.50014,-2.12698 -1.66708,0.20727 -2.22322,-1.24495 -1.77776,1.76347 -2.00048,1.3489 -1.66709,3.83879 -0.55614,1.66014 v 2.4899 l 0.88956,0.62247 0.22206,1.76348 h -0.7782 l -2.55596,0.72641 h -2.44528 l 0.66683,1.14099 1.33365,0.9337 1.00027,1.24497 -2.22255,-0.4152 -2.22254,0.4152 -0.33342,1.66012 -3.44619,-0.10329 -1.38902,1.29662 v -1.50453 l 1.05561,-1.86741 -2.00051,0.31122 -0.55546,1.141 -2.44525,0.31124 -2.88941,0.62247 -1.1116,1.03765 2.00048,0.6225 -0.66681,0.72642 -3.00077,0.82974 -1.05558,0.98539 -4.16769,0.5708 -1.16696,1.08934 -3.0561,1.08932 -1.22229,2.38594 -3.11211,-0.10409 0.11141,1.55618 1.55573,0.10408 -1.55573,1.14099 -1.1116,1.45221 0.9449,0.88207 -0.61148,1.29662 0.88888,0.93369 -1.33368,0.31123 c 0,0 0,-1.55616 -0.83351,-0.77809 -0.83354,0.77809 -1.27833,1.19331 -1.27833,1.19331 l 1.1116,1.03765 1.33364,0.41518 1.11164,1.5562 -1.11164,1.03765 h -2.11115 l -2.8894,1.141 h -4.33438 v 0.62247 l -2.66733,-0.93371 h -5.2233 l -2.22253,1.86742 0.55544,2.59323 0.8889,0.83037 -1.00024,2.07534 -0.66683,2.48987 0.88888,0.82977 1.5557,2.38594 2.11187,0.72581 -0.11128,1.45287 1.22228,1.55618 -0.44477,1.65952 H 294.448 l -1.94515,-1.81514 -0.72218,-0.67477 0.77818,-2.07409 -2.88937,-1.45285 -1.50037,-1.40057 -1.8338,0.25896 -2.22254,-0.41456 0.11153,1.24496 h 1.05623 l 0.44477,1.14097 0.94492,0.88204 1.38902,0.25957 1.55571,0.77811 0.38877,1.34889 -1.05561,0.98538 0.22207,1.08932 -2.11186,0.31124 -1.52839,1.42672 0.69485,1.3744 0.44479,-0.57018 0.72216,1.29661 2.38925,1.24496 -0.22204,2.489878 v 3.57922 h -2.22255 l -0.83354,1.24496 -1.63909,1.53004 -2.02849,1.42669 0.11152,1.91908 0.97224,0.90757 0.30541,1.11547 1.38967,1.29724 2.11187,0.31123 0.27805,1.34891 0.72219,0.67415 1.33366,-1.08934 c 0,0 0.48612,0.79117 0.66682,0.62247 0.18071,-0.16869 1.33369,-1.19327 1.33369,-1.19327 l -0.0553,2.02303 1.72241,0.31123 v 1.60787 l 1.05557,2.38594 -0.61146,1.50451 h -0.83355 l 0.88888,1.5562 -0.72218,1.97135 -1.19494,1.11485 -0.41678,1.27111 -1.55571,-0.31124 -0.0553,1.66012 1.08359,1.01153 0.36075,1.89293 -0.94423,1.55619 1.00025,0.93371 v 1.45285 l 2.4446,1.34827 0.94491,1.81576 -1.50103,1.29661 v 1.03705 l 0.77885,1.24495 v 1.86741 l -1.00024,0.72705 1.22163,2.07408 h 1.33366 l 1.33369,1.24495 1.00022,1.86742 0.22272,2.38656 -1.11094,1.03704 0.55481,2.17867 2.55662,0.51913 1.27765,1.19267 1.27832,-1.19267 0.44478,2.48989 -0.44412,2.17865 0.77753,1.65953 -1.50038,1.40058 -1.61105,1.9197 -1.11227,1.97137 1.66709,2.17864 v 2.59324 l -1.61106,1.5045 -0.16674,2.33428 -0.94558,0.88143 -2.61198,2.43822 0.036,3.18521 2.80603,1.72487 3.14877,1.27794 -1.64307,2.55525 -3.96896,1.59726 -2.53264,2.36353 -4.10568,-2.81047 -4.38041,1.72489 -0.82088,2.55524 -2.94274,-1.40554 -2.12251,0.51042 -2.56663,-2.39527 -2.77202,0.98972 -3.55889,-0.3828 -0.9589,-1.34204 h -3.83161 l -2.66999,-1.08562 -3.55955,0.51045 -2.59997,5.43107 0.20536,3.25802 -3.69624,0.958 -3.01141,2.0448 -0.34276,2.17243 -3.15012,1.71928 -1.00024,1.32276 -1.79177,1.6732 -2.20921,0.97294 h -2.66733 l -1.66709,-0.46685 -1.91714,-0.93373 -0.75017,1.01154 h -2.25058 l -1.41699,-0.85592 -1.25031,-0.54466 -1.91713,-0.54465 -1.50038,-0.46685 v -1.24496 l 1.08358,-1.01151 -1.75042,-1.63401 -1.66709,1.08934 -0.77215,1.20138 -1.56174,1.59976 -0.16674,1.63395 0.7502,2.10087 -1.75044,0.77811 v 1.16712 l 1.50037,0.70029 1.04227,0.97293 0.54145,1.20635 1.66708,0.85589 v 1.40055 l -0.79151,0.73953 -2.12588,0.35044 -2.79202,2.60693 v 1.82883 l -0.45879,1.08931 -1.16693,1.08933 -0.91691,0.15564 v 1.40058 l -1.12496,1.05072 -0.62546,1.20635 v 1.24495 l 1.66705,0.72705 0.88891,2.59322 -0.55549,1.45284 v 1.97077 l -1.38966,1.29722 0.61147,1.81514 2.4453,0.62247 2.22254,-1.24493 1.61172,1.50388 -0.72217,2.43886 2.22253,0.62247 1.22232,-1.14164 2.00048,1.14164 h 2.22325 v 1.45159 l -2.66735,1.14164 -0.66682,2.80112 h 1.88911 l 2.33394,-1.03704 1.22228,1.6595 2.66733,-1.34826 3.1121,-0.83037 1.8338,-1.71182 1.72242,-0.0523 2.33391,-0.10329 1.66706,-1.55619 h 2.00051 l 0.55614,1.45285 -1.33365,1.65952 h -1.5564 v 1.86741 l 1.8898,0.7258 1.389,1.29725 1.27832,2.54216 1.22232,1.14038 1.88911,1.7641 1.33367,4.14941 v 3.4236 l 1.77844,1.55617 v 2.48991 l 1.88913,3.11236 0.55615,2.69779 0.77751,2.38657 1.44505,2.69654 2.44526,-0.41456 1.22232,-2.38656 1.77842,-0.51788 1.22232,1.34826 v 1.55618 l 1.2223,1.14038 1.33432,1.24497 2.44461,-0.41459 1.11162,1.03828 2.77801,-0.41581 1.38967,-1.29599 h 2.83403 l 1.36101,1.27048 2.08386,0.8559 1.55636,1.34825 0.44414,2.48991 1.8898,1.1416 0.88888,1.86744 2.33392,1.34827 v 2.48991 l 3.00073,0.72579 2.66734,0.83038 2.88937,-1.03703 1.7231,-1.60847 0.6108,2.12636 1.22298,2.07532 1.00025,1.55619 3.22279,0.51914 1.44502,-1.34951 2.77801,-1.45163 3.33416,0.1033 1.83448,-1.71181 2.61131,-0.57017 0.44476,-2.17866 h 2.22255 l 2.22323,-2.07533 3.66757,-2.17866 h 2.88937 l 0.7782,-2.17865 h 2.4446 l 1.94514,-1.81513 2.38926,0.98475 1.88978,1.76409 3.00076,-1.14037 2.55596,0.72581 2.11185,1.97075 1.77778,1.65951 3.22346,1.03828 2.22255,0.62247 3.11211,-0.51914 3.00074,0.72705 h 3.22282 2.11185 l 2.50062,-2.33427 2.6113,-1.60849 v -2.4899 l -1.94448,-1.81637 v -2.333 l -1.38969,-1.55619 0.44477,-2.69781 1.50039,-1.40056 1.38901,-2.64552 1.72242,-1.60845 1.27831,-1.19268 2.55663,1.7641 h 4.33442 l 2.16718,2.02178 3.16747,-0.77684 h 2.77802 l 2.89004,1.03705 2.05651,1.91846 1.61106,3.16465 1.7231,1.60847 2.722,1.08934 4.00098,0.31122 2.7787,-0.72704 2.88938,-0.62249 2.61132,-2.4376 h 3.16811 l 5.11193,-0.67476 1.55639,0.93372 3.88962,0.51914 h 4.22305 l 1.55571,1.45284 0.88957,1.55619 3.00072,0.9337 3.33416,-0.41579 h 4.55647 l 3.22345,-0.93371 h 3.55623 l 1.38901,-1.29599 2.72333,-2.54219 3.55621,-1.55619 2.55599,-1.65951 1.94512,-1.81636 0.94491,-3.06009 4.001,-3.73484 2.77801,-1.14163 2.11186,0.72708 2.33391,1.14036 3.1121,-1.65952 2.22255,-1.24496 3.00074,0.51916 4.11168,0.31124 3.66758,-1.24495 2.1672,-2.02305 1.50037,-3.26798 2.3339,-0.62248 v -2.90569 l -1.00025,-0.93371 -1.66705,-3.00779 1.22295,-2.90572 v -2.80112 l 0.66683,-4.46065 0.88889,-1.76409 -0.88889,-3.31903 -1.55638,-1.45285 -1.389,-1.29724 -1.72244,1.29724 -1.22298,-1.45286 0.88957,-2.07407 1.22231,-3.4236 1.72242,-1.60848 3.50084,-1.91971 -1.61038,-2.59196 -0.72218,-1.34953 h -1.88979 l -0.55546,-2.22972 -0.94492,-1.34952 1.66707,-0.93371 v -0.72579 h -0.88889 l -1.50035,-1.5039 -1.22231,-0.15564 0.2774,-2.64549 -0.72217,-1.19393 -0.77818,-2.02304 -1.7778,-0.82912 -1.2783,1.65953 -1.33367,-0.46687 -0.11152,-1.7641 -0.88888,-0.82912 -1.30567,-0.33802 -1.36165,1.27173 -0.66684,1.55617 -2.27859,-0.57143 -0.72215,-1.29597 1.33366,-1.55619 -0.77819,-1.19393 -1.50036,0.46688 -1.9445,-0.46688 -1.34033,-1.26299 -0.0253,-1.24991 -1.80447,-0.45378 v -1.81391 l -1.66573,-0.51913 -1.73575,-2.13881 -2.42994,-0.84157 -0.52013,-2.36603 -1.14561,-1.0688 0.38142,-1.13415 -3.15812,-2.94803 -0.9029,-2.3324 -1.38835,-0.12945 v -1.49145 l -1.49236,-1.52193 -1.21495,-1.13416 h -1.77044 v 1.58731 l -1.56172,1.45783 -2.42926,-0.32369 v -1.4908 l -1.04161,-0.84222 v -1.87925 l -2.15253,-0.25957 -2.49861,-1.10241 -2.36059,0.25956 -2.35993,-0.32366 -1.31896,1.48957 -0.65951,2.04171 -1.56172,1.45785 0.62482,2.00869 -0.83285,2.33305 -2.08254,1.94399 v 3.62901 l -2.91537,1.87864 v 2.1388 l -1.24899,-1.61968 v -1.81513 l -1.45834,-1.36073 -1.38836,0.58388 -0.34676,1.6838 -3.68022,1.29599 h -1.73511 l -0.69417,1.94399 -1.11094,1.55493 -2.39527,0.16184 -2.67198,-2.49363 -0.27807,-5.18396 0.34742,-3.10986 v -2.91692 l 0.41677,-2.59199 v -2.52724 l -1.94382,-0.77748 -1.38836,-0.45378 -0.2087,-1.23186 -0.64217,-1.40867 -1.26631,-1.18333 v -1.39309 l 0.86756,-0.80984 0.24273,-1.91162 -1.2143,-1.13288 h -1.59707 l -1.73577,-0.77747 v -1.49145 l 0.69419,-0.64801 -0.7642,-0.71272 -0.6248,-2.26769 -1.38835,-2.33302 -1.66574,-1.10178 -1.87448,0.51853 -1.80512,0.12946 v -2.00873 l 1.49238,-0.38904 v -1.32898 l -1.55572,-1.4541 z m -37.37392,-119.673618 -0.40343,0.56519 0.90755,0.5646 0.40278,-0.6592 -0.9069,-0.47059 z m -4.33707,-8.37911 -1.00891,0.56457 1.41236,0.65922 1.00823,0.65857 1.10962,-0.28198 -0.30273,-1.22379 -1.10962,0.28198 -1.10895,-0.65857 z m -9.88443,-4.613775 v -1.317771 l 0.10073,-2.354206 -0.70619,-1.317772 -1.00893,0.094 -1.41167,1.600384 0.10073,1.412378 -0.60549,0.9418 0.40345,2.542202 -1.21032,1.12977 0.10074,2.54156 -0.60483,2.1656 -0.50479,2.16557 0.90755,0.47061 1.9165,-1.41241 1.1096,-0.65857 2.52128,-1.22378 2.01716,-0.18861 2.52196,-1.789 1.20897,-2.16558 -0.80687,-1.882973 -0.90756,-1.412407 -1.20962,0.471208 -1.21031,-1.977603 -0.90755,-0.84718 -1.10961,1.223796 -0.70485,1.788979 z m -9.07759,-10.074105 -0.90756,1.03579 -0.80685,1.412392 -0.70686,-0.282599 0.50413,-1.788994 V 9.8675617 l -2.21787,0.6592013 c 0,0 -1.31166,0.282598 -1.61374,0.376588 -0.30275,0.094 -1.81643,0.565198 -1.81643,0.565198 l -0.70618,1.412392 -0.40346,1.223782 -0.90687,1.035804 0.30274,1.223782 -1.71442,1.223782 0.80687,0.659201 1.20896,-0.376601 1.00957,1.317785 0.10001,1.223768 0.90756,1.035803 2.31991,0.187994 0.30275,1.223781 1.61438,-0.941196 0.8062,1.223796 2.21856,0.75319 2.11917,-0.9418 1.00891,-1.318402 -0.80685,-1.506382 -1.31166,-1.695005 1.00891,-0.659201 0.40345,-1.600386 -0.50545,-1.788966 0.20269,-1.788994 -2.42061,-1.222534 z m -1.81512,28.81054 -1.00889,1.12916 -1.311,0.28262 1.20963,0.84718 1.21031,-1.1298 -0.10002,-1.12916 z m -16.84348,-0.37659 -0.50412,0.75258 0.70549,0.56521 0.90823,-1.22442 -1.1096,-0.0932 z m -10.38857,25.79653 -1.20964,0.56521 c 0,0 0.50414,1.4124 0.50414,1.22381 0,-0.18863 0.90688,-0.3766 0.90688,-0.3766 l -0.20138,-1.41242 z m -8.67348,-8.4731 -1.10959,0.84658 0.6048,1.13041 1.00825,-0.18863 -0.50346,-1.78836 z m -0.40409,12.3337 -0.2014,1.03517 h 1.71445 l 0.90752,0.84718 0.10073,-1.4124 -1.00891,-0.18798 -1.51236,-0.28197 z m -5.84946,-55.831521 -0.60548,0.565226 0.70619,0.376602 1.10961,0.753176 0.30274,-0.9418 -1.51306,-0.753204 z m -6.15217,65.622401 -0.70619,0.84718 0.40344,1.12979 0.70618,0.84781 1.00824,-1.03519 0.40343,-1.22439 -0.90756,-0.8478 -0.90754,0.2826 z m 14.63159,-77.8104233 -0.83352,0.155643 -0.54147,0.505452 0.83354,0.778077 1.12494,-0.349823 0.66683,-0.622462 -1.25032,-0.466859 z m 19.08806,-1.55616801 -0.75017,0.700276 0.58348,0.54466001 0.62548,0.583268 1.29165,-1.12792801 v -0.778105 l -1.75044,0.07778 z m 8.00199,-1.01153489 -0.25007,1.55619589 -1.50038,0.62247501 -2.25053,1.400566 v 1.945213 l 0.91688,0.855906 -1.20829,1.127927 -0.79222,1.439775 1.08363,1.400566 0.41673,1.4005813 1.91718,1.556166 1.75041,-1.556166 h 1.16698 l 1.75043,-0.9337063 2.08383,-0.62249 -0.58347,-1.867412 v -2.334286 l 1.25029,-1.011521 -1.04158,-0.972915 -2.12586,-1.98381901 -0.75018,-1.5561959 -1.83378,-0.46685999 z m -4.91789,12.9163262 -1.41704,-0.15563 0.2501,1.711798 v 1.089334 l 1.83376,0.466862 0.75021,0.700275 1.12561,-1.050728 0.6248,-1.516975 -1.08358,-0.77809 -2.08386,-0.46686 z m -22.2555,39.8383 -0.54147,0.50545 0.70818,0.58387 1.16695,-0.31122 -1.33366,-0.7781 z"
     style="fill:#cccccc;fill-opacity:1;stroke:#ffffff;stroke-width:1.33688176px;stroke-linejoin:round"
     id="path3881"
     class="region"
     inkscape:connector-curvature="0">
    <desc
       id="desc6263">region</desc>
    <title
       id="title6261">class</title>
  </path>
  <path
     fill="#f1f1f3"
     stroke="#000000"
     d="M35.46875,150.5C29.955750000000002,150.5,25.49975,154.921,25.49975,160.406L25.49975,199.875C25.49975,205.36,29.95575,209.781,35.46875,209.781L46.90675,209.781L41.93775,234.06300000000002L64.21875,209.781L161.28175,209.781C166.79375,209.781,171.21875,205.36,171.21875,199.875L171.21875,160.406C171.21875,154.921,166.79375,150.5,161.28075,150.5L35.468750000000014,150.5Z"
     stroke-width="0"
     stroke-linejoin="round"
     style="stroke-width: 0px; stroke-linejoin: round; cursor: pointer; display: none;"
     id="path3887" />
  <text
     x="100.5"
     y="176.9601593017578"
     text-anchor="middle"
     font="10px &quot;Arial&quot;"
     stroke="none"
     fill="#000000"
     font-family="Arial"
     font-size="12px"
     style="text-anchor: middle; font-style: normal; font-variant: normal; font-weight: normal; font-size: 12px; line-height: normal; font-family: Arial; cursor: pointer; display: none;"
     id="text3889">
    <tspan
       id="tspan3891">Южный</tspan>
    <tspan
       dy="14.399999999999999"
       x="100"
       id="tspan3893">федеральный округ</tspan>
  </text>
  <path
     fill="#f1f1f3"
     stroke="#000000"
     d="M20.46875,180.5C14.95575,180.5,10.49975,184.921,10.49975,190.406L10.49975,229.875C10.49975,235.36,14.955750000000002,239.781,20.46875,239.781L31.906750000000002,239.781L26.93775,264.063L49.21875,239.78099999999998L146.28175,239.78099999999998C151.79375,239.78099999999998,156.21875,235.35999999999999,156.21875,229.87499999999997L156.21875,190.40599999999998C156.21875,184.92099999999996,151.79375,180.49999999999997,146.28075,180.49999999999997L20.468750000000014,180.49999999999997Z"
     stroke-width="0"
     stroke-linejoin="round"
     style="stroke-width: 0px; stroke-linejoin: round; cursor: pointer; display: none;"
     id="path3895" />
  <text
     x="85.5"
     y="206.9601593017578"
     text-anchor="middle"
     font="10px &quot;Arial&quot;"
     stroke="none"
     fill="#000000"
     font-family="Arial"
     font-size="12px"
     style="text-anchor: middle; font-style: normal; font-variant: normal; font-weight: normal; font-size: 12px; line-height: normal; font-family: Arial; cursor: pointer; display: none;"
     id="text3897">
    <tspan
       id="tspan3899">Республика</tspan>
    <tspan
       dy="14.399999999999999"
       x="85"
       id="tspan3901">Северная Осетия</tspan>
  </text>
  <path
     fill="#f1f1f3"
     stroke="#000000"
     d="M310.46875,100.5C304.95575,100.5,300.49975,104.921,300.49975,110.406L300.49975,149.875C300.49975,155.36,304.95575,159.781,310.46875,159.781L321.90675,159.781L316.93775,184.06300000000002L339.21875,159.781L436.28175,159.781C441.79375,159.781,446.21875,155.36,446.21875,149.875L446.21875,110.406C446.21875,104.921,441.79375,100.5,436.28075,100.5L310.46875,100.5Z"
     stroke-width="0"
     stroke-linejoin="round"
     style="stroke-width: 0px; stroke-linejoin: round; cursor: pointer; display: none;"
     id="path3903" />
  <text
     x="375.5"
     y="126.96015930175781"
     text-anchor="middle"
     font="10px &quot;Arial&quot;"
     stroke="none"
     fill="#000000"
     font-family="Arial"
     font-size="12px"
     style="text-anchor: middle; font-style: normal; font-variant: normal; font-weight: normal; font-size: 12px; line-height: normal; font-family: Arial; cursor: pointer; display: none;"
     id="text3905">
    <tspan
       id="tspan3907">Дальневосточный</tspan>
    <tspan
       dy="14.399999999999999"
       x="375"
       id="tspan3909">федеральный округ</tspan>
  </text>
  <path
     fill="#f1f1f3"
     stroke="#000000"
     d="M260.46875,130.5C254.95575,130.5,250.49975,134.921,250.49975,140.406L250.49975,179.875C250.49975,185.36,254.95575,189.781,260.46875,189.781L271.90675,189.781L266.93775,214.06300000000002L289.21875,189.781L386.28175,189.781C391.79375,189.781,396.21875,185.36,396.21875,179.875L396.21875,140.406C396.21875,134.921,391.79375,130.5,386.28075,130.5L260.46875,130.5Z"
     stroke-width="0"
     stroke-linejoin="round"
     style="stroke-width: 0px; stroke-linejoin: round; cursor: pointer; display: none;"
     id="path3911" />
  <text
     x="325.5"
     y="156.9601593017578"
     text-anchor="middle"
     font="10px &quot;Arial&quot;"
     stroke="none"
     fill="#000000"
     font-family="Arial"
     font-size="12px"
     style="text-anchor: middle; font-style: normal; font-variant: normal; font-weight: normal; font-size: 12px; line-height: normal; font-family: Arial; cursor: pointer; display: none;"
     id="text3913">
    <tspan
       id="tspan3915">Сибирский</tspan>
    <tspan
       dy="14.399999999999999"
       x="325"
       id="tspan3917">федеральный округ</tspan>
  </text>
  <path
     fill="#f1f1f3"
     stroke="#000000"
     d="M160.46875,120.5C154.95575,120.5,150.49975,124.921,150.49975,130.406L150.49975,169.875C150.49975,175.36,154.95575,179.781,160.46875,179.781L171.90675,179.781L166.93775,204.06300000000002L189.21875,179.781L286.28175,179.781C291.79375,179.781,296.21875,175.36,296.21875,169.875L296.21875,130.406C296.21875,124.921,291.79375,120.5,286.28075,120.5L160.46875,120.5Z"
     stroke-width="0"
     stroke-linejoin="round"
     style="stroke-width: 0px; stroke-linejoin: round; cursor: pointer; display: none;"
     id="path3919" />
  <text
     x="225.5"
     y="146.9601593017578"
     text-anchor="middle"
     font="10px &quot;Arial&quot;"
     stroke="none"
     fill="#000000"
     font-family="Arial"
     font-size="12px"
     style="text-anchor: middle; font-style: normal; font-variant: normal; font-weight: normal; font-size: 12px; line-height: normal; font-family: Arial; cursor: pointer; display: none;"
     id="text3921">
    <tspan
       id="tspan3923">Уральский</tspan>
    <tspan
       dy="14.399999999999999"
       x="225"
       id="tspan3925">федеральный округ </tspan>
  </text>
  <path
     fill="#f1f1f3"
     stroke="#000000"
     d="M60.46875,50.5C54.95575,50.5,50.49975,54.921,50.49975,60.406L50.49975,99.875C50.49975,105.36,54.95575,109.781,60.46875,109.781L71.90675,109.781L66.93775000000001,134.06300000000002L89.21875,109.78100000000002L186.28175,109.78100000000002C191.79375,109.78100000000002,196.21875,105.36000000000001,196.21875,99.87500000000001L196.21875,60.40600000000001C196.21875,54.921000000000014,191.79375,50.500000000000014,186.28075,50.500000000000014L60.468750000000014,50.500000000000014Z"
     stroke-width="0"
     stroke-linejoin="round"
     style="stroke-width: 0px; stroke-linejoin: round; cursor: pointer; display: none;"
     id="path3927" />
  <text
     x="125.5"
     y="76.96015548706055"
     text-anchor="middle"
     font="10px &quot;Arial&quot;"
     stroke="none"
     fill="#000000"
     font-family="Arial"
     font-size="12px"
     style="text-anchor: middle; font-style: normal; font-variant: normal; font-weight: normal; font-size: 12px; line-height: normal; font-family: Arial; cursor: pointer; display: none;"
     id="text3929">
    <tspan
       id="tspan3931">Северо-западный</tspan>
    <tspan
       dy="14.399999999999999"
       x="125"
       id="tspan3933">федеральный округ</tspan>
  </text>
  <path
     fill="#f1f1f3"
     stroke="#000000"
     d="M40.46875,100.5C34.95575,100.5,30.49975,104.921,30.49975,110.406L30.49975,149.875C30.49975,155.36,34.95575,159.781,40.46875,159.781L51.90675,159.781L46.93775,184.06300000000002L69.21875,159.781L166.28175,159.781C171.79375,159.781,176.21875,155.36,176.21875,149.875L176.21875,110.406C176.21875,104.921,171.79375,100.5,166.28075,100.5L40.468750000000014,100.5Z"
     stroke-width="0"
     stroke-linejoin="round"
     style="stroke-width: 0px; stroke-linejoin: round; cursor: pointer; display: none;"
     id="path3935" />
  <text
     x="105.5"
     y="126.96015930175781"
     text-anchor="middle"
     font="10px &quot;Arial&quot;"
     stroke="none"
     fill="#000000"
     font-family="Arial"
     font-size="12px"
     style="text-anchor: middle; font-style: normal; font-variant: normal; font-weight: normal; font-size: 12px; line-height: normal; font-family: Arial; cursor: pointer; display: none;"
     id="text3937">
    <tspan
       id="tspan3939">Центральный</tspan>
    <tspan
       dy="14.399999999999999"
       x="105"
       id="tspan3941">федеральный округ</tspan>
  </text>
  <path
     fill="#f1f1f3"
     stroke="#000000"
     d="M70.46875,120.5C64.95575,120.5,60.49975,124.921,60.49975,130.406L60.49975,169.875C60.49975,175.36,64.95575,179.781,70.46875,179.781L81.90675,179.781L76.93775000000001,204.06300000000002L99.21875,179.781L196.28175,179.781C201.79375,179.781,206.21875,175.36,206.21875,169.875L206.21875,130.406C206.21875,124.921,201.79375,120.5,196.28075,120.5L70.46875000000001,120.5Z"
     stroke-width="0"
     stroke-linejoin="round"
     style="stroke-width: 0px; stroke-linejoin: round; cursor: pointer; display: none;"
     id="path3943" />
  <text
     x="135.5"
     y="146.9601593017578"
     text-anchor="middle"
     font="10px &quot;Arial&quot;"
     stroke="none"
     fill="#000000"
     font-family="Arial"
     font-size="12px"
     style="text-anchor: middle; font-style: normal; font-variant: normal; font-weight: normal; font-size: 12px; line-height: normal; font-family: Arial; cursor: pointer; display: none;"
     id="text3945">
    <tspan
       id="tspan3947">Приволжский</tspan>
    <tspan
       dy="14.399999999999999"
       x="135"
       id="tspan3949">федеральный округ</tspan>
  </text>
</svg>
