<?xml version="1.0" encoding="UTF-8" standalone="no"?>
<svg
   xmlns:osb="http://www.openswatchbook.org/uri/2009/osb"
   xmlns:dc="http://purl.org/dc/elements/1.1/"
   xmlns:cc="http://creativecommons.org/ns#"
   xmlns:rdf="http://www.w3.org/1999/02/22-rdf-syntax-ns#"
   xmlns:svg="http://www.w3.org/2000/svg"
   xmlns="http://www.w3.org/2000/svg"
   xmlns:xlink="http://www.w3.org/1999/xlink"
   xmlns:sodipodi="http://sodipodi.sourceforge.net/DTD/sodipodi-0.dtd"
   xmlns:inkscape="http://www.inkscape.org/namespaces/inkscape"
   version="1.1"
   width="500"
   height="300"
   id="svg3825"
   inkscape:version="0.48.2 r9819"
   sodipodi:docname="map.svg">
  <metadata
     id="metadata3953">
    <rdf:RDF>
      <cc:Work
         rdf:about="">
        <dc:format>image/svg+xml</dc:format>
        <dc:type
           rdf:resource="http://purl.org/dc/dcmitype/StillImage" />
        <dc:title></dc:title>
      </cc:Work>
    </rdf:RDF>
  </metadata>
  <sodipodi:namedview
     pagecolor="#ffffff"
     bordercolor="#666666"
     borderopacity="1"
     objecttolerance="10"
     gridtolerance="10"
     guidetolerance="10"
     inkscape:pageopacity="0"
     inkscape:pageshadow="2"
     inkscape:window-width="1043"
     inkscape:window-height="698"
     id="namedview3951"
     showgrid="false"
     inkscape:zoom="1.3379312"
     inkscape:cx="274.83072"
     inkscape:cy="119.16131"
     inkscape:window-x="17"
     inkscape:window-y="0"
     inkscape:window-maximized="0"
     inkscape:current-layer="svg3825" />
  <desc
     id="desc3827">Created with Raphaël</desc>
  <defs
     id="defs3829">
    <linearGradient
       id="linearGradient5306"
       osb:paint="solid">
      <stop
         style="stop-color:#000000;stop-opacity:0;"
         offset="0"
         id="stop5308" />
    </linearGradient>
    <linearGradient
       id="linearGradient3860">
      <stop
         style="stop-color:#0dff00;stop-opacity:1;"
         offset="0"
         id="stop3863" />
      <stop
         id="stop3870"
         offset="0.5"
         style="stop-color:#867f00;stop-opacity:0.49803922;" />
      <stop
         style="stop-color:#ff0000;stop-opacity:0;"
         offset="1"
         id="stop3865" />
    </linearGradient>
    <style
       type="text/css"
       id="style5">
        .hidden {
          visibility: hidden;
        }
        .chanel {
          stroke-width:3;
        }
        .selected {
          stroke-width:5;
        }
     </style>
    <linearGradient
       id="linearGradient7975">
      <stop
         style="stop-color:#f01600;stop-opacity:0.9285714;"
         offset="0"
         id="stop7977" />
      <stop
         style="stop-color:#000000;stop-opacity:0;"
         offset="1"
         id="stop7979" />
    </linearGradient>
    <marker
       inkscape:stockid="Arrow1Send"
       orient="auto"
       refY="0.0"
       refX="0.0"
       id="Arrow1Send"
       style="overflow:visible;">
      <path
         id="path5645"
         d="M 0.0,0.0 L 5.0,-5.0 L -12.5,0.0 L 5.0,5.0 L 0.0,0.0 z "
         style="fill-rule:evenodd;stroke:#000000;stroke-width:1.0pt;marker-start:none;"
         transform="scale(0.2) rotate(180) translate(6,0)" />
    </marker>
    <marker
       inkscape:stockid="Arrow1Mend"
       orient="auto"
       refY="0.0"
       refX="0.0"
       id="Arrow1Mend"
       style="overflow:visible;">
      <path
         id="path5639"
         d="M 0.0,0.0 L 5.0,-5.0 L -12.5,0.0 L 5.0,5.0 L 0.0,0.0 z "
         style="fill-rule:evenodd;stroke:#000000;stroke-width:1.0pt;marker-start:none;"
         transform="scale(0.4) rotate(180) translate(10,0)" />
    </marker>
    <linearGradient
       id="linearGradient5437"
       osb:paint="gradient">
      <stop
         style="stop-color:#006b00;stop-opacity:1;"
         offset="0"
         id="stop5439" />
      <stop
         id="stop6259"
         offset="0.25"
         style="stop-color:#0a6d00;stop-opacity:0.74901961;" />
      <stop
         id="stop6257"
         offset="0.5"
         style="stop-color:#146f00;stop-opacity:0.49803922;" />
      <stop
         style="stop-color:#145500;stop-opacity:0;"
         offset="1"
         id="stop5441" />
    </linearGradient>
    <lineargradient
       id="r10o"
       x1="0"
       y1="1"
       x2="6.123031769111886e-17"
       y2="0">
      <stop
         offset="0%"
         stop-color="#a5a0a7"
         id="stop3832" />
      <stop
         offset="100%"
         stop-color="#98999b"
         id="stop3834" />
    </lineargradient>
    <lineargradient
       id="r10p"
       x1="0"
       y1="1"
       x2="6.123031769111886e-17"
       y2="0">
      <stop
         offset="0%"
         stop-color="#a5a0a7"
         id="stop3837" />
      <stop
         offset="100%"
         stop-color="#98999b"
         id="stop3839" />
    </lineargradient>
    <lineargradient
       id="r10q"
       x1="0"
       y1="1"
       x2="6.123031769111886e-17"
       y2="0">
      <stop
         offset="0%"
         stop-color="#a5a0a7"
         id="stop3842" />
      <stop
         offset="100%"
         stop-color="#98999b"
         id="stop3844" />
    </lineargradient>
    <lineargradient
       id="r10r"
       x1="0"
       y1="1"
       x2="6.123031769111886e-17"
       y2="0">
      <stop
         offset="0%"
         stop-color="#a5a0a7"
         id="stop3847" />
      <stop
         offset="100%"
         stop-color="#98999b"
         id="stop3849" />
    </lineargradient>
    <lineargradient
       id="r10s"
       x1="0"
       y1="1"
       x2="6.123031769111886e-17"
       y2="0">
      <stop
         offset="0%"
         stop-color="#a5a0a7"
         id="stop3852" />
      <stop
         offset="100%"
         stop-color="#98999b"
         id="stop3854" />
    </lineargradient>
    <lineargradient
       id="r10t"
       x1="0"
       y1="1"
       x2="6.123031769111886e-17"
       y2="0">
      <stop
         offset="0%"
         stop-color="#a5a0a7"
         id="stop3857" />
      <stop
         offset="100%"
         stop-color="#98999b"
         id="stop3859" />
    </lineargradient>
    <lineargradient
       id="r10u"
       x1="0"
       y1="1"
       x2="6.123031769111886e-17"
       y2="0">
      <stop
         offset="0%"
         stop-color="#a5a0a7"
         id="stop3862" />
      <stop
         offset="100%"
         stop-color="#98999b"
         id="stop3864" />
    </lineargradient>
    <lineargradient
       id="r10v"
       x1="0"
       y1="1"
       x2="6.123031769111886e-17"
       y2="0">
      <stop
         offset="0%"
         stop-color="#a5a0a7"
         id="stop3867" />
      <stop
         offset="100%"
         stop-color="#98999b"
         id="stop3869" />
    </lineargradient>
    <linearGradient
       inkscape:collect="always"
       xlink:href="#linearGradient7975"
       id="linearGradient7981"
       x1="134"
       y1="195.12193"
       x2="539.83436"
       y2="195.12193"
       gradientUnits="userSpaceOnUse"
       gradientTransform="translate(1,82)" />
    <linearGradient
       inkscape:collect="always"
       xlink:href="#linearGradient7975"
       id="linearGradient3079"
       gradientUnits="userSpaceOnUse"
       x1="134"
       y1="195.12193"
       x2="539.83436"
       y2="195.12193"
       gradientTransform="translate(146,110)" />
    <linearGradient
       inkscape:collect="always"
       xlink:href="#linearGradient7975"
       id="linearGradient3083"
       gradientUnits="userSpaceOnUse"
       gradientTransform="translate(-50,-15)"
       x1="134"
       y1="195.12193"
       x2="539.83436"
       y2="195.12193" />
    <linearGradient
       inkscape:collect="always"
       xlink:href="#linearGradient5306"
       id="linearGradient5314"
       x1="29.5"
       y1="347"
       x2="46.5"
       y2="347"
       gradientUnits="userSpaceOnUse" />
    <linearGradient
       inkscape:collect="always"
       xlink:href="#linearGradient5306"
       id="linearGradient3110"
       gradientUnits="userSpaceOnUse"
       x1="29.5"
       y1="347"
       x2="46.5"
       y2="347" />
    <linearGradient
       inkscape:collect="always"
       xlink:href="#linearGradient5306"
       id="linearGradient3112"
       gradientUnits="userSpaceOnUse"
       x1="29.5"
       y1="347"
       x2="46.5"
       y2="347" />
    <linearGradient
       inkscape:collect="always"
       xlink:href="#linearGradient5306"
       id="linearGradient3114"
       gradientUnits="userSpaceOnUse"
       x1="29.5"
       y1="347"
       x2="46.5"
       y2="347" />
    <linearGradient
       inkscape:collect="always"
       xlink:href="#linearGradient5306"
       id="linearGradient3115"
       gradientUnits="userSpaceOnUse"
       x1="29.5"
       y1="347"
       x2="46.5"
       y2="347" />
    <linearGradient
       inkscape:collect="always"
       xlink:href="#linearGradient5306"
       id="linearGradient3117"
       gradientUnits="userSpaceOnUse"
       x1="29.5"
       y1="347"
       x2="46.5"
       y2="347" />
    <linearGradient
       inkscape:collect="always"
       xlink:href="#linearGradient5306"
       id="linearGradient3103"
       gradientUnits="userSpaceOnUse"
       x1="29.5"
       y1="347"
       x2="46.5"
       y2="347" />
    <linearGradient
       inkscape:collect="always"
       xlink:href="#linearGradient5306"
       id="linearGradient3105"
       gradientUnits="userSpaceOnUse"
       x1="29.5"
       y1="347"
       x2="46.5"
       y2="347" />
    <linearGradient
       inkscape:collect="always"
       xlink:href="#linearGradient5306"
       id="linearGradient3107"
       gradientUnits="userSpaceOnUse"
       x1="29.5"
       y1="347"
       x2="46.5"
       y2="347" />
    <linearGradient
       inkscape:collect="always"
       xlink:href="#linearGradient5306"
       id="linearGradient3109"
       gradientUnits="userSpaceOnUse"
       x1="29.5"
       y1="347"
       x2="46.5"
       y2="347" />
  </defs>
  <path
     d="m 263.46207,279.91895 7.00432,-0.19147 4.73752,1.34534 h 3.50153 l 3.91434,1.92446 4.11951,-0.77072 2.3694,-2.21062 h 2.16299 l 5.35547,2.59598 h 5.56193 l 4.53238,-0.76843 3.7079,1.92217 4.53232,-1.15374 h 5.14911 l 2.47196,-3.26978 4.53234,0.38534 4.11951,2.30753 h 5.15034 l 1.85401,3.46127 h 3.70794 v -2.30747 l 1.15933,-2.23601 2.08511,-1.94758 v -2.59595 l 1.69949,-0.28848 2.16295,-2.01909 0.85036,-2.01905 v -3.38976 l 2.93543,-2.74024 2.23962,-2.09172 3.94031,-0.64959 1.46711,-1.37065 v -2.59594 l -3.08996,-1.58646 -1.0036,-2.23598 -1.93184,-1.80334 -2.78098,-1.29802 v -2.16325 l 3.24443,-1.44222 -1.39047,-3.89395 0.30905,-3.02864 2.47194,-2.30754 1.85396,-2.88436 3.08997,-2.01911 3.24445,3.02864 -2.00845,1.87483 v 2.30754 l 2.78098,0.86534 3.55342,1.00956 2.31747,1.00953 2.62646,1.58644 h 3.39892 l 2.16296,-1.87488 3.55344,1.73062 3.08998,0.86535 h 4.94393 l 4.0948,-1.80333 3.32107,-3.10134 1.8552,-2.45405 5.83877,-3.18897 0.63536,-4.0255 5.58162,-3.79012 6.84982,-1.77561 -0.38063,-6.03882 2.4101,-5.5646 2.40898,-4.49968 6.59646,-0.94607 4.94761,2.01217 h 7.1044 l 1.77735,2.48751 6.59644,0.70956 5.13793,-1.83444 4.75734,4.43965 3.93412,-0.94607 5.45439,2.60517 1.52148,-4.73504 8.11914,-3.19709 7.60996,5.21156 4.6955,-4.38084 7.3566,-2.96052 3.04539,-4.73621 -5.83629,-2.36868 -5.20099,-3.1971 -0.0232,-5.90494 4.88581,-4.51932 1.7514,-1.63485 0.30905,-4.3266 2.9874,-2.78865 v -4.80657 l -3.08999,-4.03819 2.06037,-3.654 2.9874,-3.55817 2.78095,-2.59592 -1.44238,-3.07711 0.82437,-4.03821 -0.82437,-4.61501 -2.36937,2.21174 -2.3694,-2.21174 -4.7375,-0.9611 -1.02956,-4.03818 2.06033,-1.92329 -0.41159,-4.42236 -1.85394,-3.46132 -2.47197,-2.30751 h -2.47192 l -2.26559,-3.84549 1.85399,-1.34645 v -3.46128 l -1.4424,-2.30757 v -1.92332 l 2.78092,-2.40326 -1.75137,-3.36552 -4.53228,-2.50022 v -2.69171 l -1.85402,-1.73064 1.75141,-2.88442 -0.66988,-3.50972 -2.00852,-1.874913 0.10268,-3.07711 2.88357,0.57691 0.77247,-2.35594 2.21485,-2.06758 1.33857,-3.65394 -1.64749,-2.88444 h 1.54492 l 1.13339,-2.78861 -1.95657,-4.42237 v -2.98017 l -3.19251,-0.57687 0.1025,-3.74973 -2.47192,2.21176 -1.23598,-1.15378 -2.47201,2.01905 -1.33857,-1.24953 -0.51541,-2.50018 -3.91434,-0.57691 -2.57451,-2.40324 -0.56612,-2.06756 -1.80206,-1.68218 -0.20671,-3.55705 3.75986,-2.64443 3.03805,-2.83595 1.54498,-2.307531 h 4.11956 v -6.634104 l 0.41154,-4.615063 -4.42853,-2.307495 -1.18404,-2.25908 -0.97891,0.9138 -1.28788,-2.547524 1.08151,-1.009572 1.75134,-1.634854 3.91436,-0.576887 -0.41157,-2.019088 1.95655,-1.826397 -0.72059,-2.500222 -2.88353,-1.4422 -2.78093,-0.672659 -1.545,-1.442182 -0.82442,-2.11484 h -1.95652 l -0.2067,-2.307494 -2.36938,2.211742 0.30903,2.211742 0.82439,2.499055 -2.47194,2.116007 -3.2964,-3.07711 -2.06036,-1.923298 -4.32594,2.692858 1.44241,4.229718 3.08993,2.8844 v 1.539139 l 3.70799,1.730644 2.36933,2.210574 1.33855,2.981358 v 2.307494 l -3.50152,-3.078241 -3.19251,-2.980134 -3.19255,1.826415 -2.47198,-1.922186 -4.32589,-3.075924 v -3.461306 -4.808866 l 3.70791,-3.460158 0.82441,-4.999277 V 9.744722 l 1.02955,-4.038175 h -3.29638 l -1.44235,2.8844 1.44235,3.269783 -1.64753,4.038175 -2.47198,3.652793 h -4.32591 l -5.15034,4.807736 -3.29638,3.077091 2.98736,2.787481 -0.51537,3.941236 1.23598,3.655147 1.44239,4.229699 -4.11951,3.846615 -1.854,4.9981 -2.88354,4.232034 0.61801,6.15185 -2.47197,2.30749 0.61796,3.65513 h 3.70797 l 1.64757,2.11371 3.08992,-1.34532 2.36938,-2.21057 2.88355,2.69171 5.0465,1.63489 1.64759,1.53793 2.67835,2.30639 2.06038,3.84665 -1.44235,3.07594 1.23594,3.65513 -1.23594,2.49904 -3.29638,0.96225 0.41158,3.46125 v 2.30755 l 1.75138,1.6337 4.63491,1.25072 v 2.69054 l -4.73754,-0.95992 -4.11949,-3.84665 v -2.88442 l -0.20672,-4.61502 3.29638,-3.0771 -2.47201,-5.96147 -1.95652,-1.82643 -1.33858,-3.74855 -4.73749,0.57687 h -4.32597 l -2.78092,2.59594 -2.78096,2.59601 0.41152,3.65279 1.02961,4.03818 -1.236,4.61504 -2.57456,2.40444 -3.19251,2.98022 -1.85393,1.73059 v 4.038163 l -4.1196,2.11486 -5.15033,1.34644 -1.23596,1.15376 h -2.67837 c 0,0 -2.98738,1.24957 -2.16299,2.01909 0.82444,0.76956 -0.72057,3.36555 -0.72057,3.36555 h -3.70794 l -2.47196,-3.26976 -3.50156,0.1925 -4.11949,-2.69169 -3.08995,-1.34646 -3.08998,-4.42237 v -3.653963 l 3.08998,0.9611 2.16295,2.01909 3.39896,2.019053 3.08995,-1.922123 5.15032,0.961053 2.88357,-1.537993 3.08993,-4.23083 5.35549,-4.99922 4.5324,-1.15379 0.82437,-7.11525 4.53235,-3.26858 0.61802,-3.07711 -3.60538,-3.36554 -1.54499,-5.09503 1.64758,-3.65396 2.26557,-7.30675 1.44237,-8.269024 4.11954,-5.76881 1.02956,-5.191894 1.23599,-6.538417 -3.50156,-2.8844 1.6476,-4.999259 5.87088,-5.480339 0.92701,-7.018365 2.06037,-1.923335 -1.85398,-6.538343 h -4.32591 l -2.47196,-2.307531 h -4.94391 l -2.472,-3.268634 -3.91439,1.923317 -2.26553,4.615081 -2.06039,4.615007 -2.67838,5.576166 -3.50155,3.268615 -1.54496,1.442218 -4.4285,2.01907 -4.11953,1.346466 -2.26558,2.69169 -1.44241,3.846652 2.6784,0.768411 v 2.884401 l -1.85396,2.307549 -1.02959,4.615026 v 3.077092 l -4.11954,1.923298 -1.95653,1.825303 2.16297,4.135049 3.91435,2.500223 -0.82441,5.384623 2.26559,4.999224 3.29632,0.9611 -4.7375,4.03818 v 4.03813 l -4.11953,2.30755 -2.88355,-4.22973 v -3.84662 l -3.50153,-4.42237 -3.29638,-4.807716 -4.84134,-4.51931 -1.61663,-3.075905 -1.67847,2.307512 -3.24442,3.028641 2.00843,1.779095 0.41161,1.442219 1.54495,0.481079 v 6.538375 h -1.95656 l -0.92695,2.11484 -1.64758,0.7696 -0.30904,2.11479 -0.31386,1.44112 4.11953,1.92328 v 2.50017 l -3.81055,1.44224 3.19259,2.98013 -4.94395,2.30757 -3.70797,3.46127 h -3.91435 l -1.44238,4.23085 h -7.00432 l -6.59146,1.34644 -6.5915,3.46129 v 4.23085 l -5.40125,-0.19293 -4.00704,0.57574 -2.16295,2.307553 -3.86245,1.87482 -3.86248,3.60553 -3.55341,0.43267 v -3.02868 l -2.62648,-0.86529 -3.16782,2.95711 -4.24927,3.96663 -1.85398,3.31707 0.77247,4.18239 -4.9439,2.8844 -0.46348,3.46131 -4.17147,2.45169 -2.78091,4.90351 0.77247,3.31708 -1.69949,3.02863 v 2.59597 l -5.09844,4.75927 -0.69587,3.38978 -1.9318,1.80328 -1.08151,2.74018 v 3.02864 l -4.1714,2.01912 v 3.89392 l -2.31749,5.33615 -4.17144,3.46127 -3.08998,4.32662 -2.78093,2.59598 h -3.55345 l -3.39895,2.74018 v 4.90348 l 2.62648,3.89396 -1.39047,4.32662 -2.08512,1.94641 v 1.37063 l 2.23958,2.16331 -2.54858,2.37908 -2.54983,1.94754 -3.55342,-0.72109 -3.70797,2.30752 0.15439,1.87486 1.62281,1.5149 -2.24086,2.09176 -1.54492,1.44222 -2.47198,-3.46131 h -2.78093 l -2.16302,3.31709 -0.92701,3.60549 -3.39894,1.58642 h -4.01693 l -1.23596,-1.15374 -1.39047,2.59596 v 3.31706 l -1.62162,1.51492 -2.69939,2.78974 2.64623,3.41862 4.78204,3.22939 h 2.95028 l 2.43856,3.32169 2.61786,-2.44251 0.83547,3.21783 -0.94053,2.92479 -2.50784,4.29316 v 2.33865 l -4.64974,1.02572 -2.76861,2.58441 -4.28388,-1.46294 v -2.6341 l -2.29772,-2.1448 -3.34332,-1.56223 -3.13447,-0.87682 -4.49273,3.12091 0.83547,3.70472 1.985,1.85413 0.62662,5.16884 2.61289,3.90086 5.11939,0.4869 2.19391,-1.36604 5.01557,1.46524 1.46222,4.19397 v 3.70474 h -2.40277 l -1.46342,-1.85412 -3.44711,0.29298 v 1.36606 l -3.18761,1.0234 -4.23074,3.95048 v 2.14715 l -2.71671,3.41163 v 3.31712 h -2.19386 l -2.82055,4.78003 -0.5228,2.82791 -3.23949,1.36602 -1.25454,2.04561 h 7.31454 l 2.40275,-0.87914 3.34333,1.36604 h 2.09002 l 1.46222,2.43792 -1.0444,2.43789 -3.86617,1.75487 0.31384,2.43791 h 2.19389 l 0.61798,3.02401 1.64755,-4.03822 4.12075,0.95998 3.50153,-0.95998 1.4424,-3.46125 -1.4424,-4.80892 3.50154,-1.34526 5.35673,-0.19145 3.50155,3.26748 h 2.88354 l 2.57576,-2.40213 -2.78092,-2.59597 -2.26679,-2.11599 -2.26559,-1.34527 2.88355,-2.69289 -1.44113,-2.88444 1.44113,-4.22968 h 4.32595 l 4.73875,2.30755 3.29512,2.69054 3.70795,-0.9599 5.1491,0.95877 z m 202.81716,-267.552934 -2.05676,1.919869 -2.24204,1.745639 2.05666,1.396048 1.68098,-1.396048 h 2.61781 l 2.4299,-2.095211 -2.24206,-2.092913 -2.24449,0.522616 z m -6.72994,-19.369362 -1.68218,1.396047 1.12104,1.57026 2.24205,-1.396011 2.8057,0.697996 -0.7478,-1.570278 -3.73881,-0.698014 z m -8.59997,6.98025705 -0.93564,2.26832895 1.49551,1.221818 1.68219,-1.919888 -2.24206,-1.57025895 z m -20.00064,-11.34266805 -2.05667,1.396085 0.74776,1.571409 -1.49554,1.918738 0.37324,1.221799 3.36561,0.872282 3.1777,-1.396085 1.87003,0.175157 v -1.745657 l -2.99109,-0.698052 1.49558,-1.570278 -1.68223,-2.268274 -2.0554,0.698089 -0.74899,-0.175342 z"
     style="fill:#cccccc;fill-opacity:1;stroke:#ffffff;stroke-width:2.47792816px;stroke-linejoin:round"
     id="path3879"
     inkscape:connector-curvature="0" />
  <path
     fill="#f1f1f3"
     stroke="#000000"
     d="M35.46875,150.5C29.955750000000002,150.5,25.49975,154.921,25.49975,160.406L25.49975,199.875C25.49975,205.36,29.95575,209.781,35.46875,209.781L46.90675,209.781L41.93775,234.06300000000002L64.21875,209.781L161.28175,209.781C166.79375,209.781,171.21875,205.36,171.21875,199.875L171.21875,160.406C171.21875,154.921,166.79375,150.5,161.28075,150.5L35.468750000000014,150.5Z"
     stroke-width="0"
     stroke-linejoin="round"
     style="stroke-width: 0px; stroke-linejoin: round; cursor: pointer; display: none;"
     id="path3887" />
  <text
     x="100.5"
     y="176.9601593017578"
     text-anchor="middle"
     font="10px &quot;Arial&quot;"
     stroke="none"
     fill="#000000"
     font-family="Arial"
     font-size="12px"
     style="text-anchor: middle; font-style: normal; font-variant: normal; font-weight: normal; font-size: 12px; line-height: normal; font-family: Arial; cursor: pointer; display: none;"
     id="text3889">
    <tspan
       id="tspan3891">Южный</tspan>
    <tspan
       dy="14.399999999999999"
       x="100"
       id="tspan3893">федеральный округ</tspan>
  </text>
  <path
     fill="#f1f1f3"
     stroke="#000000"
     d="M20.46875,180.5C14.95575,180.5,10.49975,184.921,10.49975,190.406L10.49975,229.875C10.49975,235.36,14.955750000000002,239.781,20.46875,239.781L31.906750000000002,239.781L26.93775,264.063L49.21875,239.78099999999998L146.28175,239.78099999999998C151.79375,239.78099999999998,156.21875,235.35999999999999,156.21875,229.87499999999997L156.21875,190.40599999999998C156.21875,184.92099999999996,151.79375,180.49999999999997,146.28075,180.49999999999997L20.468750000000014,180.49999999999997Z"
     stroke-width="0"
     stroke-linejoin="round"
     style="stroke-width: 0px; stroke-linejoin: round; cursor: pointer; display: none;"
     id="path3895" />
  <text
     x="85.5"
     y="206.9601593017578"
     text-anchor="middle"
     font="10px &quot;Arial&quot;"
     stroke="none"
     fill="#000000"
     font-family="Arial"
     font-size="12px"
     style="text-anchor: middle; font-style: normal; font-variant: normal; font-weight: normal; font-size: 12px; line-height: normal; font-family: Arial; cursor: pointer; display: none;"
     id="text3897">
    <tspan
       id="tspan3899">Республика</tspan>
    <tspan
       dy="14.399999999999999"
       x="85"
       id="tspan3901">Северная Осетия</tspan>
  </text>
  <path
     fill="#f1f1f3"
     stroke="#000000"
     d="M310.46875,100.5C304.95575,100.5,300.49975,104.921,300.49975,110.406L300.49975,149.875C300.49975,155.36,304.95575,159.781,310.46875,159.781L321.90675,159.781L316.93775,184.06300000000002L339.21875,159.781L436.28175,159.781C441.79375,159.781,446.21875,155.36,446.21875,149.875L446.21875,110.406C446.21875,104.921,441.79375,100.5,436.28075,100.5L310.46875,100.5Z"
     stroke-width="0"
     stroke-linejoin="round"
     style="stroke-width: 0px; stroke-linejoin: round; cursor: pointer; display: none;"
     id="path3903" />
  <text
     x="375.5"
     y="126.96015930175781"
     text-anchor="middle"
     font="10px &quot;Arial&quot;"
     stroke="none"
     fill="#000000"
     font-family="Arial"
     font-size="12px"
     style="text-anchor: middle; font-style: normal; font-variant: normal; font-weight: normal; font-size: 12px; line-height: normal; font-family: Arial; cursor: pointer; display: none;"
     id="text3905">
    <tspan
       id="tspan3907">Дальневосточный</tspan>
    <tspan
       dy="14.399999999999999"
       x="375"
       id="tspan3909">федеральный округ</tspan>
  </text>
  <path
     fill="#f1f1f3"
     stroke="#000000"
     d="M260.46875,130.5C254.95575,130.5,250.49975,134.921,250.49975,140.406L250.49975,179.875C250.49975,185.36,254.95575,189.781,260.46875,189.781L271.90675,189.781L266.93775,214.06300000000002L289.21875,189.781L386.28175,189.781C391.79375,189.781,396.21875,185.36,396.21875,179.875L396.21875,140.406C396.21875,134.921,391.79375,130.5,386.28075,130.5L260.46875,130.5Z"
     stroke-width="0"
     stroke-linejoin="round"
     style="stroke-width: 0px; stroke-linejoin: round; cursor: pointer; display: none;"
     id="path3911" />
  <text
     x="325.5"
     y="156.9601593017578"
     text-anchor="middle"
     font="10px &quot;Arial&quot;"
     stroke="none"
     fill="#000000"
     font-family="Arial"
     font-size="12px"
     style="text-anchor: middle; font-style: normal; font-variant: normal; font-weight: normal; font-size: 12px; line-height: normal; font-family: Arial; cursor: pointer; display: none;"
     id="text3913">
    <tspan
       id="tspan3915">Сибирский</tspan>
    <tspan
       dy="14.399999999999999"
       x="325"
       id="tspan3917">федеральный округ</tspan>
  </text>
  <path
     fill="#f1f1f3"
     stroke="#000000"
     d="M160.46875,120.5C154.95575,120.5,150.49975,124.921,150.49975,130.406L150.49975,169.875C150.49975,175.36,154.95575,179.781,160.46875,179.781L171.90675,179.781L166.93775,204.06300000000002L189.21875,179.781L286.28175,179.781C291.79375,179.781,296.21875,175.36,296.21875,169.875L296.21875,130.406C296.21875,124.921,291.79375,120.5,286.28075,120.5L160.46875,120.5Z"
     stroke-width="0"
     stroke-linejoin="round"
     style="stroke-width: 0px; stroke-linejoin: round; cursor: pointer; display: none;"
     id="path3919" />
  <text
     x="225.5"
     y="146.9601593017578"
     text-anchor="middle"
     font="10px &quot;Arial&quot;"
     stroke="none"
     fill="#000000"
     font-family="Arial"
     font-size="12px"
     style="text-anchor: middle; font-style: normal; font-variant: normal; font-weight: normal; font-size: 12px; line-height: normal; font-family: Arial; cursor: pointer; display: none;"
     id="text3921">
    <tspan
       id="tspan3923">Уральский</tspan>
    <tspan
       dy="14.399999999999999"
       x="225"
       id="tspan3925">федеральный округ </tspan>
  </text>
  <path
     fill="#f1f1f3"
     stroke="#000000"
     d="M60.46875,50.5C54.95575,50.5,50.49975,54.921,50.49975,60.406L50.49975,99.875C50.49975,105.36,54.95575,109.781,60.46875,109.781L71.90675,109.781L66.93775000000001,134.06300000000002L89.21875,109.78100000000002L186.28175,109.78100000000002C191.79375,109.78100000000002,196.21875,105.36000000000001,196.21875,99.87500000000001L196.21875,60.40600000000001C196.21875,54.921000000000014,191.79375,50.500000000000014,186.28075,50.500000000000014L60.468750000000014,50.500000000000014Z"
     stroke-width="0"
     stroke-linejoin="round"
     style="stroke-width: 0px; stroke-linejoin: round; cursor: pointer; display: none;"
     id="path3927" />
  <text
     x="125.5"
     y="76.96015548706055"
     text-anchor="middle"
     font="10px &quot;Arial&quot;"
     stroke="none"
     fill="#000000"
     font-family="Arial"
     font-size="12px"
     style="text-anchor: middle; font-style: normal; font-variant: normal; font-weight: normal; font-size: 12px; line-height: normal; font-family: Arial; cursor: pointer; display: none;"
     id="text3929">
    <tspan
       id="tspan3931">Северо-западный</tspan>
    <tspan
       dy="14.399999999999999"
       x="125"
       id="tspan3933">федеральный округ</tspan>
  </text>
  <path
     fill="#f1f1f3"
     stroke="#000000"
     d="M40.46875,100.5C34.95575,100.5,30.49975,104.921,30.49975,110.406L30.49975,149.875C30.49975,155.36,34.95575,159.781,40.46875,159.781L51.90675,159.781L46.93775,184.06300000000002L69.21875,159.781L166.28175,159.781C171.79375,159.781,176.21875,155.36,176.21875,149.875L176.21875,110.406C176.21875,104.921,171.79375,100.5,166.28075,100.5L40.468750000000014,100.5Z"
     stroke-width="0"
     stroke-linejoin="round"
     style="stroke-width: 0px; stroke-linejoin: round; cursor: pointer; display: none;"
     id="path3935" />
  <text
     x="105.5"
     y="126.96015930175781"
     text-anchor="middle"
     font="10px &quot;Arial&quot;"
     stroke="none"
     fill="#000000"
     font-family="Arial"
     font-size="12px"
     style="text-anchor: middle; font-style: normal; font-variant: normal; font-weight: normal; font-size: 12px; line-height: normal; font-family: Arial; cursor: pointer; display: none;"
     id="text3937">
    <tspan
       id="tspan3939">Центральный</tspan>
    <tspan
       dy="14.399999999999999"
       x="105"
       id="tspan3941">федеральный округ</tspan>
  </text>
  <path
     fill="#f1f1f3"
     stroke="#000000"
     d="M70.46875,120.5C64.95575,120.5,60.49975,124.921,60.49975,130.406L60.49975,169.875C60.49975,175.36,64.95575,179.781,70.46875,179.781L81.90675,179.781L76.93775000000001,204.06300000000002L99.21875,179.781L196.28175,179.781C201.79375,179.781,206.21875,175.36,206.21875,169.875L206.21875,130.406C206.21875,124.921,201.79375,120.5,196.28075,120.5L70.46875000000001,120.5Z"
     stroke-width="0"
     stroke-linejoin="round"
     style="stroke-width: 0px; stroke-linejoin: round; cursor: pointer; display: none;"
     id="path3943" />
  <text
     x="135.5"
     y="146.9601593017578"
     text-anchor="middle"
     font="10px &quot;Arial&quot;"
     stroke="none"
     fill="#000000"
     font-family="Arial"
     font-size="12px"
     style="text-anchor: middle; font-style: normal; font-variant: normal; font-weight: normal; font-size: 12px; line-height: normal; font-family: Arial; cursor: pointer; display: none;"
     id="text3945">
    <tspan
       id="tspan3947">Приволжский</tspan>
    <tspan
       dy="14.399999999999999"
       x="135"
       id="tspan3949">федеральный округ</tspan>
  </text>
</svg>
