<?xml version="1.0" encoding="UTF-8" standalone="no"?>
<svg
   xmlns:osb="http://www.openswatchbook.org/uri/2009/osb"
   xmlns:dc="http://purl.org/dc/elements/1.1/"
   xmlns:cc="http://creativecommons.org/ns#"
   xmlns:rdf="http://www.w3.org/1999/02/22-rdf-syntax-ns#"
   xmlns:svg="http://www.w3.org/2000/svg"
   xmlns="http://www.w3.org/2000/svg"
   xmlns:xlink="http://www.w3.org/1999/xlink"
   xmlns:sodipodi="http://sodipodi.sourceforge.net/DTD/sodipodi-0.dtd"
   xmlns:inkscape="http://www.inkscape.org/namespaces/inkscape"
   version="1.1"
   width="500"
   height="300"
   id="svg3825"
   inkscape:version="0.48.2 r9819"
   sodipodi:docname="map.svg">
  <metadata
     id="metadata3953">
    <rdf:RDF>
      <cc:Work
         rdf:about="">
        <dc:format>image/svg+xml</dc:format>
        <dc:type
           rdf:resource="http://purl.org/dc/dcmitype/StillImage" />
        <dc:title></dc:title>
      </cc:Work>
    </rdf:RDF>
  </metadata>
  <sodipodi:namedview
     pagecolor="#ffffff"
     bordercolor="#666666"
     borderopacity="1"
     objecttolerance="10"
     gridtolerance="10"
     guidetolerance="10"
     inkscape:pageopacity="0"
     inkscape:pageshadow="2"
     inkscape:window-width="1043"
     inkscape:window-height="698"
     id="namedview3951"
     showgrid="false"
     inkscape:zoom="1.3755437"
     inkscape:cx="252.96926"
     inkscape:cy="173.45976"
     inkscape:window-x="17"
     inkscape:window-y="0"
     inkscape:window-maximized="0"
     inkscape:current-layer="svg3825" />
  <desc
     id="desc3827">Created with Raphaël</desc>
  <defs
     id="defs3829">
    <linearGradient
       id="linearGradient5306"
       osb:paint="solid">
      <stop
         style="stop-color:#000000;stop-opacity:0;"
         offset="0"
         id="stop5308" />
    </linearGradient>
    <linearGradient
       id="linearGradient3860">
      <stop
         style="stop-color:#0dff00;stop-opacity:1;"
         offset="0"
         id="stop3863" />
      <stop
         id="stop3870"
         offset="0.5"
         style="stop-color:#867f00;stop-opacity:0.49803922;" />
      <stop
         style="stop-color:#ff0000;stop-opacity:0;"
         offset="1"
         id="stop3865" />
    </linearGradient>
    <style
       type="text/css"
       id="style5">
        .hidden {
          visibility: hidden;
        }
        .chanel {
          stroke-width:3;
        }
        .selected {
          stroke-width:5;
        }
     </style>
    <linearGradient
       id="linearGradient7975">
      <stop
         style="stop-color:#f01600;stop-opacity:0.9285714;"
         offset="0"
         id="stop7977" />
      <stop
         style="stop-color:#000000;stop-opacity:0;"
         offset="1"
         id="stop7979" />
    </linearGradient>
    <marker
       inkscape:stockid="Arrow1Send"
       orient="auto"
       refY="0.0"
       refX="0.0"
       id="Arrow1Send"
       style="overflow:visible;">
      <path
         id="path5645"
         d="M 0.0,0.0 L 5.0,-5.0 L -12.5,0.0 L 5.0,5.0 L 0.0,0.0 z "
         style="fill-rule:evenodd;stroke:#000000;stroke-width:1.0pt;marker-start:none;"
         transform="scale(0.2) rotate(180) translate(6,0)" />
    </marker>
    <marker
       inkscape:stockid="Arrow1Mend"
       orient="auto"
       refY="0.0"
       refX="0.0"
       id="Arrow1Mend"
       style="overflow:visible;">
      <path
         id="path5639"
         d="M 0.0,0.0 L 5.0,-5.0 L -12.5,0.0 L 5.0,5.0 L 0.0,0.0 z "
         style="fill-rule:evenodd;stroke:#000000;stroke-width:1.0pt;marker-start:none;"
         transform="scale(0.4) rotate(180) translate(10,0)" />
    </marker>
    <linearGradient
       id="linearGradient5437"
       osb:paint="gradient">
      <stop
         style="stop-color:#006b00;stop-opacity:1;"
         offset="0"
         id="stop5439" />
      <stop
         id="stop6259"
         offset="0.25"
         style="stop-color:#0a6d00;stop-opacity:0.74901961;" />
      <stop
         id="stop6257"
         offset="0.5"
         style="stop-color:#146f00;stop-opacity:0.49803922;" />
      <stop
         style="stop-color:#145500;stop-opacity:0;"
         offset="1"
         id="stop5441" />
    </linearGradient>
    <lineargradient
       id="r10o"
       x1="0"
       y1="1"
       x2="6.123031769111886e-17"
       y2="0">
      <stop
         offset="0%"
         stop-color="#a5a0a7"
         id="stop3832" />
      <stop
         offset="100%"
         stop-color="#98999b"
         id="stop3834" />
    </lineargradient>
    <lineargradient
       id="r10p"
       x1="0"
       y1="1"
       x2="6.123031769111886e-17"
       y2="0">
      <stop
         offset="0%"
         stop-color="#a5a0a7"
         id="stop3837" />
      <stop
         offset="100%"
         stop-color="#98999b"
         id="stop3839" />
    </lineargradient>
    <lineargradient
       id="r10q"
       x1="0"
       y1="1"
       x2="6.123031769111886e-17"
       y2="0">
      <stop
         offset="0%"
         stop-color="#a5a0a7"
         id="stop3842" />
      <stop
         offset="100%"
         stop-color="#98999b"
         id="stop3844" />
    </lineargradient>
    <lineargradient
       id="r10r"
       x1="0"
       y1="1"
       x2="6.123031769111886e-17"
       y2="0">
      <stop
         offset="0%"
         stop-color="#a5a0a7"
         id="stop3847" />
      <stop
         offset="100%"
         stop-color="#98999b"
         id="stop3849" />
    </lineargradient>
    <lineargradient
       id="r10s"
       x1="0"
       y1="1"
       x2="6.123031769111886e-17"
       y2="0">
      <stop
         offset="0%"
         stop-color="#a5a0a7"
         id="stop3852" />
      <stop
         offset="100%"
         stop-color="#98999b"
         id="stop3854" />
    </lineargradient>
    <lineargradient
       id="r10t"
       x1="0"
       y1="1"
       x2="6.123031769111886e-17"
       y2="0">
      <stop
         offset="0%"
         stop-color="#a5a0a7"
         id="stop3857" />
      <stop
         offset="100%"
         stop-color="#98999b"
         id="stop3859" />
    </lineargradient>
    <lineargradient
       id="r10u"
       x1="0"
       y1="1"
       x2="6.123031769111886e-17"
       y2="0">
      <stop
         offset="0%"
         stop-color="#a5a0a7"
         id="stop3862" />
      <stop
         offset="100%"
         stop-color="#98999b"
         id="stop3864" />
    </lineargradient>
    <lineargradient
       id="r10v"
       x1="0"
       y1="1"
       x2="6.123031769111886e-17"
       y2="0">
      <stop
         offset="0%"
         stop-color="#a5a0a7"
         id="stop3867" />
      <stop
         offset="100%"
         stop-color="#98999b"
         id="stop3869" />
    </lineargradient>
    <linearGradient
       inkscape:collect="always"
       xlink:href="#linearGradient7975"
       id="linearGradient7981"
       x1="134"
       y1="195.12193"
       x2="539.83436"
       y2="195.12193"
       gradientUnits="userSpaceOnUse"
       gradientTransform="translate(1,82)" />
    <linearGradient
       inkscape:collect="always"
       xlink:href="#linearGradient7975"
       id="linearGradient3079"
       gradientUnits="userSpaceOnUse"
       x1="134"
       y1="195.12193"
       x2="539.83436"
       y2="195.12193"
       gradientTransform="translate(146,110)" />
    <linearGradient
       inkscape:collect="always"
       xlink:href="#linearGradient7975"
       id="linearGradient3083"
       gradientUnits="userSpaceOnUse"
       gradientTransform="translate(-50,-15)"
       x1="134"
       y1="195.12193"
       x2="539.83436"
       y2="195.12193" />
    <linearGradient
       inkscape:collect="always"
       xlink:href="#linearGradient5306"
       id="linearGradient5314"
       x1="29.5"
       y1="347"
       x2="46.5"
       y2="347"
       gradientUnits="userSpaceOnUse" />
    <linearGradient
       inkscape:collect="always"
       xlink:href="#linearGradient5306"
       id="linearGradient3110"
       gradientUnits="userSpaceOnUse"
       x1="29.5"
       y1="347"
       x2="46.5"
       y2="347" />
    <linearGradient
       inkscape:collect="always"
       xlink:href="#linearGradient5306"
       id="linearGradient3112"
       gradientUnits="userSpaceOnUse"
       x1="29.5"
       y1="347"
       x2="46.5"
       y2="347" />
    <linearGradient
       inkscape:collect="always"
       xlink:href="#linearGradient5306"
       id="linearGradient3114"
       gradientUnits="userSpaceOnUse"
       x1="29.5"
       y1="347"
       x2="46.5"
       y2="347" />
    <linearGradient
       inkscape:collect="always"
       xlink:href="#linearGradient5306"
       id="linearGradient3115"
       gradientUnits="userSpaceOnUse"
       x1="29.5"
       y1="347"
       x2="46.5"
       y2="347" />
    <linearGradient
       inkscape:collect="always"
       xlink:href="#linearGradient5306"
       id="linearGradient3117"
       gradientUnits="userSpaceOnUse"
       x1="29.5"
       y1="347"
       x2="46.5"
       y2="347" />
    <linearGradient
       inkscape:collect="always"
       xlink:href="#linearGradient5306"
       id="linearGradient3103"
       gradientUnits="userSpaceOnUse"
       x1="29.5"
       y1="347"
       x2="46.5"
       y2="347" />
    <linearGradient
       inkscape:collect="always"
       xlink:href="#linearGradient5306"
       id="linearGradient3105"
       gradientUnits="userSpaceOnUse"
       x1="29.5"
       y1="347"
       x2="46.5"
       y2="347" />
    <linearGradient
       inkscape:collect="always"
       xlink:href="#linearGradient5306"
       id="linearGradient3107"
       gradientUnits="userSpaceOnUse"
       x1="29.5"
       y1="347"
       x2="46.5"
       y2="347" />
    <linearGradient
       inkscape:collect="always"
       xlink:href="#linearGradient5306"
       id="linearGradient3109"
       gradientUnits="userSpaceOnUse"
       x1="29.5"
       y1="347"
       x2="46.5"
       y2="347" />
  </defs>
  <path
     d="m 412.1716,4.727618 -6.63242,5.530809 -13.44151,0 -3.44887,10.566298 -11.05397,10.236056 -12.11511,0 -4.24473,4.04489 -6.63225,0 -3.27208,-4.292507 -8.13569,0 0,-5.613392 -3.62566,-3.384533 -3.80254,4.375174 -3.27195,7.511921 -17.50944,2.228815 0.53042,7.016727 -6.63242,-0.9081 -6.63234,6.191165 1.9455,9.658324 -7.07452,3.96235 -10.43496,9.740647 -11.31929,-11.474182 -7.51667,-7.51205 -8.04714,3.136874 -8.93168,-3.549612 -10.34652,4.37509 -7.07449,7.099268 5.65957,1.733492 5.12915,4.87041 8.04721,1.7335 5.65957,3.96243 -1.85708,7.92461 -8.04716,-3.0542 -10.87711,-1.32084 -6.54398,-2.64155 -4.24469,3.96239 -5.65965,-4.87041 -5.21746,-3.54974 -5.65956,-0.82548 -1.85706,5.69602 3.71409,6.60381 -1.41488,10.979 -7.07448,-2.14623 -5.65969,0 -10.78858,0.41206 -8.04735,3.05433 -3.27194,6.603898 -7.07449,-2.14627 -7.60516,-8.832798 -5.6596,0.90814 -5.12897,4.78784 2.29917,8.832618 -2.82976,7.92484 3.80254,7.01659 5.6596,4.87042 -0.97278,13.2078 4.77531,6.604 3.71414,7.51191 1.94551,14.94135 -1.41488,20.22449 3.7141,10.5663 6.19019,-0.82552 4.68682,6.10872 3.80262,4.45759 5.12903,0.82547 5.748,-5.28306 6.72082,-0.99069 4.68682,-4.37513 4.68696,0 2.65288,5.36582 4.06789,5.61326 9.19691,0 7.07445,-8.25491 2.47613,-4.78786 -1.76863,-6.27366 4.95218,-1.32084 7.78195,-5.61331 -4.59843,-4.29256 3.89102,-5.77842 -2.82981,-5.28307 -3.53735,-2.80676 3.89101,-5.28309 0,-5.28316 3.53731,-3.79714 3.7141,1.15563 2.47605,3.63211 6.54395,-0.82544 4.15628,-3.87976 5.21741,0 3.36047,3.3844 5.30585,2.47648 2.12239,5.77847 4.77526,0 3.89102,-1.32076 2.12231,5.77843 3.80265,3.54953 8.40093,-1.40334 5.30589,2.06373 0.97274,6.35621 4.42155,4.87053 1.41497,5.53073 4.51004,4.12743 3.09507,7.92478 -3.36043,5.94347 3.53727,6.19117 4.86378,4.5402 3.6257,4.45764 0,5.2831 5.12899,4.78787 1.238,6.68649 4.06785,5.53081 0,10.07084 6.36714,4.37518 3.18351,4.54021 5.12903,1.65096 2.29926,5.6133 -0.61852,7.75967 5.74805,1.4033 9.90437,-2.64156 9.01995,0 7.9589,-8.83268 6.63229,-2.64168 0,-6.10858 8.48941,1.32079 3.27204,3.05426 7.07448,1.81611 c 0,0 -0.94234,3.30205 3.53726,3.30205 4.47957,0 10.1697,-0.66054 10.1697,-0.66054 l 4.24464,0 5.21744,0 6.5439,0 8.04731,-0.90809 4.68687,-4.3751 -5.83648,-5.53077 -4.0678,-7.67703 -0.88439,-7.92467 7.07457,0.82544 4.68688,4.87036 4.95218,-4.62262 0,-12.13475 -2.56462,-14.94135 2.29926,-11.47435 -5.6596,-5.28306 -8.93156,-7.92476 -6.10179,-3.46702 6.10179,-5.77847 2.8298,-11.39173 -6.80921,-6.43891 -3.09519,-8.58503 7.51675,-4.87036 6.19019,-5.69593 8.48941,0.41248 7.95882,-3.05442 0,-7.92465 6.19019,-5.69589 7.25141,-6.85156 9.19686,0 6.19023,-4.20998 3.27195,-7.01664 -0.3535,-8.83276 -5.74817,-5.365688 -1.32639,-6.60391 -6.72082,0 -4.42156,-4.12747 -1.94546,-8.91529 -6.8093,-2.31136 -3.44887,3.21932 -6.1901,-5.44822 8.48944,-7.677084 -1.23813,-12.299665 -11.23081,-10.153602 -9.55058,0.330158 0,-5.200525 -6.19014,-3.054334 -10.52336,-1.238302 -3.00667,-10.483631 0.70754,-7.594545 -9.55058,0 -7.2514,-3.714649 -1.59171,-4.952907 -6.89773,-1.155804 z"
     style="fill:#cccccc;fill-opacity:1;stroke:#ffffff;stroke-width:5.67327642px;stroke-linejoin:round"
     id="path3873"
     inkscape:connector-curvature="0" />
  <path
     fill="#f1f1f3"
     stroke="#000000"
     d="M35.46875,150.5C29.955750000000002,150.5,25.49975,154.921,25.49975,160.406L25.49975,199.875C25.49975,205.36,29.95575,209.781,35.46875,209.781L46.90675,209.781L41.93775,234.06300000000002L64.21875,209.781L161.28175,209.781C166.79375,209.781,171.21875,205.36,171.21875,199.875L171.21875,160.406C171.21875,154.921,166.79375,150.5,161.28075,150.5L35.468750000000014,150.5Z"
     stroke-width="0"
     stroke-linejoin="round"
     style="stroke-width: 0px; stroke-linejoin: round; cursor: pointer; display: none;"
     id="path3887" />
  <text
     x="100.5"
     y="176.9601593017578"
     text-anchor="middle"
     font="10px &quot;Arial&quot;"
     stroke="none"
     fill="#000000"
     font-family="Arial"
     font-size="12px"
     style="text-anchor: middle; font-style: normal; font-variant: normal; font-weight: normal; font-size: 12px; line-height: normal; font-family: Arial; cursor: pointer; display: none;"
     id="text3889">
    <tspan
       id="tspan3891">Южный</tspan>
    <tspan
       dy="14.399999999999999"
       x="100"
       id="tspan3893">федеральный округ</tspan>
  </text>
  <path
     fill="#f1f1f3"
     stroke="#000000"
     d="M20.46875,180.5C14.95575,180.5,10.49975,184.921,10.49975,190.406L10.49975,229.875C10.49975,235.36,14.955750000000002,239.781,20.46875,239.781L31.906750000000002,239.781L26.93775,264.063L49.21875,239.78099999999998L146.28175,239.78099999999998C151.79375,239.78099999999998,156.21875,235.35999999999999,156.21875,229.87499999999997L156.21875,190.40599999999998C156.21875,184.92099999999996,151.79375,180.49999999999997,146.28075,180.49999999999997L20.468750000000014,180.49999999999997Z"
     stroke-width="0"
     stroke-linejoin="round"
     style="stroke-width: 0px; stroke-linejoin: round; cursor: pointer; display: none;"
     id="path3895" />
  <text
     x="85.5"
     y="206.9601593017578"
     text-anchor="middle"
     font="10px &quot;Arial&quot;"
     stroke="none"
     fill="#000000"
     font-family="Arial"
     font-size="12px"
     style="text-anchor: middle; font-style: normal; font-variant: normal; font-weight: normal; font-size: 12px; line-height: normal; font-family: Arial; cursor: pointer; display: none;"
     id="text3897">
    <tspan
       id="tspan3899">Республика</tspan>
    <tspan
       dy="14.399999999999999"
       x="85"
       id="tspan3901">Северная Осетия</tspan>
  </text>
  <path
     fill="#f1f1f3"
     stroke="#000000"
     d="M310.46875,100.5C304.95575,100.5,300.49975,104.921,300.49975,110.406L300.49975,149.875C300.49975,155.36,304.95575,159.781,310.46875,159.781L321.90675,159.781L316.93775,184.06300000000002L339.21875,159.781L436.28175,159.781C441.79375,159.781,446.21875,155.36,446.21875,149.875L446.21875,110.406C446.21875,104.921,441.79375,100.5,436.28075,100.5L310.46875,100.5Z"
     stroke-width="0"
     stroke-linejoin="round"
     style="stroke-width: 0px; stroke-linejoin: round; cursor: pointer; display: none;"
     id="path3903" />
  <text
     x="375.5"
     y="126.96015930175781"
     text-anchor="middle"
     font="10px &quot;Arial&quot;"
     stroke="none"
     fill="#000000"
     font-family="Arial"
     font-size="12px"
     style="text-anchor: middle; font-style: normal; font-variant: normal; font-weight: normal; font-size: 12px; line-height: normal; font-family: Arial; cursor: pointer; display: none;"
     id="text3905">
    <tspan
       id="tspan3907">Дальневосточный</tspan>
    <tspan
       dy="14.399999999999999"
       x="375"
       id="tspan3909">федеральный округ</tspan>
  </text>
  <path
     fill="#f1f1f3"
     stroke="#000000"
     d="M260.46875,130.5C254.95575,130.5,250.49975,134.921,250.49975,140.406L250.49975,179.875C250.49975,185.36,254.95575,189.781,260.46875,189.781L271.90675,189.781L266.93775,214.06300000000002L289.21875,189.781L386.28175,189.781C391.79375,189.781,396.21875,185.36,396.21875,179.875L396.21875,140.406C396.21875,134.921,391.79375,130.5,386.28075,130.5L260.46875,130.5Z"
     stroke-width="0"
     stroke-linejoin="round"
     style="stroke-width: 0px; stroke-linejoin: round; cursor: pointer; display: none;"
     id="path3911" />
  <text
     x="325.5"
     y="156.9601593017578"
     text-anchor="middle"
     font="10px &quot;Arial&quot;"
     stroke="none"
     fill="#000000"
     font-family="Arial"
     font-size="12px"
     style="text-anchor: middle; font-style: normal; font-variant: normal; font-weight: normal; font-size: 12px; line-height: normal; font-family: Arial; cursor: pointer; display: none;"
     id="text3913">
    <tspan
       id="tspan3915">Сибирский</tspan>
    <tspan
       dy="14.399999999999999"
       x="325"
       id="tspan3917">федеральный округ</tspan>
  </text>
  <path
     fill="#f1f1f3"
     stroke="#000000"
     d="M160.46875,120.5C154.95575,120.5,150.49975,124.921,150.49975,130.406L150.49975,169.875C150.49975,175.36,154.95575,179.781,160.46875,179.781L171.90675,179.781L166.93775,204.06300000000002L189.21875,179.781L286.28175,179.781C291.79375,179.781,296.21875,175.36,296.21875,169.875L296.21875,130.406C296.21875,124.921,291.79375,120.5,286.28075,120.5L160.46875,120.5Z"
     stroke-width="0"
     stroke-linejoin="round"
     style="stroke-width: 0px; stroke-linejoin: round; cursor: pointer; display: none;"
     id="path3919" />
  <text
     x="225.5"
     y="146.9601593017578"
     text-anchor="middle"
     font="10px &quot;Arial&quot;"
     stroke="none"
     fill="#000000"
     font-family="Arial"
     font-size="12px"
     style="text-anchor: middle; font-style: normal; font-variant: normal; font-weight: normal; font-size: 12px; line-height: normal; font-family: Arial; cursor: pointer; display: none;"
     id="text3921">
    <tspan
       id="tspan3923">Уральский</tspan>
    <tspan
       dy="14.399999999999999"
       x="225"
       id="tspan3925">федеральный округ </tspan>
  </text>
  <path
     fill="#f1f1f3"
     stroke="#000000"
     d="M60.46875,50.5C54.95575,50.5,50.49975,54.921,50.49975,60.406L50.49975,99.875C50.49975,105.36,54.95575,109.781,60.46875,109.781L71.90675,109.781L66.93775000000001,134.06300000000002L89.21875,109.78100000000002L186.28175,109.78100000000002C191.79375,109.78100000000002,196.21875,105.36000000000001,196.21875,99.87500000000001L196.21875,60.40600000000001C196.21875,54.921000000000014,191.79375,50.500000000000014,186.28075,50.500000000000014L60.468750000000014,50.500000000000014Z"
     stroke-width="0"
     stroke-linejoin="round"
     style="stroke-width: 0px; stroke-linejoin: round; cursor: pointer; display: none;"
     id="path3927" />
  <text
     x="125.5"
     y="76.96015548706055"
     text-anchor="middle"
     font="10px &quot;Arial&quot;"
     stroke="none"
     fill="#000000"
     font-family="Arial"
     font-size="12px"
     style="text-anchor: middle; font-style: normal; font-variant: normal; font-weight: normal; font-size: 12px; line-height: normal; font-family: Arial; cursor: pointer; display: none;"
     id="text3929">
    <tspan
       id="tspan3931">Северо-западный</tspan>
    <tspan
       dy="14.399999999999999"
       x="125"
       id="tspan3933">федеральный округ</tspan>
  </text>
  <path
     fill="#f1f1f3"
     stroke="#000000"
     d="M40.46875,100.5C34.95575,100.5,30.49975,104.921,30.49975,110.406L30.49975,149.875C30.49975,155.36,34.95575,159.781,40.46875,159.781L51.90675,159.781L46.93775,184.06300000000002L69.21875,159.781L166.28175,159.781C171.79375,159.781,176.21875,155.36,176.21875,149.875L176.21875,110.406C176.21875,104.921,171.79375,100.5,166.28075,100.5L40.468750000000014,100.5Z"
     stroke-width="0"
     stroke-linejoin="round"
     style="stroke-width: 0px; stroke-linejoin: round; cursor: pointer; display: none;"
     id="path3935" />
  <text
     x="105.5"
     y="126.96015930175781"
     text-anchor="middle"
     font="10px &quot;Arial&quot;"
     stroke="none"
     fill="#000000"
     font-family="Arial"
     font-size="12px"
     style="text-anchor: middle; font-style: normal; font-variant: normal; font-weight: normal; font-size: 12px; line-height: normal; font-family: Arial; cursor: pointer; display: none;"
     id="text3937">
    <tspan
       id="tspan3939">Центральный</tspan>
    <tspan
       dy="14.399999999999999"
       x="105"
       id="tspan3941">федеральный округ</tspan>
  </text>
  <path
     fill="#f1f1f3"
     stroke="#000000"
     d="M70.46875,120.5C64.95575,120.5,60.49975,124.921,60.49975,130.406L60.49975,169.875C60.49975,175.36,64.95575,179.781,70.46875,179.781L81.90675,179.781L76.93775000000001,204.06300000000002L99.21875,179.781L196.28175,179.781C201.79375,179.781,206.21875,175.36,206.21875,169.875L206.21875,130.406C206.21875,124.921,201.79375,120.5,196.28075,120.5L70.46875000000001,120.5Z"
     stroke-width="0"
     stroke-linejoin="round"
     style="stroke-width: 0px; stroke-linejoin: round; cursor: pointer; display: none;"
     id="path3943" />
  <text
     x="135.5"
     y="146.9601593017578"
     text-anchor="middle"
     font="10px &quot;Arial&quot;"
     stroke="none"
     fill="#000000"
     font-family="Arial"
     font-size="12px"
     style="text-anchor: middle; font-style: normal; font-variant: normal; font-weight: normal; font-size: 12px; line-height: normal; font-family: Arial; cursor: pointer; display: none;"
     id="text3945">
    <tspan
       id="tspan3947">Приволжский</tspan>
    <tspan
       dy="14.399999999999999"
       x="135"
       id="tspan3949">федеральный округ</tspan>
  </text>
</svg>
